M48
; DRILL file {KiCad 9.0.6} date 2025-12-21T23:54:03+0200
; FORMAT={-:-/ absolute / metric / decimal}
; #@! TF.CreationDate,2025-12-21T23:54:03+02:00
; #@! TF.GenerationSoftware,Kicad,Pcbnew,9.0.6
; #@! TF.FileFunction,MixedPlating,1,2
FMAT,2
METRIC
; #@! TA.AperFunction,Plated,PTH,ViaDrill
T1C0.600
; #@! TA.AperFunction,Plated,PTH,ComponentDrill
T2C1.000
; #@! TA.AperFunction,NonPlated,NPTH,ComponentDrill
T3C3.200
%
G90
G05
T1
X151.0Y-79.0
X157.5Y-71.5
T2
X118.796Y-49.2
X121.336Y-49.2
X123.876Y-49.2
X126.0Y-57.5
X126.0Y-60.04
X126.416Y-49.2
X127.94Y-97.46
X128.956Y-49.2
X130.48Y-97.46
X131.496Y-49.2
X133.02Y-97.46
X134.036Y-49.2
X135.025Y-57.25
X135.025Y-59.79
X135.56Y-97.46
X136.576Y-49.2
X138.1Y-97.46
X139.116Y-49.2
X140.64Y-97.46
X141.656Y-49.2
X142.0Y-82.0
X142.0Y-84.54
X142.0Y-87.08
X143.18Y-97.46
X143.525Y-57.75
X143.525Y-60.29
X145.72Y-49.2
X145.72Y-97.46
X148.26Y-49.2
X150.8Y-49.2
X150.8Y-97.46
X151.88Y-60.0
X153.34Y-49.2
X153.34Y-97.46
X154.42Y-60.0
X155.88Y-49.2
X155.88Y-97.46
X156.96Y-60.0
X158.42Y-49.2
X158.42Y-97.46
X159.5Y-60.0
X160.96Y-49.2
X160.96Y-97.46
X163.5Y-49.2
X163.5Y-97.46
X166.04Y-97.46
X168.58Y-49.2
X168.58Y-97.46
X169.15Y-60.5
X171.12Y-49.2
X171.69Y-60.5
X173.66Y-49.2
X173.66Y-97.46
X174.23Y-60.5
X176.2Y-49.2
X176.2Y-97.46
X176.77Y-60.5
X178.74Y-49.2
X178.74Y-97.46
X179.31Y-60.5
X181.28Y-49.2
X181.28Y-97.46
X181.85Y-60.5
X183.82Y-49.2
X183.82Y-97.46
X186.36Y-49.2
X186.36Y-97.46
X188.9Y-97.46
X191.44Y-97.46
X194.0Y-49.2
X194.0Y-51.74
X194.0Y-54.28
X194.0Y-56.82
X194.0Y-59.36
X194.0Y-61.9
X194.0Y-64.44
X194.0Y-66.98
X194.0Y-69.52
X194.0Y-72.06
X194.0Y-74.6
X194.0Y-77.14
X194.0Y-79.68
X194.0Y-82.22
X194.0Y-84.76
X194.0Y-87.3
X194.0Y-89.84
X194.0Y-92.38
X196.54Y-49.2
X196.54Y-51.74
X196.54Y-54.28
X196.54Y-56.82
X196.54Y-59.36
X196.54Y-61.9
X196.54Y-64.44
X196.54Y-66.98
X196.54Y-69.52
X196.54Y-72.06
X196.54Y-74.6
X196.54Y-77.14
X196.54Y-79.68
X196.54Y-82.22
X196.54Y-84.76
X196.54Y-87.3
X196.54Y-89.84
X196.54Y-92.38
T3
X113.97Y-97.46
X115.24Y-49.2
X166.04Y-64.44
X166.04Y-92.38
X190.17Y-49.2
X196.52Y-97.46
M30
