%TF.GenerationSoftware,KiCad,Pcbnew,9.0.6*%
%TF.CreationDate,2025-12-21T23:53:10+02:00*%
%TF.ProjectId,Embedded_pcb,456d6265-6464-4656-945f-7063622e6b69,rev?*%
%TF.SameCoordinates,Original*%
%TF.FileFunction,Copper,L2,Bot*%
%TF.FilePolarity,Positive*%
%FSLAX46Y46*%
G04 Gerber Fmt 4.6, Leading zero omitted, Abs format (unit mm)*
G04 Created by KiCad (PCBNEW 9.0.6) date 2025-12-21 23:53:10*
%MOMM*%
%LPD*%
G01*
G04 APERTURE LIST*
%TA.AperFunction,ComponentPad*%
%ADD10R,1.700000X1.700000*%
%TD*%
%TA.AperFunction,ComponentPad*%
%ADD11O,1.700000X1.700000*%
%TD*%
%TA.AperFunction,ComponentPad*%
%ADD12C,1.700000*%
%TD*%
%TA.AperFunction,ViaPad*%
%ADD13C,1.400000*%
%TD*%
%TA.AperFunction,Conductor*%
%ADD14C,0.400000*%
%TD*%
G04 APERTURE END LIST*
D10*
%TO.P,J7,1,Pin_1*%
%TO.N,unconnected-(J7-Pin_1-Pad1)*%
X194000000Y-92380000D03*
D11*
%TO.P,J7,2,Pin_2*%
%TO.N,unconnected-(J7-Pin_2-Pad2)*%
X196540000Y-92380000D03*
%TO.P,J7,3,Pin_3*%
%TO.N,unconnected-(J7-Pin_3-Pad3)*%
X194000000Y-89840000D03*
%TO.P,J7,4,Pin_4*%
%TO.N,/53*%
X196540000Y-89840000D03*
%TO.P,J7,5,Pin_5*%
%TO.N,/\u002A50*%
X194000000Y-87300000D03*
%TO.P,J7,6,Pin_6*%
%TO.N,/51*%
X196540000Y-87300000D03*
%TO.P,J7,7,Pin_7*%
%TO.N,/48*%
X194000000Y-84760000D03*
%TO.P,J7,8,Pin_8*%
%TO.N,/49*%
X196540000Y-84760000D03*
%TO.P,J7,9,Pin_9*%
%TO.N,/\u002A46*%
X194000000Y-82220000D03*
%TO.P,J7,10,Pin_10*%
%TO.N,/47*%
X196540000Y-82220000D03*
%TO.P,J7,11,Pin_11*%
%TO.N,/\u002A44*%
X194000000Y-79680000D03*
%TO.P,J7,12,Pin_12*%
%TO.N,/\u002A45*%
X196540000Y-79680000D03*
%TO.P,J7,13,Pin_13*%
%TO.N,/42*%
X194000000Y-77140000D03*
%TO.P,J7,14,Pin_14*%
%TO.N,/43*%
X196540000Y-77140000D03*
%TO.P,J7,15,Pin_15*%
%TO.N,/40*%
X194000000Y-74600000D03*
%TO.P,J7,16,Pin_16*%
%TO.N,/41*%
X196540000Y-74600000D03*
%TO.P,J7,17,Pin_17*%
%TO.N,/38*%
X194000000Y-72060000D03*
%TO.P,J7,18,Pin_18*%
%TO.N,/39*%
X196540000Y-72060000D03*
%TO.P,J7,19,Pin_19*%
%TO.N,/36*%
X194000000Y-69520000D03*
%TO.P,J7,20,Pin_20*%
%TO.N,/37*%
X196540000Y-69520000D03*
%TO.P,J7,21,Pin_21*%
%TO.N,/34*%
X194000000Y-66980000D03*
%TO.P,J7,22,Pin_22*%
%TO.N,/35*%
X196540000Y-66980000D03*
%TO.P,J7,23,Pin_23*%
%TO.N,/32*%
X194000000Y-64440000D03*
%TO.P,J7,24,Pin_24*%
%TO.N,/33*%
X196540000Y-64440000D03*
%TO.P,J7,25,Pin_25*%
%TO.N,/30*%
X194000000Y-61900000D03*
%TO.P,J7,26,Pin_26*%
%TO.N,/31*%
X196540000Y-61900000D03*
%TO.P,J7,27,Pin_27*%
%TO.N,/28*%
X194000000Y-59360000D03*
%TO.P,J7,28,Pin_28*%
%TO.N,/29*%
X196540000Y-59360000D03*
%TO.P,J7,29,Pin_29*%
%TO.N,/26*%
X194000000Y-56820000D03*
%TO.P,J7,30,Pin_30*%
%TO.N,/27*%
X196540000Y-56820000D03*
%TO.P,J7,31,Pin_31*%
%TO.N,/24*%
X194000000Y-54280000D03*
%TO.P,J7,32,Pin_32*%
%TO.N,/25*%
X196540000Y-54280000D03*
%TO.P,J7,33,Pin_33*%
%TO.N,/22*%
X194000000Y-51740000D03*
%TO.P,J7,34,Pin_34*%
%TO.N,/23*%
X196540000Y-51740000D03*
%TO.P,J7,35,Pin_35*%
%TO.N,unconnected-(J7-Pin_35-Pad35)*%
X194000000Y-49200000D03*
%TO.P,J7,36,Pin_36*%
%TO.N,unconnected-(J7-Pin_36-Pad36)*%
X196540000Y-49200000D03*
%TD*%
D10*
%TO.P,J1,1,Pin_1*%
%TO.N,unconnected-(J1-Pin_1-Pad1)*%
X127940000Y-97460000D03*
D11*
%TO.P,J1,2,Pin_2*%
%TO.N,/IOREF*%
X130480000Y-97460000D03*
%TO.P,J1,3,Pin_3*%
%TO.N,/~{RESET}*%
X133020000Y-97460000D03*
%TO.P,J1,4,Pin_4*%
%TO.N,+3V3*%
X135560000Y-97460000D03*
%TO.P,J1,5,Pin_5*%
%TO.N,+5V*%
X138100000Y-97460000D03*
%TO.P,J1,6,Pin_6*%
%TO.N,GND*%
X140640000Y-97460000D03*
%TO.P,J1,7,Pin_7*%
X143180000Y-97460000D03*
%TO.P,J1,8,Pin_8*%
%TO.N,VCC*%
X145720000Y-97460000D03*
%TD*%
D10*
%TO.P,J3,1,Pin_1*%
%TO.N,/A0*%
X150800000Y-97460000D03*
D11*
%TO.P,J3,2,Pin_2*%
%TO.N,/A1*%
X153340000Y-97460000D03*
%TO.P,J3,3,Pin_3*%
%TO.N,/A2*%
X155880000Y-97460000D03*
%TO.P,J3,4,Pin_4*%
%TO.N,/A3*%
X158420000Y-97460000D03*
%TO.P,J3,5,Pin_5*%
%TO.N,/A4*%
X160960000Y-97460000D03*
%TO.P,J3,6,Pin_6*%
%TO.N,/A5*%
X163500000Y-97460000D03*
%TO.P,J3,7,Pin_7*%
%TO.N,/A6*%
X166040000Y-97460000D03*
%TO.P,J3,8,Pin_8*%
%TO.N,/A7*%
X168580000Y-97460000D03*
%TD*%
D10*
%TO.P,J5,1,Pin_1*%
%TO.N,/A8*%
X173660000Y-97460000D03*
D11*
%TO.P,J5,2,Pin_2*%
%TO.N,/A9*%
X176200000Y-97460000D03*
%TO.P,J5,3,Pin_3*%
%TO.N,/A10*%
X178740000Y-97460000D03*
%TO.P,J5,4,Pin_4*%
%TO.N,/A11*%
X181280000Y-97460000D03*
%TO.P,J5,5,Pin_5*%
%TO.N,/A12*%
X183820000Y-97460000D03*
%TO.P,J5,6,Pin_6*%
%TO.N,/A13*%
X186360000Y-97460000D03*
%TO.P,J5,7,Pin_7*%
%TO.N,/A14*%
X188900000Y-97460000D03*
%TO.P,J5,8,Pin_8*%
%TO.N,/A15*%
X191440000Y-97460000D03*
%TD*%
D10*
%TO.P,J2,1,Pin_1*%
%TO.N,/SCL{slash}21*%
X118796000Y-49200000D03*
D11*
%TO.P,J2,2,Pin_2*%
%TO.N,/SDA{slash}20*%
X121336000Y-49200000D03*
%TO.P,J2,3,Pin_3*%
%TO.N,/AREF*%
X123876000Y-49200000D03*
%TO.P,J2,4,Pin_4*%
%TO.N,GND*%
X126416000Y-49200000D03*
%TO.P,J2,5,Pin_5*%
%TO.N,/\u002A13*%
X128956000Y-49200000D03*
%TO.P,J2,6,Pin_6*%
%TO.N,/\u002A12*%
X131496000Y-49200000D03*
%TO.P,J2,7,Pin_7*%
%TO.N,/\u002A11*%
X134036000Y-49200000D03*
%TO.P,J2,8,Pin_8*%
%TO.N,/\u002A10*%
X136576000Y-49200000D03*
%TO.P,J2,9,Pin_9*%
%TO.N,/\u002A9*%
X139116000Y-49200000D03*
%TO.P,J2,10,Pin_10*%
%TO.N,/\u002A8*%
X141656000Y-49200000D03*
%TD*%
D10*
%TO.P,J4,1,Pin_1*%
%TO.N,/\u002A7*%
X145720000Y-49200000D03*
D11*
%TO.P,J4,2,Pin_2*%
%TO.N,/\u002A6*%
X148260000Y-49200000D03*
%TO.P,J4,3,Pin_3*%
%TO.N,/\u002A5*%
X150800000Y-49200000D03*
%TO.P,J4,4,Pin_4*%
%TO.N,/\u002A4*%
X153340000Y-49200000D03*
%TO.P,J4,5,Pin_5*%
%TO.N,/\u002A3*%
X155880000Y-49200000D03*
%TO.P,J4,6,Pin_6*%
%TO.N,/\u002A2*%
X158420000Y-49200000D03*
%TO.P,J4,7,Pin_7*%
%TO.N,/TX0{slash}1*%
X160960000Y-49200000D03*
%TO.P,J4,8,Pin_8*%
%TO.N,/RX0{slash}0*%
X163500000Y-49200000D03*
%TD*%
D10*
%TO.P,J6,1,Pin_1*%
%TO.N,/TX3{slash}14*%
X168580000Y-49200000D03*
D11*
%TO.P,J6,2,Pin_2*%
%TO.N,/RX3{slash}15*%
X171120000Y-49200000D03*
%TO.P,J6,3,Pin_3*%
%TO.N,/TX2{slash}16*%
X173660000Y-49200000D03*
%TO.P,J6,4,Pin_4*%
%TO.N,/RX2{slash}17*%
X176200000Y-49200000D03*
%TO.P,J6,5,Pin_5*%
%TO.N,/BT_RX*%
X178740000Y-49200000D03*
%TO.P,J6,6,Pin_6*%
%TO.N,/BT_TX*%
X181280000Y-49200000D03*
%TO.P,J6,7,Pin_7*%
%TO.N,/SDA{slash}20*%
X183820000Y-49200000D03*
%TO.P,J6,8,Pin_8*%
%TO.N,/SCL{slash}21*%
X186360000Y-49200000D03*
%TD*%
D10*
%TO.P,J9,1,Pin_1*%
%TO.N,+5V*%
X151880000Y-60000000D03*
D12*
%TO.P,J9,2,Pin_2*%
%TO.N,/\u002A3*%
X154420000Y-60000000D03*
%TO.P,J9,3,Pin_3*%
%TO.N,/\u002A2*%
X156960000Y-60000000D03*
%TO.P,J9,4,Pin_4*%
%TO.N,GND*%
X159500000Y-60000000D03*
%TD*%
D10*
%TO.P,J11,1,Pin_1*%
%TO.N,/\u002A4*%
X143525000Y-57750000D03*
D12*
%TO.P,J11,2,Pin_2*%
%TO.N,GND*%
X143525000Y-60290000D03*
%TD*%
D10*
%TO.P,J13,1,Pin_1*%
%TO.N,/\u002A6*%
X126000000Y-57500000D03*
D12*
%TO.P,J13,2,Pin_2*%
%TO.N,GND*%
X126000000Y-60040000D03*
%TD*%
%TO.P,J8,6,Pin_6*%
%TO.N,unconnected-(J8-Pin_6-Pad6)*%
X169150000Y-60500000D03*
%TO.P,J8,5,Pin_5*%
%TO.N,/BT_RX*%
X171690000Y-60500000D03*
%TO.P,J8,4,Pin_4*%
%TO.N,/BT_TX*%
X174230000Y-60500000D03*
%TO.P,J8,3,Pin_3*%
%TO.N,GND*%
X176770000Y-60500000D03*
%TO.P,J8,2,Pin_2*%
%TO.N,+5V*%
X179310000Y-60500000D03*
D10*
%TO.P,J8,1,Pin_1*%
%TO.N,unconnected-(J8-Pin_1-Pad1)*%
X181850000Y-60500000D03*
%TD*%
%TO.P,J10,1,Pin_1*%
%TO.N,/\u002A5*%
X135025000Y-57250000D03*
D12*
%TO.P,J10,2,Pin_2*%
%TO.N,GND*%
X135025000Y-59790000D03*
%TD*%
D10*
%TO.P,J12,1,Pin_1*%
%TO.N,+5V*%
X142000000Y-82000000D03*
D12*
%TO.P,J12,2,Pin_2*%
%TO.N,/A0*%
X142000000Y-84540000D03*
%TO.P,J12,3,Pin_3*%
%TO.N,GND*%
X142000000Y-87080000D03*
%TD*%
D13*
%TO.N,+5V*%
X157500000Y-71500000D03*
X151000000Y-79000000D03*
%TD*%
D14*
%TO.N,+5V*%
X132500000Y-91860000D02*
X138100000Y-97460000D01*
X132500000Y-87000000D02*
X132500000Y-91860000D01*
X137500000Y-82000000D02*
X132500000Y-87000000D01*
X142000000Y-82000000D02*
X137500000Y-82000000D01*
%TO.N,/A0*%
X150800000Y-90800000D02*
X150800000Y-97460000D01*
X144540000Y-84540000D02*
X150800000Y-90800000D01*
X142000000Y-84540000D02*
X144540000Y-84540000D01*
%TO.N,+5V*%
X157500000Y-71380000D02*
X160380000Y-68500000D01*
X157500000Y-71500000D02*
X157500000Y-71380000D01*
X160190000Y-68310000D02*
X160380000Y-68500000D01*
X148000000Y-82000000D02*
X151000000Y-79000000D01*
X142000000Y-82000000D02*
X148000000Y-82000000D01*
X151880000Y-60000000D02*
X158440000Y-66560000D01*
%TO.N,/SCL{slash}21*%
X183190000Y-75500000D02*
X126000000Y-75500000D01*
X189190000Y-69500000D02*
X183190000Y-75500000D01*
X189190000Y-52030000D02*
X189190000Y-69500000D01*
X186360000Y-49200000D02*
X189190000Y-52030000D01*
%TO.N,/SDA{slash}20*%
X185500000Y-66500000D02*
X178000000Y-74000000D01*
X185500000Y-50880000D02*
X185500000Y-66500000D01*
X183820000Y-49200000D02*
X185500000Y-50880000D01*
%TO.N,/BT_RX*%
X171690000Y-56250000D02*
X178740000Y-49200000D01*
X171690000Y-60500000D02*
X171690000Y-56250000D01*
%TO.N,/BT_TX*%
X175500000Y-54980000D02*
X181280000Y-49200000D01*
X174230000Y-60500000D02*
X174230000Y-56270000D01*
X174230000Y-56270000D02*
X175500000Y-55000000D01*
X175500000Y-55000000D02*
X175500000Y-54980000D01*
%TO.N,+5V*%
X171310000Y-68500000D02*
X160380000Y-68500000D01*
X179310000Y-60500000D02*
X171310000Y-68500000D01*
X158440000Y-66560000D02*
X160190000Y-68310000D01*
%TO.N,GND*%
X143180000Y-97460000D02*
X140640000Y-97460000D01*
%TO.N,/\u002A6*%
X134000000Y-53000000D02*
X147000000Y-53000000D01*
X147000000Y-53000000D02*
X148260000Y-51740000D01*
X129500000Y-57500000D02*
X134000000Y-53000000D01*
X126000000Y-57500000D02*
X129500000Y-57500000D01*
X148260000Y-51740000D02*
X148260000Y-49200000D01*
%TO.N,/\u002A5*%
X150800000Y-51200000D02*
X150800000Y-49200000D01*
X147500000Y-54500000D02*
X150800000Y-51200000D01*
X143000000Y-54500000D02*
X147500000Y-54500000D01*
X135025000Y-57250000D02*
X140250000Y-57250000D01*
X140250000Y-57250000D02*
X143000000Y-54500000D01*
%TO.N,/\u002A4*%
X153340000Y-55660000D02*
X153340000Y-49200000D01*
X143525000Y-57750000D02*
X151250000Y-57750000D01*
X151250000Y-57750000D02*
X153340000Y-55660000D01*
%TO.N,/\u002A3*%
X155880000Y-58540000D02*
X155880000Y-49200000D01*
X154420000Y-60000000D02*
X155880000Y-58540000D01*
%TO.N,/\u002A2*%
X156960000Y-60000000D02*
X158420000Y-58540000D01*
X158420000Y-58540000D02*
X158420000Y-49200000D01*
%TO.N,/SDA{slash}20*%
X121336000Y-54164000D02*
X121336000Y-49200000D01*
X119000000Y-66000000D02*
X119000000Y-56500000D01*
X127000000Y-74000000D02*
X119000000Y-66000000D01*
X178000000Y-74000000D02*
X127000000Y-74000000D01*
X119000000Y-56500000D02*
X121336000Y-54164000D01*
%TO.N,/SCL{slash}21*%
X115000000Y-64500000D02*
X115000000Y-56500000D01*
X126000000Y-75500000D02*
X115000000Y-64500000D01*
X115000000Y-56500000D02*
X118796000Y-52704000D01*
X118796000Y-52704000D02*
X118796000Y-49200000D01*
%TD*%
%TA.AperFunction,Conductor*%
%TO.N,GND*%
G36*
X142680000Y-97394174D02*
G01*
X142680000Y-97525826D01*
X142702555Y-97610000D01*
X141117445Y-97610000D01*
X141140000Y-97525826D01*
X141140000Y-97394174D01*
X141117445Y-97310000D01*
X142702555Y-97310000D01*
X142680000Y-97394174D01*
G37*
%TD.AperFunction*%
%TA.AperFunction,Conductor*%
G36*
X195955475Y-46999766D02*
G01*
X196022409Y-47019801D01*
X196034198Y-47028498D01*
X196719400Y-47599500D01*
X196911190Y-47759325D01*
X196950089Y-47817364D01*
X196951435Y-47887221D01*
X196914799Y-47946716D01*
X196851814Y-47976959D01*
X196812409Y-47977057D01*
X196638422Y-47949500D01*
X196638417Y-47949500D01*
X196441583Y-47949500D01*
X196441578Y-47949500D01*
X196247173Y-47980290D01*
X196059970Y-48041117D01*
X195884594Y-48130476D01*
X195829815Y-48170276D01*
X195725354Y-48246172D01*
X195725352Y-48246174D01*
X195725351Y-48246174D01*
X195586174Y-48385351D01*
X195586174Y-48385352D01*
X195586172Y-48385354D01*
X195536485Y-48453741D01*
X195470476Y-48544594D01*
X195380485Y-48721213D01*
X195332511Y-48772009D01*
X195264690Y-48788804D01*
X195198555Y-48766267D01*
X195159515Y-48721213D01*
X195091725Y-48588167D01*
X195069524Y-48544595D01*
X194953828Y-48385354D01*
X194814646Y-48246172D01*
X194655405Y-48130476D01*
X194480029Y-48041117D01*
X194292826Y-47980290D01*
X194098422Y-47949500D01*
X194098417Y-47949500D01*
X193901583Y-47949500D01*
X193901578Y-47949500D01*
X193707173Y-47980290D01*
X193519970Y-48041117D01*
X193344594Y-48130476D01*
X193289815Y-48170276D01*
X193185354Y-48246172D01*
X193185352Y-48246174D01*
X193185351Y-48246174D01*
X193046174Y-48385351D01*
X193046174Y-48385352D01*
X193046172Y-48385354D01*
X192996485Y-48453741D01*
X192930476Y-48544594D01*
X192841117Y-48719970D01*
X192780290Y-48907173D01*
X192749500Y-49101577D01*
X192749500Y-49298422D01*
X192780290Y-49492826D01*
X192841117Y-49680029D01*
X192930475Y-49855403D01*
X192930476Y-49855405D01*
X193046172Y-50014646D01*
X193185354Y-50153828D01*
X193344595Y-50269524D01*
X193458592Y-50327608D01*
X193521213Y-50359515D01*
X193572009Y-50407489D01*
X193588804Y-50475310D01*
X193566267Y-50541445D01*
X193521213Y-50580485D01*
X193344594Y-50670476D01*
X193253741Y-50736485D01*
X193185354Y-50786172D01*
X193185352Y-50786174D01*
X193185351Y-50786174D01*
X193046174Y-50925351D01*
X193046174Y-50925352D01*
X193046172Y-50925354D01*
X193015957Y-50966941D01*
X192930476Y-51084594D01*
X192841117Y-51259970D01*
X192780290Y-51447173D01*
X192749500Y-51641577D01*
X192749500Y-51838422D01*
X192780290Y-52032826D01*
X192841117Y-52220029D01*
X192883770Y-52303739D01*
X192930476Y-52395405D01*
X193046172Y-52554646D01*
X193185354Y-52693828D01*
X193344595Y-52809524D01*
X193467992Y-52872397D01*
X193521213Y-52899515D01*
X193572009Y-52947489D01*
X193588804Y-53015310D01*
X193566267Y-53081445D01*
X193521213Y-53120485D01*
X193344594Y-53210476D01*
X193253741Y-53276485D01*
X193185354Y-53326172D01*
X193185352Y-53326174D01*
X193185351Y-53326174D01*
X193046174Y-53465351D01*
X193046174Y-53465352D01*
X193046172Y-53465354D01*
X193004229Y-53523083D01*
X192930476Y-53624594D01*
X192841117Y-53799970D01*
X192780290Y-53987173D01*
X192749500Y-54181577D01*
X192749500Y-54378422D01*
X192780290Y-54572826D01*
X192841117Y-54760029D01*
X192896495Y-54868713D01*
X192930476Y-54935405D01*
X193046172Y-55094646D01*
X193185354Y-55233828D01*
X193344595Y-55349524D01*
X193382262Y-55368716D01*
X193521213Y-55439515D01*
X193572009Y-55487489D01*
X193588804Y-55555310D01*
X193566267Y-55621445D01*
X193521213Y-55660485D01*
X193344594Y-55750476D01*
X193253741Y-55816485D01*
X193185354Y-55866172D01*
X193185352Y-55866174D01*
X193185351Y-55866174D01*
X193046174Y-56005351D01*
X193046174Y-56005352D01*
X193046172Y-56005354D01*
X193022301Y-56038210D01*
X192930476Y-56164594D01*
X192841117Y-56339970D01*
X192780290Y-56527173D01*
X192749500Y-56721577D01*
X192749500Y-56918422D01*
X192780290Y-57112826D01*
X192841117Y-57300029D01*
X192930475Y-57475403D01*
X192930476Y-57475405D01*
X193046172Y-57634646D01*
X193185354Y-57773828D01*
X193344595Y-57889524D01*
X193379799Y-57907461D01*
X193521213Y-57979515D01*
X193572009Y-58027489D01*
X193588804Y-58095310D01*
X193566267Y-58161445D01*
X193521213Y-58200485D01*
X193344594Y-58290476D01*
X193261978Y-58350501D01*
X193185354Y-58406172D01*
X193185352Y-58406174D01*
X193185351Y-58406174D01*
X193046174Y-58545351D01*
X193046174Y-58545352D01*
X193046172Y-58545354D01*
X193031423Y-58565654D01*
X192930476Y-58704594D01*
X192841117Y-58879970D01*
X192780290Y-59067173D01*
X192749500Y-59261577D01*
X192749500Y-59458422D01*
X192780290Y-59652826D01*
X192841117Y-59840029D01*
X192909312Y-59973869D01*
X192930476Y-60015405D01*
X193046172Y-60174646D01*
X193185354Y-60313828D01*
X193344595Y-60429524D01*
X193467992Y-60492397D01*
X193521213Y-60519515D01*
X193572009Y-60567489D01*
X193588804Y-60635310D01*
X193566267Y-60701445D01*
X193521213Y-60740485D01*
X193344594Y-60830476D01*
X193274343Y-60881517D01*
X193185354Y-60946172D01*
X193185352Y-60946174D01*
X193185351Y-60946174D01*
X193046174Y-61085351D01*
X193046174Y-61085352D01*
X193046172Y-61085354D01*
X193006469Y-61140000D01*
X192930476Y-61244594D01*
X192841117Y-61419970D01*
X192780290Y-61607173D01*
X192749500Y-61801577D01*
X192749500Y-61998422D01*
X192780290Y-62192826D01*
X192841117Y-62380029D01*
X192930475Y-62555403D01*
X192930476Y-62555405D01*
X193046172Y-62714646D01*
X193185354Y-62853828D01*
X193344595Y-62969524D01*
X193467992Y-63032397D01*
X193521213Y-63059515D01*
X193572009Y-63107489D01*
X193588804Y-63175310D01*
X193566267Y-63241445D01*
X193521213Y-63280485D01*
X193344594Y-63370476D01*
X193307613Y-63397345D01*
X193185354Y-63486172D01*
X193185352Y-63486174D01*
X193185351Y-63486174D01*
X193046174Y-63625351D01*
X193046174Y-63625352D01*
X193046172Y-63625354D01*
X192996485Y-63693741D01*
X192930476Y-63784594D01*
X192841117Y-63959970D01*
X192780290Y-64147173D01*
X192749500Y-64341577D01*
X192749500Y-64538422D01*
X192780290Y-64732826D01*
X192841117Y-64920029D01*
X192909572Y-65054379D01*
X192930476Y-65095405D01*
X193046172Y-65254646D01*
X193185354Y-65393828D01*
X193344595Y-65509524D01*
X193467992Y-65572397D01*
X193521213Y-65599515D01*
X193572009Y-65647489D01*
X193588804Y-65715310D01*
X193566267Y-65781445D01*
X193521213Y-65820485D01*
X193344594Y-65910476D01*
X193253741Y-65976485D01*
X193185354Y-66026172D01*
X193185352Y-66026174D01*
X193185351Y-66026174D01*
X193046174Y-66165351D01*
X193046174Y-66165352D01*
X193046172Y-66165354D01*
X192997907Y-66231785D01*
X192930476Y-66324594D01*
X192841117Y-66499970D01*
X192780290Y-66687173D01*
X192749500Y-66881577D01*
X192749500Y-67078422D01*
X192780290Y-67272826D01*
X192841117Y-67460029D01*
X192930475Y-67635403D01*
X192930476Y-67635405D01*
X193046172Y-67794646D01*
X193185354Y-67933828D01*
X193344595Y-68049524D01*
X193467992Y-68112397D01*
X193521213Y-68139515D01*
X193572009Y-68187489D01*
X193588804Y-68255310D01*
X193566267Y-68321445D01*
X193521213Y-68360485D01*
X193344594Y-68450476D01*
X193312711Y-68473641D01*
X193185354Y-68566172D01*
X193185352Y-68566174D01*
X193185351Y-68566174D01*
X193046174Y-68705351D01*
X193046174Y-68705352D01*
X193046172Y-68705354D01*
X192996485Y-68773741D01*
X192930476Y-68864594D01*
X192841117Y-69039970D01*
X192780290Y-69227173D01*
X192749500Y-69421577D01*
X192749500Y-69618422D01*
X192780290Y-69812826D01*
X192841117Y-70000029D01*
X192930475Y-70175403D01*
X192930476Y-70175405D01*
X193046172Y-70334646D01*
X193185354Y-70473828D01*
X193344595Y-70589524D01*
X193467992Y-70652397D01*
X193521213Y-70679515D01*
X193572009Y-70727489D01*
X193588804Y-70795310D01*
X193566267Y-70861445D01*
X193521213Y-70900485D01*
X193344594Y-70990476D01*
X193253741Y-71056485D01*
X193185354Y-71106172D01*
X193185352Y-71106174D01*
X193185351Y-71106174D01*
X193046174Y-71245351D01*
X193046174Y-71245352D01*
X193046172Y-71245354D01*
X192996485Y-71313741D01*
X192930476Y-71404594D01*
X192841117Y-71579970D01*
X192780290Y-71767173D01*
X192749500Y-71961577D01*
X192749500Y-72158422D01*
X192780290Y-72352826D01*
X192841117Y-72540029D01*
X192871929Y-72600500D01*
X192930476Y-72715405D01*
X193046172Y-72874646D01*
X193185354Y-73013828D01*
X193344595Y-73129524D01*
X193467992Y-73192397D01*
X193521213Y-73219515D01*
X193572009Y-73267489D01*
X193588804Y-73335310D01*
X193566267Y-73401445D01*
X193521213Y-73440485D01*
X193344594Y-73530476D01*
X193253741Y-73596485D01*
X193185354Y-73646172D01*
X193185352Y-73646174D01*
X193185351Y-73646174D01*
X193046174Y-73785351D01*
X193046174Y-73785352D01*
X193046172Y-73785354D01*
X192996485Y-73853741D01*
X192930476Y-73944594D01*
X192841117Y-74119970D01*
X192780290Y-74307173D01*
X192749500Y-74501577D01*
X192749500Y-74698422D01*
X192780290Y-74892826D01*
X192841117Y-75080029D01*
X192930475Y-75255403D01*
X192930476Y-75255405D01*
X193046172Y-75414646D01*
X193185354Y-75553828D01*
X193344595Y-75669524D01*
X193467992Y-75732397D01*
X193521213Y-75759515D01*
X193572009Y-75807489D01*
X193588804Y-75875310D01*
X193566267Y-75941445D01*
X193521213Y-75980485D01*
X193344594Y-76070476D01*
X193303269Y-76100501D01*
X193185354Y-76186172D01*
X193185352Y-76186174D01*
X193185351Y-76186174D01*
X193046174Y-76325351D01*
X193046174Y-76325352D01*
X193046172Y-76325354D01*
X192996485Y-76393741D01*
X192930476Y-76484594D01*
X192841117Y-76659970D01*
X192780290Y-76847173D01*
X192749500Y-77041577D01*
X192749500Y-77238422D01*
X192780290Y-77432826D01*
X192841117Y-77620029D01*
X192930475Y-77795403D01*
X192930476Y-77795405D01*
X193046172Y-77954646D01*
X193185354Y-78093828D01*
X193344595Y-78209524D01*
X193467992Y-78272397D01*
X193521213Y-78299515D01*
X193572009Y-78347489D01*
X193588804Y-78415310D01*
X193566267Y-78481445D01*
X193521213Y-78520485D01*
X193344594Y-78610476D01*
X193253741Y-78676485D01*
X193185354Y-78726172D01*
X193185352Y-78726174D01*
X193185351Y-78726174D01*
X193046174Y-78865351D01*
X193046174Y-78865352D01*
X193046172Y-78865354D01*
X193011272Y-78913389D01*
X192930476Y-79024594D01*
X192841117Y-79199970D01*
X192780290Y-79387173D01*
X192749500Y-79581577D01*
X192749500Y-79778422D01*
X192780290Y-79972826D01*
X192841117Y-80160029D01*
X192930475Y-80335403D01*
X192930476Y-80335405D01*
X193046172Y-80494646D01*
X193185354Y-80633828D01*
X193344595Y-80749524D01*
X193373701Y-80764354D01*
X193521213Y-80839515D01*
X193572009Y-80887489D01*
X193588804Y-80955310D01*
X193566267Y-81021445D01*
X193521213Y-81060485D01*
X193344594Y-81150476D01*
X193253741Y-81216485D01*
X193185354Y-81266172D01*
X193185352Y-81266174D01*
X193185351Y-81266174D01*
X193046174Y-81405351D01*
X193046174Y-81405352D01*
X193046172Y-81405354D01*
X192999669Y-81469359D01*
X192930476Y-81564594D01*
X192841117Y-81739970D01*
X192780290Y-81927173D01*
X192749500Y-82121577D01*
X192749500Y-82318422D01*
X192780290Y-82512826D01*
X192841117Y-82700029D01*
X192930475Y-82875403D01*
X192930476Y-82875405D01*
X193046172Y-83034646D01*
X193185354Y-83173828D01*
X193344595Y-83289524D01*
X193463037Y-83349873D01*
X193521213Y-83379515D01*
X193572009Y-83427489D01*
X193588804Y-83495310D01*
X193566267Y-83561445D01*
X193521213Y-83600485D01*
X193344594Y-83690476D01*
X193253741Y-83756485D01*
X193185354Y-83806172D01*
X193185352Y-83806174D01*
X193185351Y-83806174D01*
X193046174Y-83945351D01*
X193046174Y-83945352D01*
X193046172Y-83945354D01*
X193020693Y-83980423D01*
X192930476Y-84104594D01*
X192841117Y-84279970D01*
X192780290Y-84467173D01*
X192749500Y-84661577D01*
X192749500Y-84858422D01*
X192780290Y-85052826D01*
X192841117Y-85240029D01*
X192899518Y-85354646D01*
X192930476Y-85415405D01*
X193046172Y-85574646D01*
X193185354Y-85713828D01*
X193344595Y-85829524D01*
X193467992Y-85892397D01*
X193521213Y-85919515D01*
X193572009Y-85967489D01*
X193588804Y-86035310D01*
X193566267Y-86101445D01*
X193521213Y-86140485D01*
X193344594Y-86230476D01*
X193253741Y-86296485D01*
X193185354Y-86346172D01*
X193185352Y-86346174D01*
X193185351Y-86346174D01*
X193046174Y-86485351D01*
X193046174Y-86485352D01*
X193046172Y-86485354D01*
X193021378Y-86519480D01*
X192930476Y-86644594D01*
X192841117Y-86819970D01*
X192780290Y-87007173D01*
X192749500Y-87201577D01*
X192749500Y-87398422D01*
X192780290Y-87592826D01*
X192841117Y-87780029D01*
X192914284Y-87923626D01*
X192930476Y-87955405D01*
X193046172Y-88114646D01*
X193185354Y-88253828D01*
X193344595Y-88369524D01*
X193463287Y-88430000D01*
X193521213Y-88459515D01*
X193572009Y-88507489D01*
X193588804Y-88575310D01*
X193566267Y-88641445D01*
X193521213Y-88680485D01*
X193344594Y-88770476D01*
X193253741Y-88836485D01*
X193185354Y-88886172D01*
X193185352Y-88886174D01*
X193185351Y-88886174D01*
X193046174Y-89025351D01*
X193046174Y-89025352D01*
X193046172Y-89025354D01*
X192996485Y-89093741D01*
X192930476Y-89184594D01*
X192841117Y-89359970D01*
X192780290Y-89547173D01*
X192749500Y-89741577D01*
X192749500Y-89938422D01*
X192780290Y-90132826D01*
X192841117Y-90320029D01*
X192897805Y-90431284D01*
X192930476Y-90495405D01*
X193046172Y-90654646D01*
X193185354Y-90793828D01*
X193338621Y-90905184D01*
X193381285Y-90960512D01*
X193387264Y-91030125D01*
X193354658Y-91091920D01*
X193293819Y-91126278D01*
X193265735Y-91129500D01*
X193118482Y-91129500D01*
X193037519Y-91142323D01*
X193024696Y-91144354D01*
X192911658Y-91201950D01*
X192911657Y-91201951D01*
X192911652Y-91201954D01*
X192821954Y-91291652D01*
X192821951Y-91291657D01*
X192764352Y-91404698D01*
X192749500Y-91498475D01*
X192749500Y-93261517D01*
X192760292Y-93329657D01*
X192764354Y-93355304D01*
X192821950Y-93468342D01*
X192821952Y-93468344D01*
X192821954Y-93468347D01*
X192911652Y-93558045D01*
X192911654Y-93558046D01*
X192911658Y-93558050D01*
X193024694Y-93615645D01*
X193024698Y-93615647D01*
X193118475Y-93630499D01*
X193118481Y-93630500D01*
X194881518Y-93630499D01*
X194975304Y-93615646D01*
X195088342Y-93558050D01*
X195178050Y-93468342D01*
X195235646Y-93355304D01*
X195235646Y-93355302D01*
X195235647Y-93355301D01*
X195250499Y-93261524D01*
X195250500Y-93261519D01*
X195250499Y-93114263D01*
X195270183Y-93047227D01*
X195322987Y-93001472D01*
X195392145Y-92991528D01*
X195455701Y-93020553D01*
X195474817Y-93041380D01*
X195586172Y-93194646D01*
X195725354Y-93333828D01*
X195884595Y-93449524D01*
X195967455Y-93491743D01*
X196059970Y-93538882D01*
X196059972Y-93538882D01*
X196059975Y-93538884D01*
X196118962Y-93558050D01*
X196247173Y-93599709D01*
X196441578Y-93630500D01*
X196441583Y-93630500D01*
X196638422Y-93630500D01*
X196832826Y-93599709D01*
X197020025Y-93538884D01*
X197195405Y-93449524D01*
X197354646Y-93333828D01*
X197493828Y-93194646D01*
X197609524Y-93035405D01*
X197698884Y-92860025D01*
X197759709Y-92672826D01*
X197790500Y-92478422D01*
X197790500Y-92281577D01*
X197759709Y-92087173D01*
X197731487Y-92000317D01*
X197698884Y-91899975D01*
X197698882Y-91899972D01*
X197698882Y-91899970D01*
X197651743Y-91807455D01*
X197609524Y-91724595D01*
X197493828Y-91565354D01*
X197354646Y-91426172D01*
X197232387Y-91337345D01*
X197195403Y-91310474D01*
X197018787Y-91220485D01*
X196967990Y-91172511D01*
X196951195Y-91104690D01*
X196973732Y-91038555D01*
X197018787Y-90999515D01*
X197195403Y-90909525D01*
X197195402Y-90909525D01*
X197195405Y-90909524D01*
X197354646Y-90793828D01*
X197493828Y-90654646D01*
X197609524Y-90495405D01*
X197698884Y-90320025D01*
X197759709Y-90132826D01*
X197790500Y-89938422D01*
X197790500Y-89741577D01*
X197759709Y-89547173D01*
X197698882Y-89359970D01*
X197609523Y-89184594D01*
X197493828Y-89025354D01*
X197354646Y-88886172D01*
X197275025Y-88828324D01*
X197195403Y-88770474D01*
X197018787Y-88680485D01*
X196967990Y-88632511D01*
X196951195Y-88564690D01*
X196973732Y-88498555D01*
X197018787Y-88459515D01*
X197195403Y-88369525D01*
X197195402Y-88369525D01*
X197195405Y-88369524D01*
X197354646Y-88253828D01*
X197493828Y-88114646D01*
X197609524Y-87955405D01*
X197698884Y-87780025D01*
X197759709Y-87592826D01*
X197777563Y-87480099D01*
X197790500Y-87398422D01*
X197790500Y-87201577D01*
X197759709Y-87007173D01*
X197698882Y-86819970D01*
X197609523Y-86644594D01*
X197493828Y-86485354D01*
X197354646Y-86346172D01*
X197275025Y-86288324D01*
X197195403Y-86230474D01*
X197018787Y-86140485D01*
X196967990Y-86092511D01*
X196951195Y-86024690D01*
X196973732Y-85958555D01*
X197018787Y-85919515D01*
X197195403Y-85829525D01*
X197195402Y-85829525D01*
X197195405Y-85829524D01*
X197354646Y-85713828D01*
X197493828Y-85574646D01*
X197609524Y-85415405D01*
X197698884Y-85240025D01*
X197759709Y-85052826D01*
X197790500Y-84858422D01*
X197790500Y-84661577D01*
X197759709Y-84467173D01*
X197698882Y-84279970D01*
X197647105Y-84178352D01*
X197609524Y-84104595D01*
X197493828Y-83945354D01*
X197354646Y-83806172D01*
X197243410Y-83725354D01*
X197195403Y-83690474D01*
X197018787Y-83600485D01*
X196967990Y-83552511D01*
X196951195Y-83484690D01*
X196973732Y-83418555D01*
X197018787Y-83379515D01*
X197195403Y-83289525D01*
X197195402Y-83289525D01*
X197195405Y-83289524D01*
X197354646Y-83173828D01*
X197493828Y-83034646D01*
X197609524Y-82875405D01*
X197698884Y-82700025D01*
X197759709Y-82512826D01*
X197782534Y-82368716D01*
X197790500Y-82318422D01*
X197790500Y-82121577D01*
X197759709Y-81927173D01*
X197698882Y-81739970D01*
X197651743Y-81647455D01*
X197609524Y-81564595D01*
X197493828Y-81405354D01*
X197354646Y-81266172D01*
X197275025Y-81208324D01*
X197195403Y-81150474D01*
X197018787Y-81060485D01*
X196967990Y-81012511D01*
X196951195Y-80944690D01*
X196973732Y-80878555D01*
X197018787Y-80839515D01*
X197195403Y-80749525D01*
X197195402Y-80749525D01*
X197195405Y-80749524D01*
X197354646Y-80633828D01*
X197493828Y-80494646D01*
X197609524Y-80335405D01*
X197698884Y-80160025D01*
X197759709Y-79972826D01*
X197764713Y-79941231D01*
X197790500Y-79778422D01*
X197790500Y-79581577D01*
X197759709Y-79387173D01*
X197713925Y-79246267D01*
X197698884Y-79199975D01*
X197698882Y-79199972D01*
X197698882Y-79199970D01*
X197651743Y-79107455D01*
X197609524Y-79024595D01*
X197493828Y-78865354D01*
X197354646Y-78726172D01*
X197275025Y-78668324D01*
X197195403Y-78610474D01*
X197018787Y-78520485D01*
X196967990Y-78472511D01*
X196951195Y-78404690D01*
X196973732Y-78338555D01*
X197018787Y-78299515D01*
X197195403Y-78209525D01*
X197195402Y-78209525D01*
X197195405Y-78209524D01*
X197354646Y-78093828D01*
X197493828Y-77954646D01*
X197609524Y-77795405D01*
X197698884Y-77620025D01*
X197759709Y-77432826D01*
X197790500Y-77238422D01*
X197790500Y-77041577D01*
X197759709Y-76847173D01*
X197698882Y-76659970D01*
X197609523Y-76484594D01*
X197493828Y-76325354D01*
X197354646Y-76186172D01*
X197236731Y-76100501D01*
X197195403Y-76070474D01*
X197018787Y-75980485D01*
X196967990Y-75932511D01*
X196951195Y-75864690D01*
X196973732Y-75798555D01*
X197018787Y-75759515D01*
X197195403Y-75669525D01*
X197195402Y-75669525D01*
X197195405Y-75669524D01*
X197354646Y-75553828D01*
X197493828Y-75414646D01*
X197609524Y-75255405D01*
X197698884Y-75080025D01*
X197759709Y-74892826D01*
X197764404Y-74863181D01*
X197790500Y-74698422D01*
X197790500Y-74501577D01*
X197759709Y-74307173D01*
X197698882Y-74119970D01*
X197609523Y-73944594D01*
X197493828Y-73785354D01*
X197354646Y-73646172D01*
X197275025Y-73588324D01*
X197195403Y-73530474D01*
X197018787Y-73440485D01*
X196967990Y-73392511D01*
X196951195Y-73324690D01*
X196973732Y-73258555D01*
X197018787Y-73219515D01*
X197195403Y-73129525D01*
X197195402Y-73129525D01*
X197195405Y-73129524D01*
X197354646Y-73013828D01*
X197493828Y-72874646D01*
X197609524Y-72715405D01*
X197698884Y-72540025D01*
X197759709Y-72352826D01*
X197781233Y-72216928D01*
X197790500Y-72158422D01*
X197790500Y-71961577D01*
X197759709Y-71767173D01*
X197698882Y-71579970D01*
X197651743Y-71487455D01*
X197609524Y-71404595D01*
X197493828Y-71245354D01*
X197354646Y-71106172D01*
X197275025Y-71048324D01*
X197195403Y-70990474D01*
X197018787Y-70900485D01*
X196967990Y-70852511D01*
X196951195Y-70784690D01*
X196973732Y-70718555D01*
X197018787Y-70679515D01*
X197195403Y-70589525D01*
X197195402Y-70589525D01*
X197195405Y-70589524D01*
X197354646Y-70473828D01*
X197493828Y-70334646D01*
X197609524Y-70175405D01*
X197698884Y-70000025D01*
X197759709Y-69812826D01*
X197772545Y-69731783D01*
X197790500Y-69618422D01*
X197790500Y-69421577D01*
X197759709Y-69227173D01*
X197698882Y-69039970D01*
X197651743Y-68947455D01*
X197609524Y-68864595D01*
X197493828Y-68705354D01*
X197354646Y-68566172D01*
X197227289Y-68473641D01*
X197195403Y-68450474D01*
X197018787Y-68360485D01*
X196967990Y-68312511D01*
X196951195Y-68244690D01*
X196973732Y-68178555D01*
X197018787Y-68139515D01*
X197195403Y-68049525D01*
X197195402Y-68049525D01*
X197195405Y-68049524D01*
X197354646Y-67933828D01*
X197493828Y-67794646D01*
X197609524Y-67635405D01*
X197698884Y-67460025D01*
X197759709Y-67272826D01*
X197790500Y-67078422D01*
X197790500Y-66881577D01*
X197759709Y-66687173D01*
X197698882Y-66499970D01*
X197632005Y-66368717D01*
X197609524Y-66324595D01*
X197493828Y-66165354D01*
X197354646Y-66026172D01*
X197275025Y-65968324D01*
X197195403Y-65910474D01*
X197018787Y-65820485D01*
X196967990Y-65772511D01*
X196951195Y-65704690D01*
X196973732Y-65638555D01*
X197018787Y-65599515D01*
X197195403Y-65509525D01*
X197195402Y-65509525D01*
X197195405Y-65509524D01*
X197354646Y-65393828D01*
X197493828Y-65254646D01*
X197609524Y-65095405D01*
X197698884Y-64920025D01*
X197759709Y-64732826D01*
X197759874Y-64731785D01*
X197790500Y-64538422D01*
X197790500Y-64341577D01*
X197759709Y-64147173D01*
X197698882Y-63959970D01*
X197651743Y-63867455D01*
X197609524Y-63784595D01*
X197493828Y-63625354D01*
X197354646Y-63486172D01*
X197232387Y-63397345D01*
X197195403Y-63370474D01*
X197018787Y-63280485D01*
X196967990Y-63232511D01*
X196951195Y-63164690D01*
X196973732Y-63098555D01*
X197018787Y-63059515D01*
X197195403Y-62969525D01*
X197195402Y-62969525D01*
X197195405Y-62969524D01*
X197354646Y-62853828D01*
X197493828Y-62714646D01*
X197609524Y-62555405D01*
X197698884Y-62380025D01*
X197759709Y-62192826D01*
X197779813Y-62065893D01*
X197790500Y-61998422D01*
X197790500Y-61801577D01*
X197759709Y-61607173D01*
X197721248Y-61488804D01*
X197698884Y-61419975D01*
X197698882Y-61419972D01*
X197698882Y-61419970D01*
X197646292Y-61316757D01*
X197609524Y-61244595D01*
X197493828Y-61085354D01*
X197354646Y-60946172D01*
X197213506Y-60843627D01*
X197195403Y-60830474D01*
X197018787Y-60740485D01*
X196967990Y-60692511D01*
X196951195Y-60624690D01*
X196973732Y-60558555D01*
X197018787Y-60519515D01*
X197195403Y-60429525D01*
X197195402Y-60429525D01*
X197195405Y-60429524D01*
X197354646Y-60313828D01*
X197493828Y-60174646D01*
X197609524Y-60015405D01*
X197698884Y-59840025D01*
X197759709Y-59652826D01*
X197761756Y-59639901D01*
X197790500Y-59458422D01*
X197790500Y-59261577D01*
X197759709Y-59067173D01*
X197715293Y-58930476D01*
X197698884Y-58879975D01*
X197698882Y-58879972D01*
X197698882Y-58879970D01*
X197643759Y-58771785D01*
X197609524Y-58704595D01*
X197493828Y-58545354D01*
X197354646Y-58406172D01*
X197275025Y-58348324D01*
X197195403Y-58290474D01*
X197018787Y-58200485D01*
X196967990Y-58152511D01*
X196951195Y-58084690D01*
X196973732Y-58018555D01*
X197018787Y-57979515D01*
X197195403Y-57889525D01*
X197195402Y-57889525D01*
X197195405Y-57889524D01*
X197354646Y-57773828D01*
X197493828Y-57634646D01*
X197609524Y-57475405D01*
X197698884Y-57300025D01*
X197759709Y-57112826D01*
X197790500Y-56918422D01*
X197790500Y-56721577D01*
X197759709Y-56527173D01*
X197713925Y-56386267D01*
X197698884Y-56339975D01*
X197698882Y-56339972D01*
X197698882Y-56339970D01*
X197609523Y-56164594D01*
X197607389Y-56161657D01*
X197493828Y-56005354D01*
X197354646Y-55866172D01*
X197249089Y-55789480D01*
X197195403Y-55750474D01*
X197018787Y-55660485D01*
X196967990Y-55612511D01*
X196951195Y-55544690D01*
X196973732Y-55478555D01*
X197018787Y-55439515D01*
X197195403Y-55349525D01*
X197195402Y-55349525D01*
X197195405Y-55349524D01*
X197354646Y-55233828D01*
X197493828Y-55094646D01*
X197609524Y-54935405D01*
X197698884Y-54760025D01*
X197759709Y-54572826D01*
X197766062Y-54532716D01*
X197790500Y-54378422D01*
X197790500Y-54181577D01*
X197759709Y-53987173D01*
X197698882Y-53799970D01*
X197651743Y-53707455D01*
X197609524Y-53624595D01*
X197493828Y-53465354D01*
X197354646Y-53326172D01*
X197275025Y-53268324D01*
X197195403Y-53210474D01*
X197018787Y-53120485D01*
X196967990Y-53072511D01*
X196951195Y-53004690D01*
X196973732Y-52938555D01*
X197018787Y-52899515D01*
X197195403Y-52809525D01*
X197195402Y-52809525D01*
X197195405Y-52809524D01*
X197354646Y-52693828D01*
X197493828Y-52554646D01*
X197609524Y-52395405D01*
X197698884Y-52220025D01*
X197759709Y-52032826D01*
X197772678Y-51950943D01*
X197790500Y-51838422D01*
X197790500Y-51641577D01*
X197759709Y-51447173D01*
X197705084Y-51279057D01*
X197698884Y-51259975D01*
X197698882Y-51259972D01*
X197698882Y-51259970D01*
X197632014Y-51128735D01*
X197609524Y-51084595D01*
X197493828Y-50925354D01*
X197354646Y-50786172D01*
X197275025Y-50728324D01*
X197195403Y-50670474D01*
X197018787Y-50580485D01*
X196967990Y-50532511D01*
X196951195Y-50464690D01*
X196973732Y-50398555D01*
X197018787Y-50359515D01*
X197195403Y-50269525D01*
X197195402Y-50269525D01*
X197195405Y-50269524D01*
X197354646Y-50153828D01*
X197493828Y-50014646D01*
X197609524Y-49855405D01*
X197698884Y-49680025D01*
X197759709Y-49492826D01*
X197775521Y-49392993D01*
X197790500Y-49298422D01*
X197790500Y-49101577D01*
X197759709Y-48907173D01*
X197733078Y-48825214D01*
X197698884Y-48719975D01*
X197698882Y-48719971D01*
X197697378Y-48715342D01*
X197698393Y-48715012D01*
X197691475Y-48650645D01*
X197722751Y-48588167D01*
X197782841Y-48552516D01*
X197852666Y-48555012D01*
X197892887Y-48577406D01*
X198119520Y-48766267D01*
X198521898Y-49101582D01*
X198614883Y-49179069D01*
X198653782Y-49237108D01*
X198659500Y-49274328D01*
X198659500Y-59307273D01*
X198659500Y-59412727D01*
X198667944Y-59444240D01*
X198686793Y-59514589D01*
X198692629Y-59524697D01*
X198739520Y-59605913D01*
X198739522Y-59605915D01*
X201163181Y-62029574D01*
X201196666Y-62090897D01*
X201199500Y-62117255D01*
X201199500Y-95972744D01*
X201179815Y-96039783D01*
X201163181Y-96060425D01*
X198791147Y-98432458D01*
X198787748Y-98435856D01*
X198759467Y-98460073D01*
X198750606Y-98472998D01*
X198742495Y-98481110D01*
X198742495Y-98481111D01*
X198739521Y-98484084D01*
X198739518Y-98484089D01*
X198723289Y-98512194D01*
X198723290Y-98512195D01*
X198720892Y-98516346D01*
X198699845Y-98547055D01*
X198694631Y-98561834D01*
X198691029Y-98568073D01*
X198688902Y-98571758D01*
X198686796Y-98575406D01*
X198686789Y-98575422D01*
X198678393Y-98606752D01*
X198678394Y-98606753D01*
X198677152Y-98611390D01*
X198664768Y-98646503D01*
X198663557Y-98662129D01*
X198659500Y-98677273D01*
X198659500Y-98677275D01*
X198659500Y-98709718D01*
X198659130Y-98719293D01*
X198568796Y-99885577D01*
X198543995Y-99950895D01*
X198487815Y-99992435D01*
X198445168Y-100000000D01*
X100524500Y-100000000D01*
X100457461Y-99980315D01*
X100411706Y-99927511D01*
X100400500Y-99876000D01*
X100400500Y-97334038D01*
X112369500Y-97334038D01*
X112369500Y-97585961D01*
X112408910Y-97834785D01*
X112486760Y-98074383D01*
X112601132Y-98298848D01*
X112749201Y-98502649D01*
X112749205Y-98502654D01*
X112927345Y-98680794D01*
X112927350Y-98680798D01*
X113059427Y-98776757D01*
X113131155Y-98828870D01*
X113274184Y-98901747D01*
X113355616Y-98943239D01*
X113355618Y-98943239D01*
X113355621Y-98943241D01*
X113595215Y-99021090D01*
X113844038Y-99060500D01*
X113844039Y-99060500D01*
X114095961Y-99060500D01*
X114095962Y-99060500D01*
X114344785Y-99021090D01*
X114584379Y-98943241D01*
X114808845Y-98828870D01*
X115012656Y-98680793D01*
X115190793Y-98502656D01*
X115338870Y-98298845D01*
X115453241Y-98074379D01*
X115531090Y-97834785D01*
X115570500Y-97585962D01*
X115570500Y-97334038D01*
X115531090Y-97085215D01*
X115453241Y-96845621D01*
X115453239Y-96845618D01*
X115453239Y-96845616D01*
X115343328Y-96629904D01*
X115338868Y-96621151D01*
X115307862Y-96578475D01*
X126689500Y-96578475D01*
X126689500Y-98341517D01*
X126700292Y-98409657D01*
X126704354Y-98435304D01*
X126761950Y-98548342D01*
X126761952Y-98548344D01*
X126761954Y-98548347D01*
X126851652Y-98638045D01*
X126851654Y-98638046D01*
X126851658Y-98638050D01*
X126964694Y-98695645D01*
X126964698Y-98695647D01*
X127058475Y-98710499D01*
X127058481Y-98710500D01*
X128821518Y-98710499D01*
X128915304Y-98695646D01*
X129028342Y-98638050D01*
X129118050Y-98548342D01*
X129175646Y-98435304D01*
X129175646Y-98435302D01*
X129175647Y-98435301D01*
X129190499Y-98341524D01*
X129190500Y-98341519D01*
X129190499Y-98194263D01*
X129210183Y-98127227D01*
X129262987Y-98081472D01*
X129332145Y-98071528D01*
X129395701Y-98100553D01*
X129414817Y-98121380D01*
X129526172Y-98274646D01*
X129665354Y-98413828D01*
X129824595Y-98529524D01*
X129907455Y-98571743D01*
X129999970Y-98618882D01*
X129999972Y-98618882D01*
X129999975Y-98618884D01*
X130058962Y-98638050D01*
X130187173Y-98679709D01*
X130381578Y-98710500D01*
X130381583Y-98710500D01*
X130578422Y-98710500D01*
X130772826Y-98679709D01*
X130792849Y-98673203D01*
X130960025Y-98618884D01*
X131135405Y-98529524D01*
X131294646Y-98413828D01*
X131433828Y-98274646D01*
X131549524Y-98115405D01*
X131638884Y-97940025D01*
X131639515Y-97938787D01*
X131687489Y-97887990D01*
X131755310Y-97871195D01*
X131821445Y-97893732D01*
X131860485Y-97938787D01*
X131950474Y-98115403D01*
X131954817Y-98121380D01*
X132066172Y-98274646D01*
X132205354Y-98413828D01*
X132364595Y-98529524D01*
X132447455Y-98571743D01*
X132539970Y-98618882D01*
X132539972Y-98618882D01*
X132539975Y-98618884D01*
X132598962Y-98638050D01*
X132727173Y-98679709D01*
X132921578Y-98710500D01*
X132921583Y-98710500D01*
X133118422Y-98710500D01*
X133312826Y-98679709D01*
X133332849Y-98673203D01*
X133500025Y-98618884D01*
X133675405Y-98529524D01*
X133834646Y-98413828D01*
X133973828Y-98274646D01*
X134089524Y-98115405D01*
X134178884Y-97940025D01*
X134179515Y-97938787D01*
X134227489Y-97887990D01*
X134295310Y-97871195D01*
X134361445Y-97893732D01*
X134400485Y-97938787D01*
X134490474Y-98115403D01*
X134494817Y-98121380D01*
X134606172Y-98274646D01*
X134745354Y-98413828D01*
X134904595Y-98529524D01*
X134987455Y-98571743D01*
X135079970Y-98618882D01*
X135079972Y-98618882D01*
X135079975Y-98618884D01*
X135138962Y-98638050D01*
X135267173Y-98679709D01*
X135461578Y-98710500D01*
X135461583Y-98710500D01*
X135658422Y-98710500D01*
X135852826Y-98679709D01*
X135872849Y-98673203D01*
X136040025Y-98618884D01*
X136215405Y-98529524D01*
X136374646Y-98413828D01*
X136513828Y-98274646D01*
X136629524Y-98115405D01*
X136718884Y-97940025D01*
X136719515Y-97938787D01*
X136767489Y-97887990D01*
X136835310Y-97871195D01*
X136901445Y-97893732D01*
X136940485Y-97938787D01*
X137030474Y-98115403D01*
X137034817Y-98121380D01*
X137146172Y-98274646D01*
X137285354Y-98413828D01*
X137444595Y-98529524D01*
X137527455Y-98571743D01*
X137619970Y-98618882D01*
X137619972Y-98618882D01*
X137619975Y-98618884D01*
X137678962Y-98638050D01*
X137807173Y-98679709D01*
X138001578Y-98710500D01*
X138001583Y-98710500D01*
X138198422Y-98710500D01*
X138392826Y-98679709D01*
X138412849Y-98673203D01*
X138580025Y-98618884D01*
X138755405Y-98529524D01*
X138914646Y-98413828D01*
X139053828Y-98274646D01*
X139169524Y-98115405D01*
X139203679Y-98048370D01*
X139251652Y-97997575D01*
X139319473Y-97980779D01*
X139385608Y-98003316D01*
X139424648Y-98048370D01*
X139485375Y-98167552D01*
X139485376Y-98167553D01*
X139610272Y-98339459D01*
X139610276Y-98339464D01*
X139760535Y-98489723D01*
X139760540Y-98489727D01*
X139932442Y-98614620D01*
X140121782Y-98711095D01*
X140323872Y-98776757D01*
X140490000Y-98803070D01*
X140490000Y-97937445D01*
X140574174Y-97960000D01*
X140705826Y-97960000D01*
X140790000Y-97937445D01*
X140790000Y-98803069D01*
X140956127Y-98776757D01*
X141158217Y-98711095D01*
X141347557Y-98614620D01*
X141519459Y-98489727D01*
X141519464Y-98489723D01*
X141669723Y-98339464D01*
X141669727Y-98339459D01*
X141794620Y-98167558D01*
X141799514Y-98157954D01*
X141847488Y-98107157D01*
X141915308Y-98090361D01*
X141981444Y-98112897D01*
X142020486Y-98157954D01*
X142025379Y-98167558D01*
X142150272Y-98339459D01*
X142150276Y-98339464D01*
X142300535Y-98489723D01*
X142300540Y-98489727D01*
X142472442Y-98614620D01*
X142661782Y-98711095D01*
X142863872Y-98776757D01*
X143030000Y-98803070D01*
X143030000Y-97937445D01*
X143114174Y-97960000D01*
X143245826Y-97960000D01*
X143330000Y-97937445D01*
X143330000Y-98803069D01*
X143496127Y-98776757D01*
X143698217Y-98711095D01*
X143887557Y-98614620D01*
X144059459Y-98489727D01*
X144059464Y-98489723D01*
X144209723Y-98339464D01*
X144209727Y-98339459D01*
X144334620Y-98167557D01*
X144395350Y-98048370D01*
X144443324Y-97997574D01*
X144511145Y-97980779D01*
X144577280Y-98003316D01*
X144616320Y-98048370D01*
X144642909Y-98100553D01*
X144650476Y-98115405D01*
X144766172Y-98274646D01*
X144905354Y-98413828D01*
X145064595Y-98529524D01*
X145147455Y-98571743D01*
X145239970Y-98618882D01*
X145239972Y-98618882D01*
X145239975Y-98618884D01*
X145298962Y-98638050D01*
X145427173Y-98679709D01*
X145621578Y-98710500D01*
X145621583Y-98710500D01*
X145818422Y-98710500D01*
X146012826Y-98679709D01*
X146032849Y-98673203D01*
X146200025Y-98618884D01*
X146375405Y-98529524D01*
X146534646Y-98413828D01*
X146673828Y-98274646D01*
X146789524Y-98115405D01*
X146878884Y-97940025D01*
X146939709Y-97752826D01*
X146955521Y-97652993D01*
X146970500Y-97558422D01*
X146970500Y-97361577D01*
X146939709Y-97167173D01*
X146878882Y-96979970D01*
X146811265Y-96847264D01*
X146789524Y-96804595D01*
X146673828Y-96645354D01*
X146534646Y-96506172D01*
X146375405Y-96390476D01*
X146200029Y-96301117D01*
X146012826Y-96240290D01*
X145818422Y-96209500D01*
X145818417Y-96209500D01*
X145621583Y-96209500D01*
X145621578Y-96209500D01*
X145427173Y-96240290D01*
X145239970Y-96301117D01*
X145064594Y-96390476D01*
X144973741Y-96456485D01*
X144905354Y-96506172D01*
X144905352Y-96506174D01*
X144905351Y-96506174D01*
X144766174Y-96645351D01*
X144766174Y-96645352D01*
X144766172Y-96645354D01*
X144708324Y-96724974D01*
X144650474Y-96804597D01*
X144616319Y-96871630D01*
X144568345Y-96922425D01*
X144500524Y-96939220D01*
X144434389Y-96916682D01*
X144395350Y-96871629D01*
X144334620Y-96752442D01*
X144209727Y-96580540D01*
X144209723Y-96580535D01*
X144059464Y-96430276D01*
X144059459Y-96430272D01*
X143887557Y-96305379D01*
X143698215Y-96208903D01*
X143496127Y-96143242D01*
X143496124Y-96143241D01*
X143330000Y-96116929D01*
X143330000Y-96982554D01*
X143245826Y-96960000D01*
X143114174Y-96960000D01*
X143030000Y-96982554D01*
X143030000Y-96116929D01*
X143029999Y-96116929D01*
X142863875Y-96143241D01*
X142863872Y-96143242D01*
X142661784Y-96208903D01*
X142472442Y-96305379D01*
X142300540Y-96430272D01*
X142300535Y-96430276D01*
X142150276Y-96580535D01*
X142150272Y-96580540D01*
X142025377Y-96752444D01*
X142020484Y-96762048D01*
X141972509Y-96812844D01*
X141904688Y-96829638D01*
X141838553Y-96807100D01*
X141799516Y-96762048D01*
X141794622Y-96752444D01*
X141669727Y-96580540D01*
X141669723Y-96580535D01*
X141519464Y-96430276D01*
X141519459Y-96430272D01*
X141347557Y-96305379D01*
X141158215Y-96208903D01*
X140956127Y-96143242D01*
X140956124Y-96143241D01*
X140790000Y-96116929D01*
X140790000Y-96982554D01*
X140705826Y-96960000D01*
X140574174Y-96960000D01*
X140490000Y-96982554D01*
X140490000Y-96116929D01*
X140489999Y-96116929D01*
X140323875Y-96143241D01*
X140323872Y-96143242D01*
X140121784Y-96208903D01*
X139932442Y-96305379D01*
X139760540Y-96430272D01*
X139760535Y-96430276D01*
X139610276Y-96580535D01*
X139610272Y-96580540D01*
X139485377Y-96752444D01*
X139424648Y-96871630D01*
X139376674Y-96922425D01*
X139308852Y-96939220D01*
X139242718Y-96916682D01*
X139203679Y-96871628D01*
X139169525Y-96804596D01*
X139152144Y-96780674D01*
X139053828Y-96645354D01*
X138914646Y-96506172D01*
X138755405Y-96390476D01*
X138580029Y-96301117D01*
X138392826Y-96240290D01*
X138198422Y-96209500D01*
X138198417Y-96209500D01*
X138001583Y-96209500D01*
X138001577Y-96209500D01*
X137802544Y-96241023D01*
X137733251Y-96232068D01*
X137695466Y-96206231D01*
X133136819Y-91647584D01*
X133103334Y-91586261D01*
X133100500Y-91559903D01*
X133100500Y-87300097D01*
X133120185Y-87233058D01*
X133136819Y-87212416D01*
X137712416Y-82636819D01*
X137773739Y-82603334D01*
X137800097Y-82600500D01*
X140625501Y-82600500D01*
X140692540Y-82620185D01*
X140738295Y-82672989D01*
X140749501Y-82724500D01*
X140749501Y-82881518D01*
X140764354Y-82975304D01*
X140821950Y-83088342D01*
X140821952Y-83088344D01*
X140821954Y-83088347D01*
X140911652Y-83178045D01*
X140911654Y-83178046D01*
X140911658Y-83178050D01*
X141024694Y-83235645D01*
X141024698Y-83235647D01*
X141118475Y-83250499D01*
X141118481Y-83250500D01*
X141265735Y-83250499D01*
X141332772Y-83270183D01*
X141378527Y-83322987D01*
X141388471Y-83392145D01*
X141359446Y-83455701D01*
X141338619Y-83474816D01*
X141185360Y-83586167D01*
X141185351Y-83586174D01*
X141046174Y-83725351D01*
X141046174Y-83725352D01*
X141046172Y-83725354D01*
X140996485Y-83793741D01*
X140930476Y-83884594D01*
X140841117Y-84059970D01*
X140780290Y-84247173D01*
X140749500Y-84441577D01*
X140749500Y-84638422D01*
X140780290Y-84832826D01*
X140841117Y-85020029D01*
X140918140Y-85171195D01*
X140930476Y-85195405D01*
X141046172Y-85354646D01*
X141185354Y-85493828D01*
X141296590Y-85574646D01*
X141344596Y-85609525D01*
X141411628Y-85643679D01*
X141462425Y-85691653D01*
X141479220Y-85759474D01*
X141456683Y-85825609D01*
X141411630Y-85864648D01*
X141292444Y-85925377D01*
X141156372Y-86024239D01*
X141156371Y-86024240D01*
X141768461Y-86636329D01*
X141692993Y-86679901D01*
X141599901Y-86772993D01*
X141556329Y-86848460D01*
X140944240Y-86236371D01*
X140944239Y-86236372D01*
X140845379Y-86372442D01*
X140748904Y-86561782D01*
X140683242Y-86763869D01*
X140683242Y-86763872D01*
X140650000Y-86973753D01*
X140650000Y-87186246D01*
X140683242Y-87396127D01*
X140683242Y-87396130D01*
X140748904Y-87598217D01*
X140845377Y-87787554D01*
X140944240Y-87923626D01*
X140944241Y-87923627D01*
X141556329Y-87311538D01*
X141599901Y-87387007D01*
X141692993Y-87480099D01*
X141768460Y-87523670D01*
X141156371Y-88135758D01*
X141292445Y-88234622D01*
X141481782Y-88331095D01*
X141683870Y-88396757D01*
X141893754Y-88430000D01*
X142106246Y-88430000D01*
X142316127Y-88396757D01*
X142316130Y-88396757D01*
X142518217Y-88331095D01*
X142707546Y-88234626D01*
X142707552Y-88234622D01*
X142843626Y-88135758D01*
X142843627Y-88135758D01*
X142231538Y-87523670D01*
X142307007Y-87480099D01*
X142400099Y-87387007D01*
X142443670Y-87311539D01*
X143055758Y-87923627D01*
X143055758Y-87923626D01*
X143154622Y-87787552D01*
X143154626Y-87787546D01*
X143251095Y-87598217D01*
X143316757Y-87396130D01*
X143316757Y-87396127D01*
X143350000Y-87186246D01*
X143350000Y-86973753D01*
X143316757Y-86763872D01*
X143316757Y-86763869D01*
X143251095Y-86561782D01*
X143154622Y-86372445D01*
X143055758Y-86236372D01*
X143055758Y-86236371D01*
X142443670Y-86848460D01*
X142400099Y-86772993D01*
X142307007Y-86679901D01*
X142231539Y-86636329D01*
X142843627Y-86024241D01*
X142843626Y-86024240D01*
X142707549Y-85925373D01*
X142588370Y-85864648D01*
X142537574Y-85816674D01*
X142520779Y-85748853D01*
X142543317Y-85682718D01*
X142588370Y-85643679D01*
X142655405Y-85609524D01*
X142814646Y-85493828D01*
X142953828Y-85354646D01*
X143069524Y-85195405D01*
X143069524Y-85195403D01*
X143072278Y-85191614D01*
X143127608Y-85148949D01*
X143172596Y-85140500D01*
X144239903Y-85140500D01*
X144306942Y-85160185D01*
X144327584Y-85176819D01*
X150163181Y-91012416D01*
X150196666Y-91073739D01*
X150199500Y-91100097D01*
X150199500Y-96085500D01*
X150179815Y-96152539D01*
X150127011Y-96198294D01*
X150075501Y-96209500D01*
X149918482Y-96209500D01*
X149837519Y-96222323D01*
X149824696Y-96224354D01*
X149711658Y-96281950D01*
X149711657Y-96281951D01*
X149711652Y-96281954D01*
X149621954Y-96371652D01*
X149621951Y-96371657D01*
X149564352Y-96484698D01*
X149549500Y-96578475D01*
X149549500Y-98341517D01*
X149560292Y-98409657D01*
X149564354Y-98435304D01*
X149621950Y-98548342D01*
X149621952Y-98548344D01*
X149621954Y-98548347D01*
X149711652Y-98638045D01*
X149711654Y-98638046D01*
X149711658Y-98638050D01*
X149824694Y-98695645D01*
X149824698Y-98695647D01*
X149918475Y-98710499D01*
X149918481Y-98710500D01*
X151681518Y-98710499D01*
X151775304Y-98695646D01*
X151888342Y-98638050D01*
X151978050Y-98548342D01*
X152035646Y-98435304D01*
X152035646Y-98435302D01*
X152035647Y-98435301D01*
X152050499Y-98341524D01*
X152050500Y-98341519D01*
X152050499Y-98194263D01*
X152070183Y-98127227D01*
X152122987Y-98081472D01*
X152192145Y-98071528D01*
X152255701Y-98100553D01*
X152274817Y-98121380D01*
X152386172Y-98274646D01*
X152525354Y-98413828D01*
X152684595Y-98529524D01*
X152767455Y-98571743D01*
X152859970Y-98618882D01*
X152859972Y-98618882D01*
X152859975Y-98618884D01*
X152918962Y-98638050D01*
X153047173Y-98679709D01*
X153241578Y-98710500D01*
X153241583Y-98710500D01*
X153438422Y-98710500D01*
X153632826Y-98679709D01*
X153652849Y-98673203D01*
X153820025Y-98618884D01*
X153995405Y-98529524D01*
X154154646Y-98413828D01*
X154293828Y-98274646D01*
X154409524Y-98115405D01*
X154498884Y-97940025D01*
X154499515Y-97938787D01*
X154547489Y-97887990D01*
X154615310Y-97871195D01*
X154681445Y-97893732D01*
X154720485Y-97938787D01*
X154810474Y-98115403D01*
X154814817Y-98121380D01*
X154926172Y-98274646D01*
X155065354Y-98413828D01*
X155224595Y-98529524D01*
X155307455Y-98571743D01*
X155399970Y-98618882D01*
X155399972Y-98618882D01*
X155399975Y-98618884D01*
X155458962Y-98638050D01*
X155587173Y-98679709D01*
X155781578Y-98710500D01*
X155781583Y-98710500D01*
X155978422Y-98710500D01*
X156172826Y-98679709D01*
X156192849Y-98673203D01*
X156360025Y-98618884D01*
X156535405Y-98529524D01*
X156694646Y-98413828D01*
X156833828Y-98274646D01*
X156949524Y-98115405D01*
X157038884Y-97940025D01*
X157039515Y-97938787D01*
X157087489Y-97887990D01*
X157155310Y-97871195D01*
X157221445Y-97893732D01*
X157260485Y-97938787D01*
X157350474Y-98115403D01*
X157354817Y-98121380D01*
X157466172Y-98274646D01*
X157605354Y-98413828D01*
X157764595Y-98529524D01*
X157847455Y-98571743D01*
X157939970Y-98618882D01*
X157939972Y-98618882D01*
X157939975Y-98618884D01*
X157998962Y-98638050D01*
X158127173Y-98679709D01*
X158321578Y-98710500D01*
X158321583Y-98710500D01*
X158518422Y-98710500D01*
X158712826Y-98679709D01*
X158732849Y-98673203D01*
X158900025Y-98618884D01*
X159075405Y-98529524D01*
X159234646Y-98413828D01*
X159373828Y-98274646D01*
X159489524Y-98115405D01*
X159578884Y-97940025D01*
X159579515Y-97938787D01*
X159627489Y-97887990D01*
X159695310Y-97871195D01*
X159761445Y-97893732D01*
X159800485Y-97938787D01*
X159890474Y-98115403D01*
X159894817Y-98121380D01*
X160006172Y-98274646D01*
X160145354Y-98413828D01*
X160304595Y-98529524D01*
X160387455Y-98571743D01*
X160479970Y-98618882D01*
X160479972Y-98618882D01*
X160479975Y-98618884D01*
X160538962Y-98638050D01*
X160667173Y-98679709D01*
X160861578Y-98710500D01*
X160861583Y-98710500D01*
X161058422Y-98710500D01*
X161252826Y-98679709D01*
X161272849Y-98673203D01*
X161440025Y-98618884D01*
X161615405Y-98529524D01*
X161774646Y-98413828D01*
X161913828Y-98274646D01*
X162029524Y-98115405D01*
X162118884Y-97940025D01*
X162119515Y-97938787D01*
X162167489Y-97887990D01*
X162235310Y-97871195D01*
X162301445Y-97893732D01*
X162340485Y-97938787D01*
X162430474Y-98115403D01*
X162434817Y-98121380D01*
X162546172Y-98274646D01*
X162685354Y-98413828D01*
X162844595Y-98529524D01*
X162927455Y-98571743D01*
X163019970Y-98618882D01*
X163019972Y-98618882D01*
X163019975Y-98618884D01*
X163078962Y-98638050D01*
X163207173Y-98679709D01*
X163401578Y-98710500D01*
X163401583Y-98710500D01*
X163598422Y-98710500D01*
X163792826Y-98679709D01*
X163812849Y-98673203D01*
X163980025Y-98618884D01*
X164155405Y-98529524D01*
X164314646Y-98413828D01*
X164453828Y-98274646D01*
X164569524Y-98115405D01*
X164658884Y-97940025D01*
X164659515Y-97938787D01*
X164707489Y-97887990D01*
X164775310Y-97871195D01*
X164841445Y-97893732D01*
X164880485Y-97938787D01*
X164970474Y-98115403D01*
X164974817Y-98121380D01*
X165086172Y-98274646D01*
X165225354Y-98413828D01*
X165384595Y-98529524D01*
X165467455Y-98571743D01*
X165559970Y-98618882D01*
X165559972Y-98618882D01*
X165559975Y-98618884D01*
X165618962Y-98638050D01*
X165747173Y-98679709D01*
X165941578Y-98710500D01*
X165941583Y-98710500D01*
X166138422Y-98710500D01*
X166332826Y-98679709D01*
X166352849Y-98673203D01*
X166520025Y-98618884D01*
X166695405Y-98529524D01*
X166854646Y-98413828D01*
X166993828Y-98274646D01*
X167109524Y-98115405D01*
X167198884Y-97940025D01*
X167199515Y-97938787D01*
X167247489Y-97887990D01*
X167315310Y-97871195D01*
X167381445Y-97893732D01*
X167420485Y-97938787D01*
X167510474Y-98115403D01*
X167514817Y-98121380D01*
X167626172Y-98274646D01*
X167765354Y-98413828D01*
X167924595Y-98529524D01*
X168007455Y-98571743D01*
X168099970Y-98618882D01*
X168099972Y-98618882D01*
X168099975Y-98618884D01*
X168158962Y-98638050D01*
X168287173Y-98679709D01*
X168481578Y-98710500D01*
X168481583Y-98710500D01*
X168678422Y-98710500D01*
X168872826Y-98679709D01*
X168892849Y-98673203D01*
X169060025Y-98618884D01*
X169235405Y-98529524D01*
X169394646Y-98413828D01*
X169533828Y-98274646D01*
X169649524Y-98115405D01*
X169738884Y-97940025D01*
X169799709Y-97752826D01*
X169815521Y-97652993D01*
X169830500Y-97558422D01*
X169830500Y-97361577D01*
X169799709Y-97167173D01*
X169738882Y-96979970D01*
X169671265Y-96847264D01*
X169649524Y-96804595D01*
X169533828Y-96645354D01*
X169466949Y-96578475D01*
X172409500Y-96578475D01*
X172409500Y-98341517D01*
X172420292Y-98409657D01*
X172424354Y-98435304D01*
X172481950Y-98548342D01*
X172481952Y-98548344D01*
X172481954Y-98548347D01*
X172571652Y-98638045D01*
X172571654Y-98638046D01*
X172571658Y-98638050D01*
X172684694Y-98695645D01*
X172684698Y-98695647D01*
X172778475Y-98710499D01*
X172778481Y-98710500D01*
X174541518Y-98710499D01*
X174635304Y-98695646D01*
X174748342Y-98638050D01*
X174838050Y-98548342D01*
X174895646Y-98435304D01*
X174895646Y-98435302D01*
X174895647Y-98435301D01*
X174910499Y-98341524D01*
X174910500Y-98341519D01*
X174910499Y-98194263D01*
X174930183Y-98127227D01*
X174982987Y-98081472D01*
X175052145Y-98071528D01*
X175115701Y-98100553D01*
X175134817Y-98121380D01*
X175246172Y-98274646D01*
X175385354Y-98413828D01*
X175544595Y-98529524D01*
X175627455Y-98571743D01*
X175719970Y-98618882D01*
X175719972Y-98618882D01*
X175719975Y-98618884D01*
X175778962Y-98638050D01*
X175907173Y-98679709D01*
X176101578Y-98710500D01*
X176101583Y-98710500D01*
X176298422Y-98710500D01*
X176492826Y-98679709D01*
X176512849Y-98673203D01*
X176680025Y-98618884D01*
X176855405Y-98529524D01*
X177014646Y-98413828D01*
X177153828Y-98274646D01*
X177269524Y-98115405D01*
X177358884Y-97940025D01*
X177359515Y-97938787D01*
X177407489Y-97887990D01*
X177475310Y-97871195D01*
X177541445Y-97893732D01*
X177580485Y-97938787D01*
X177670474Y-98115403D01*
X177674817Y-98121380D01*
X177786172Y-98274646D01*
X177925354Y-98413828D01*
X178084595Y-98529524D01*
X178167455Y-98571743D01*
X178259970Y-98618882D01*
X178259972Y-98618882D01*
X178259975Y-98618884D01*
X178318962Y-98638050D01*
X178447173Y-98679709D01*
X178641578Y-98710500D01*
X178641583Y-98710500D01*
X178838422Y-98710500D01*
X179032826Y-98679709D01*
X179052849Y-98673203D01*
X179220025Y-98618884D01*
X179395405Y-98529524D01*
X179554646Y-98413828D01*
X179693828Y-98274646D01*
X179809524Y-98115405D01*
X179898884Y-97940025D01*
X179899515Y-97938787D01*
X179947489Y-97887990D01*
X180015310Y-97871195D01*
X180081445Y-97893732D01*
X180120485Y-97938787D01*
X180210474Y-98115403D01*
X180214817Y-98121380D01*
X180326172Y-98274646D01*
X180465354Y-98413828D01*
X180624595Y-98529524D01*
X180707455Y-98571743D01*
X180799970Y-98618882D01*
X180799972Y-98618882D01*
X180799975Y-98618884D01*
X180858962Y-98638050D01*
X180987173Y-98679709D01*
X181181578Y-98710500D01*
X181181583Y-98710500D01*
X181378422Y-98710500D01*
X181572826Y-98679709D01*
X181592849Y-98673203D01*
X181760025Y-98618884D01*
X181935405Y-98529524D01*
X182094646Y-98413828D01*
X182233828Y-98274646D01*
X182349524Y-98115405D01*
X182438884Y-97940025D01*
X182439515Y-97938787D01*
X182487489Y-97887990D01*
X182555310Y-97871195D01*
X182621445Y-97893732D01*
X182660485Y-97938787D01*
X182750474Y-98115403D01*
X182754817Y-98121380D01*
X182866172Y-98274646D01*
X183005354Y-98413828D01*
X183164595Y-98529524D01*
X183247455Y-98571743D01*
X183339970Y-98618882D01*
X183339972Y-98618882D01*
X183339975Y-98618884D01*
X183398962Y-98638050D01*
X183527173Y-98679709D01*
X183721578Y-98710500D01*
X183721583Y-98710500D01*
X183918422Y-98710500D01*
X184112826Y-98679709D01*
X184132849Y-98673203D01*
X184300025Y-98618884D01*
X184475405Y-98529524D01*
X184634646Y-98413828D01*
X184773828Y-98274646D01*
X184889524Y-98115405D01*
X184978884Y-97940025D01*
X184979515Y-97938787D01*
X185027489Y-97887990D01*
X185095310Y-97871195D01*
X185161445Y-97893732D01*
X185200485Y-97938787D01*
X185290474Y-98115403D01*
X185294817Y-98121380D01*
X185406172Y-98274646D01*
X185545354Y-98413828D01*
X185704595Y-98529524D01*
X185787455Y-98571743D01*
X185879970Y-98618882D01*
X185879972Y-98618882D01*
X185879975Y-98618884D01*
X185938962Y-98638050D01*
X186067173Y-98679709D01*
X186261578Y-98710500D01*
X186261583Y-98710500D01*
X186458422Y-98710500D01*
X186652826Y-98679709D01*
X186672849Y-98673203D01*
X186840025Y-98618884D01*
X187015405Y-98529524D01*
X187174646Y-98413828D01*
X187313828Y-98274646D01*
X187429524Y-98115405D01*
X187518884Y-97940025D01*
X187519515Y-97938787D01*
X187567489Y-97887990D01*
X187635310Y-97871195D01*
X187701445Y-97893732D01*
X187740485Y-97938787D01*
X187830474Y-98115403D01*
X187834817Y-98121380D01*
X187946172Y-98274646D01*
X188085354Y-98413828D01*
X188244595Y-98529524D01*
X188327455Y-98571743D01*
X188419970Y-98618882D01*
X188419972Y-98618882D01*
X188419975Y-98618884D01*
X188478962Y-98638050D01*
X188607173Y-98679709D01*
X188801578Y-98710500D01*
X188801583Y-98710500D01*
X188998422Y-98710500D01*
X189192826Y-98679709D01*
X189212849Y-98673203D01*
X189380025Y-98618884D01*
X189555405Y-98529524D01*
X189714646Y-98413828D01*
X189853828Y-98274646D01*
X189969524Y-98115405D01*
X190058884Y-97940025D01*
X190059515Y-97938787D01*
X190107489Y-97887990D01*
X190175310Y-97871195D01*
X190241445Y-97893732D01*
X190280485Y-97938787D01*
X190370474Y-98115403D01*
X190374817Y-98121380D01*
X190486172Y-98274646D01*
X190625354Y-98413828D01*
X190784595Y-98529524D01*
X190867455Y-98571743D01*
X190959970Y-98618882D01*
X190959972Y-98618882D01*
X190959975Y-98618884D01*
X191018962Y-98638050D01*
X191147173Y-98679709D01*
X191341578Y-98710500D01*
X191341583Y-98710500D01*
X191538422Y-98710500D01*
X191732826Y-98679709D01*
X191752849Y-98673203D01*
X191920025Y-98618884D01*
X192095405Y-98529524D01*
X192254646Y-98413828D01*
X192393828Y-98274646D01*
X192509524Y-98115405D01*
X192598884Y-97940025D01*
X192659709Y-97752826D01*
X192675521Y-97652993D01*
X192690500Y-97558422D01*
X192690500Y-97361582D01*
X192688438Y-97348563D01*
X192688438Y-97348560D01*
X192686138Y-97334038D01*
X194919500Y-97334038D01*
X194919500Y-97585961D01*
X194958910Y-97834785D01*
X195036760Y-98074383D01*
X195151132Y-98298848D01*
X195299201Y-98502649D01*
X195299205Y-98502654D01*
X195477345Y-98680794D01*
X195477350Y-98680798D01*
X195609427Y-98776757D01*
X195681155Y-98828870D01*
X195824184Y-98901747D01*
X195905616Y-98943239D01*
X195905618Y-98943239D01*
X195905621Y-98943241D01*
X196145215Y-99021090D01*
X196394038Y-99060500D01*
X196394039Y-99060500D01*
X196645961Y-99060500D01*
X196645962Y-99060500D01*
X196894785Y-99021090D01*
X197134379Y-98943241D01*
X197358845Y-98828870D01*
X197562656Y-98680793D01*
X197740793Y-98502656D01*
X197888870Y-98298845D01*
X198003241Y-98074379D01*
X198081090Y-97834785D01*
X198120500Y-97585962D01*
X198120500Y-97334038D01*
X198081090Y-97085215D01*
X198003241Y-96845621D01*
X198003239Y-96845618D01*
X198003239Y-96845616D01*
X197955764Y-96752442D01*
X197888870Y-96621155D01*
X197805330Y-96506172D01*
X197740798Y-96417350D01*
X197740794Y-96417345D01*
X197562654Y-96239205D01*
X197562649Y-96239201D01*
X197358848Y-96091132D01*
X197358847Y-96091131D01*
X197358845Y-96091130D01*
X197258071Y-96039783D01*
X197134383Y-95976760D01*
X196894785Y-95898910D01*
X196645962Y-95859500D01*
X196394038Y-95859500D01*
X196269626Y-95879205D01*
X196145214Y-95898910D01*
X195905616Y-95976760D01*
X195681151Y-96091132D01*
X195477350Y-96239201D01*
X195477345Y-96239205D01*
X195299205Y-96417345D01*
X195299201Y-96417350D01*
X195151132Y-96621151D01*
X195036760Y-96845616D01*
X194958910Y-97085214D01*
X194919500Y-97334038D01*
X192686138Y-97334038D01*
X192659709Y-97167173D01*
X192598882Y-96979970D01*
X192531265Y-96847264D01*
X192509524Y-96804595D01*
X192393828Y-96645354D01*
X192254646Y-96506172D01*
X192095405Y-96390476D01*
X191920029Y-96301117D01*
X191732826Y-96240290D01*
X191538422Y-96209500D01*
X191538417Y-96209500D01*
X191341583Y-96209500D01*
X191341578Y-96209500D01*
X191147173Y-96240290D01*
X190959970Y-96301117D01*
X190784594Y-96390476D01*
X190693741Y-96456485D01*
X190625354Y-96506172D01*
X190625352Y-96506174D01*
X190625351Y-96506174D01*
X190486174Y-96645351D01*
X190486174Y-96645352D01*
X190486172Y-96645354D01*
X190436485Y-96713741D01*
X190370476Y-96804594D01*
X190280485Y-96981213D01*
X190232511Y-97032009D01*
X190164690Y-97048804D01*
X190098555Y-97026267D01*
X190059515Y-96981213D01*
X190003679Y-96871628D01*
X189969524Y-96804595D01*
X189853828Y-96645354D01*
X189714646Y-96506172D01*
X189555405Y-96390476D01*
X189380029Y-96301117D01*
X189192826Y-96240290D01*
X188998422Y-96209500D01*
X188998417Y-96209500D01*
X188801583Y-96209500D01*
X188801578Y-96209500D01*
X188607173Y-96240290D01*
X188419970Y-96301117D01*
X188244594Y-96390476D01*
X188153741Y-96456485D01*
X188085354Y-96506172D01*
X188085352Y-96506174D01*
X188085351Y-96506174D01*
X187946174Y-96645351D01*
X187946174Y-96645352D01*
X187946172Y-96645354D01*
X187896485Y-96713741D01*
X187830476Y-96804594D01*
X187740485Y-96981213D01*
X187692511Y-97032009D01*
X187624690Y-97048804D01*
X187558555Y-97026267D01*
X187519515Y-96981213D01*
X187463679Y-96871628D01*
X187429524Y-96804595D01*
X187313828Y-96645354D01*
X187174646Y-96506172D01*
X187015405Y-96390476D01*
X186840029Y-96301117D01*
X186652826Y-96240290D01*
X186458422Y-96209500D01*
X186458417Y-96209500D01*
X186261583Y-96209500D01*
X186261578Y-96209500D01*
X186067173Y-96240290D01*
X185879970Y-96301117D01*
X185704594Y-96390476D01*
X185613741Y-96456485D01*
X185545354Y-96506172D01*
X185545352Y-96506174D01*
X185545351Y-96506174D01*
X185406174Y-96645351D01*
X185406174Y-96645352D01*
X185406172Y-96645354D01*
X185356485Y-96713741D01*
X185290476Y-96804594D01*
X185200485Y-96981213D01*
X185152511Y-97032009D01*
X185084690Y-97048804D01*
X185018555Y-97026267D01*
X184979515Y-96981213D01*
X184923679Y-96871628D01*
X184889524Y-96804595D01*
X184773828Y-96645354D01*
X184634646Y-96506172D01*
X184475405Y-96390476D01*
X184300029Y-96301117D01*
X184112826Y-96240290D01*
X183918422Y-96209500D01*
X183918417Y-96209500D01*
X183721583Y-96209500D01*
X183721578Y-96209500D01*
X183527173Y-96240290D01*
X183339970Y-96301117D01*
X183164594Y-96390476D01*
X183073741Y-96456485D01*
X183005354Y-96506172D01*
X183005352Y-96506174D01*
X183005351Y-96506174D01*
X182866174Y-96645351D01*
X182866174Y-96645352D01*
X182866172Y-96645354D01*
X182816485Y-96713741D01*
X182750476Y-96804594D01*
X182660485Y-96981213D01*
X182612511Y-97032009D01*
X182544690Y-97048804D01*
X182478555Y-97026267D01*
X182439515Y-96981213D01*
X182383679Y-96871628D01*
X182349524Y-96804595D01*
X182233828Y-96645354D01*
X182094646Y-96506172D01*
X181935405Y-96390476D01*
X181760029Y-96301117D01*
X181572826Y-96240290D01*
X181378422Y-96209500D01*
X181378417Y-96209500D01*
X181181583Y-96209500D01*
X181181578Y-96209500D01*
X180987173Y-96240290D01*
X180799970Y-96301117D01*
X180624594Y-96390476D01*
X180533741Y-96456485D01*
X180465354Y-96506172D01*
X180465352Y-96506174D01*
X180465351Y-96506174D01*
X180326174Y-96645351D01*
X180326174Y-96645352D01*
X180326172Y-96645354D01*
X180276485Y-96713741D01*
X180210476Y-96804594D01*
X180120485Y-96981213D01*
X180072511Y-97032009D01*
X180004690Y-97048804D01*
X179938555Y-97026267D01*
X179899515Y-96981213D01*
X179843679Y-96871628D01*
X179809524Y-96804595D01*
X179693828Y-96645354D01*
X179554646Y-96506172D01*
X179395405Y-96390476D01*
X179220029Y-96301117D01*
X179032826Y-96240290D01*
X178838422Y-96209500D01*
X178838417Y-96209500D01*
X178641583Y-96209500D01*
X178641578Y-96209500D01*
X178447173Y-96240290D01*
X178259970Y-96301117D01*
X178084594Y-96390476D01*
X177993741Y-96456485D01*
X177925354Y-96506172D01*
X177925352Y-96506174D01*
X177925351Y-96506174D01*
X177786174Y-96645351D01*
X177786174Y-96645352D01*
X177786172Y-96645354D01*
X177736485Y-96713741D01*
X177670476Y-96804594D01*
X177580485Y-96981213D01*
X177532511Y-97032009D01*
X177464690Y-97048804D01*
X177398555Y-97026267D01*
X177359515Y-96981213D01*
X177303679Y-96871628D01*
X177269524Y-96804595D01*
X177153828Y-96645354D01*
X177014646Y-96506172D01*
X176855405Y-96390476D01*
X176680029Y-96301117D01*
X176492826Y-96240290D01*
X176298422Y-96209500D01*
X176298417Y-96209500D01*
X176101583Y-96209500D01*
X176101578Y-96209500D01*
X175907173Y-96240290D01*
X175719970Y-96301117D01*
X175544594Y-96390476D01*
X175453741Y-96456485D01*
X175385354Y-96506172D01*
X175385352Y-96506174D01*
X175385351Y-96506174D01*
X175246173Y-96645352D01*
X175134817Y-96798620D01*
X175079486Y-96841285D01*
X175009873Y-96847264D01*
X174948078Y-96814658D01*
X174913721Y-96753819D01*
X174910499Y-96725734D01*
X174910499Y-96578482D01*
X174899047Y-96506174D01*
X174895646Y-96484696D01*
X174838050Y-96371658D01*
X174838046Y-96371654D01*
X174838045Y-96371652D01*
X174748347Y-96281954D01*
X174748344Y-96281952D01*
X174748342Y-96281950D01*
X174650444Y-96232068D01*
X174635301Y-96224352D01*
X174541524Y-96209500D01*
X172778482Y-96209500D01*
X172697519Y-96222323D01*
X172684696Y-96224354D01*
X172571658Y-96281950D01*
X172571657Y-96281951D01*
X172571652Y-96281954D01*
X172481954Y-96371652D01*
X172481951Y-96371657D01*
X172424352Y-96484698D01*
X172409500Y-96578475D01*
X169466949Y-96578475D01*
X169394646Y-96506172D01*
X169235405Y-96390476D01*
X169060029Y-96301117D01*
X168872826Y-96240290D01*
X168678422Y-96209500D01*
X168678417Y-96209500D01*
X168481583Y-96209500D01*
X168481578Y-96209500D01*
X168287173Y-96240290D01*
X168099970Y-96301117D01*
X167924594Y-96390476D01*
X167833741Y-96456485D01*
X167765354Y-96506172D01*
X167765352Y-96506174D01*
X167765351Y-96506174D01*
X167626174Y-96645351D01*
X167626174Y-96645352D01*
X167626172Y-96645354D01*
X167576485Y-96713741D01*
X167510476Y-96804594D01*
X167420485Y-96981213D01*
X167372511Y-97032009D01*
X167304690Y-97048804D01*
X167238555Y-97026267D01*
X167199515Y-96981213D01*
X167143679Y-96871628D01*
X167109524Y-96804595D01*
X166993828Y-96645354D01*
X166854646Y-96506172D01*
X166695405Y-96390476D01*
X166520029Y-96301117D01*
X166332826Y-96240290D01*
X166138422Y-96209500D01*
X166138417Y-96209500D01*
X165941583Y-96209500D01*
X165941578Y-96209500D01*
X165747173Y-96240290D01*
X165559970Y-96301117D01*
X165384594Y-96390476D01*
X165293741Y-96456485D01*
X165225354Y-96506172D01*
X165225352Y-96506174D01*
X165225351Y-96506174D01*
X165086174Y-96645351D01*
X165086174Y-96645352D01*
X165086172Y-96645354D01*
X165036485Y-96713741D01*
X164970476Y-96804594D01*
X164880485Y-96981213D01*
X164832511Y-97032009D01*
X164764690Y-97048804D01*
X164698555Y-97026267D01*
X164659515Y-96981213D01*
X164603679Y-96871628D01*
X164569524Y-96804595D01*
X164453828Y-96645354D01*
X164314646Y-96506172D01*
X164155405Y-96390476D01*
X163980029Y-96301117D01*
X163792826Y-96240290D01*
X163598422Y-96209500D01*
X163598417Y-96209500D01*
X163401583Y-96209500D01*
X163401578Y-96209500D01*
X163207173Y-96240290D01*
X163019970Y-96301117D01*
X162844594Y-96390476D01*
X162753741Y-96456485D01*
X162685354Y-96506172D01*
X162685352Y-96506174D01*
X162685351Y-96506174D01*
X162546174Y-96645351D01*
X162546174Y-96645352D01*
X162546172Y-96645354D01*
X162496485Y-96713741D01*
X162430476Y-96804594D01*
X162340485Y-96981213D01*
X162292511Y-97032009D01*
X162224690Y-97048804D01*
X162158555Y-97026267D01*
X162119515Y-96981213D01*
X162063679Y-96871628D01*
X162029524Y-96804595D01*
X161913828Y-96645354D01*
X161774646Y-96506172D01*
X161615405Y-96390476D01*
X161440029Y-96301117D01*
X161252826Y-96240290D01*
X161058422Y-96209500D01*
X161058417Y-96209500D01*
X160861583Y-96209500D01*
X160861578Y-96209500D01*
X160667173Y-96240290D01*
X160479970Y-96301117D01*
X160304594Y-96390476D01*
X160213741Y-96456485D01*
X160145354Y-96506172D01*
X160145352Y-96506174D01*
X160145351Y-96506174D01*
X160006174Y-96645351D01*
X160006174Y-96645352D01*
X160006172Y-96645354D01*
X159956485Y-96713741D01*
X159890476Y-96804594D01*
X159800485Y-96981213D01*
X159752511Y-97032009D01*
X159684690Y-97048804D01*
X159618555Y-97026267D01*
X159579515Y-96981213D01*
X159523679Y-96871628D01*
X159489524Y-96804595D01*
X159373828Y-96645354D01*
X159234646Y-96506172D01*
X159075405Y-96390476D01*
X158900029Y-96301117D01*
X158712826Y-96240290D01*
X158518422Y-96209500D01*
X158518417Y-96209500D01*
X158321583Y-96209500D01*
X158321578Y-96209500D01*
X158127173Y-96240290D01*
X157939970Y-96301117D01*
X157764594Y-96390476D01*
X157673741Y-96456485D01*
X157605354Y-96506172D01*
X157605352Y-96506174D01*
X157605351Y-96506174D01*
X157466174Y-96645351D01*
X157466174Y-96645352D01*
X157466172Y-96645354D01*
X157416485Y-96713741D01*
X157350476Y-96804594D01*
X157260485Y-96981213D01*
X157212511Y-97032009D01*
X157144690Y-97048804D01*
X157078555Y-97026267D01*
X157039515Y-96981213D01*
X156983679Y-96871628D01*
X156949524Y-96804595D01*
X156833828Y-96645354D01*
X156694646Y-96506172D01*
X156535405Y-96390476D01*
X156360029Y-96301117D01*
X156172826Y-96240290D01*
X155978422Y-96209500D01*
X155978417Y-96209500D01*
X155781583Y-96209500D01*
X155781578Y-96209500D01*
X155587173Y-96240290D01*
X155399970Y-96301117D01*
X155224594Y-96390476D01*
X155133741Y-96456485D01*
X155065354Y-96506172D01*
X155065352Y-96506174D01*
X155065351Y-96506174D01*
X154926174Y-96645351D01*
X154926174Y-96645352D01*
X154926172Y-96645354D01*
X154876485Y-96713741D01*
X154810476Y-96804594D01*
X154720485Y-96981213D01*
X154672511Y-97032009D01*
X154604690Y-97048804D01*
X154538555Y-97026267D01*
X154499515Y-96981213D01*
X154443679Y-96871628D01*
X154409524Y-96804595D01*
X154293828Y-96645354D01*
X154154646Y-96506172D01*
X153995405Y-96390476D01*
X153820029Y-96301117D01*
X153632826Y-96240290D01*
X153438422Y-96209500D01*
X153438417Y-96209500D01*
X153241583Y-96209500D01*
X153241578Y-96209500D01*
X153047173Y-96240290D01*
X152859970Y-96301117D01*
X152684594Y-96390476D01*
X152593741Y-96456485D01*
X152525354Y-96506172D01*
X152525352Y-96506174D01*
X152525351Y-96506174D01*
X152386173Y-96645352D01*
X152274817Y-96798620D01*
X152219486Y-96841285D01*
X152149873Y-96847264D01*
X152088078Y-96814658D01*
X152053721Y-96753819D01*
X152050499Y-96725734D01*
X152050499Y-96578482D01*
X152039047Y-96506174D01*
X152035646Y-96484696D01*
X151978050Y-96371658D01*
X151978046Y-96371654D01*
X151978045Y-96371652D01*
X151888347Y-96281954D01*
X151888344Y-96281952D01*
X151888342Y-96281950D01*
X151790444Y-96232068D01*
X151775301Y-96224352D01*
X151681524Y-96209500D01*
X151681519Y-96209500D01*
X151524500Y-96209500D01*
X151457461Y-96189815D01*
X151411706Y-96137011D01*
X151400500Y-96085500D01*
X151400500Y-92254038D01*
X164439500Y-92254038D01*
X164439500Y-92505961D01*
X164478910Y-92754785D01*
X164556760Y-92994383D01*
X164671132Y-93218848D01*
X164819201Y-93422649D01*
X164819205Y-93422654D01*
X164997345Y-93600794D01*
X164997350Y-93600798D01*
X165038232Y-93630500D01*
X165201155Y-93748870D01*
X165344184Y-93821747D01*
X165425616Y-93863239D01*
X165425618Y-93863239D01*
X165425621Y-93863241D01*
X165665215Y-93941090D01*
X165914038Y-93980500D01*
X165914039Y-93980500D01*
X166165961Y-93980500D01*
X166165962Y-93980500D01*
X166414785Y-93941090D01*
X166654379Y-93863241D01*
X166878845Y-93748870D01*
X167082656Y-93600793D01*
X167260793Y-93422656D01*
X167408870Y-93218845D01*
X167523241Y-92994379D01*
X167601090Y-92754785D01*
X167640500Y-92505962D01*
X167640500Y-92254038D01*
X167601090Y-92005215D01*
X167523241Y-91765621D01*
X167523239Y-91765618D01*
X167523239Y-91765616D01*
X167463098Y-91647584D01*
X167408870Y-91541155D01*
X167325330Y-91426172D01*
X167260798Y-91337350D01*
X167260794Y-91337345D01*
X167082654Y-91159205D01*
X167082649Y-91159201D01*
X166878848Y-91011132D01*
X166878847Y-91011131D01*
X166878845Y-91011130D01*
X166808747Y-90975413D01*
X166654383Y-90896760D01*
X166414785Y-90818910D01*
X166165962Y-90779500D01*
X165914038Y-90779500D01*
X165789626Y-90799205D01*
X165665214Y-90818910D01*
X165425616Y-90896760D01*
X165201151Y-91011132D01*
X164997350Y-91159201D01*
X164997345Y-91159205D01*
X164819205Y-91337345D01*
X164819201Y-91337350D01*
X164671132Y-91541151D01*
X164556760Y-91765616D01*
X164478910Y-92005214D01*
X164439500Y-92254038D01*
X151400500Y-92254038D01*
X151400500Y-90889059D01*
X151400501Y-90889046D01*
X151400501Y-90720945D01*
X151400501Y-90720943D01*
X151359577Y-90568215D01*
X151317540Y-90495405D01*
X151280520Y-90431284D01*
X151168716Y-90319480D01*
X151168715Y-90319479D01*
X151164385Y-90315149D01*
X151164374Y-90315139D01*
X145027590Y-84178355D01*
X145027588Y-84178352D01*
X144908717Y-84059481D01*
X144908716Y-84059480D01*
X144821904Y-84009360D01*
X144821904Y-84009359D01*
X144821900Y-84009358D01*
X144771785Y-83980423D01*
X144619057Y-83939499D01*
X144460943Y-83939499D01*
X144453347Y-83939499D01*
X144453331Y-83939500D01*
X143172596Y-83939500D01*
X143105557Y-83919815D01*
X143072278Y-83888386D01*
X143012547Y-83806174D01*
X142953828Y-83725354D01*
X142814646Y-83586172D01*
X142661377Y-83474815D01*
X142618714Y-83419487D01*
X142612735Y-83349873D01*
X142645341Y-83288078D01*
X142706180Y-83253721D01*
X142734264Y-83250499D01*
X142881518Y-83250499D01*
X142975304Y-83235646D01*
X143088342Y-83178050D01*
X143178050Y-83088342D01*
X143235646Y-82975304D01*
X143235646Y-82975302D01*
X143235647Y-82975301D01*
X143250500Y-82881524D01*
X143250500Y-82724500D01*
X143270185Y-82657461D01*
X143322989Y-82611706D01*
X143374500Y-82600500D01*
X147913331Y-82600500D01*
X147913347Y-82600501D01*
X147920943Y-82600501D01*
X148079054Y-82600501D01*
X148079057Y-82600501D01*
X148231785Y-82559577D01*
X148281904Y-82530639D01*
X148368716Y-82480520D01*
X148480520Y-82368716D01*
X148480520Y-82368714D01*
X148490728Y-82358507D01*
X148490729Y-82358504D01*
X150726574Y-80122660D01*
X150787895Y-80089177D01*
X150833647Y-80087870D01*
X150913389Y-80100500D01*
X150913391Y-80100500D01*
X151086610Y-80100500D01*
X151086611Y-80100500D01*
X151257701Y-80073402D01*
X151422445Y-80019873D01*
X151576788Y-79941232D01*
X151716928Y-79839414D01*
X151839414Y-79716928D01*
X151941232Y-79576788D01*
X152019873Y-79422445D01*
X152073402Y-79257701D01*
X152100500Y-79086611D01*
X152100500Y-78913389D01*
X152073402Y-78742299D01*
X152019873Y-78577555D01*
X151941232Y-78423212D01*
X151839414Y-78283072D01*
X151716928Y-78160586D01*
X151576788Y-78058768D01*
X151422445Y-77980127D01*
X151257701Y-77926598D01*
X151257699Y-77926597D01*
X151257698Y-77926597D01*
X151126271Y-77905781D01*
X151086611Y-77899500D01*
X150913389Y-77899500D01*
X150873728Y-77905781D01*
X150742302Y-77926597D01*
X150577552Y-77980128D01*
X150423211Y-78058768D01*
X150374960Y-78093825D01*
X150283072Y-78160586D01*
X150283070Y-78160588D01*
X150283069Y-78160588D01*
X150160588Y-78283069D01*
X150160588Y-78283070D01*
X150160586Y-78283072D01*
X150120275Y-78338555D01*
X150058768Y-78423211D01*
X149980128Y-78577552D01*
X149926597Y-78742302D01*
X149899500Y-78913389D01*
X149899500Y-79086615D01*
X149912128Y-79166347D01*
X149903173Y-79235641D01*
X149877336Y-79273426D01*
X147787584Y-81363181D01*
X147726261Y-81396666D01*
X147699903Y-81399500D01*
X143374499Y-81399500D01*
X143307460Y-81379815D01*
X143261705Y-81327011D01*
X143250499Y-81275500D01*
X143250499Y-81118482D01*
X143250498Y-81118475D01*
X143235646Y-81024696D01*
X143178050Y-80911658D01*
X143178046Y-80911654D01*
X143178045Y-80911652D01*
X143088347Y-80821954D01*
X143088344Y-80821952D01*
X143088342Y-80821950D01*
X143011517Y-80782805D01*
X142975301Y-80764352D01*
X142881524Y-80749500D01*
X141118482Y-80749500D01*
X141037519Y-80762323D01*
X141024696Y-80764354D01*
X140911658Y-80821950D01*
X140911657Y-80821951D01*
X140911652Y-80821954D01*
X140821954Y-80911652D01*
X140821951Y-80911657D01*
X140821950Y-80911658D01*
X140805119Y-80944690D01*
X140764352Y-81024698D01*
X140749500Y-81118475D01*
X140749500Y-81275500D01*
X140729815Y-81342539D01*
X140677011Y-81388294D01*
X140625500Y-81399500D01*
X137586669Y-81399500D01*
X137586653Y-81399499D01*
X137579057Y-81399499D01*
X137420943Y-81399499D01*
X137313587Y-81428265D01*
X137268210Y-81440424D01*
X137268209Y-81440425D01*
X137218096Y-81469359D01*
X137218095Y-81469360D01*
X137174689Y-81494420D01*
X137131285Y-81519479D01*
X137131282Y-81519481D01*
X132019481Y-86631282D01*
X132019479Y-86631285D01*
X131969361Y-86718094D01*
X131969359Y-86718096D01*
X131940425Y-86768209D01*
X131940424Y-86768210D01*
X131926555Y-86819970D01*
X131899499Y-86920943D01*
X131899499Y-86920945D01*
X131899499Y-87089046D01*
X131899500Y-87089059D01*
X131899500Y-91773330D01*
X131899499Y-91773348D01*
X131899499Y-91939054D01*
X131899498Y-91939054D01*
X131899499Y-91939057D01*
X131940423Y-92091785D01*
X131940424Y-92091786D01*
X131955173Y-92117334D01*
X131955174Y-92117335D01*
X132019475Y-92228709D01*
X132019481Y-92228717D01*
X132138349Y-92347585D01*
X132138355Y-92347590D01*
X135794742Y-96003977D01*
X135828227Y-96065300D01*
X135823243Y-96134992D01*
X135781371Y-96190925D01*
X135715907Y-96215342D01*
X135687664Y-96214131D01*
X135658424Y-96209500D01*
X135658417Y-96209500D01*
X135461583Y-96209500D01*
X135461578Y-96209500D01*
X135267173Y-96240290D01*
X135079970Y-96301117D01*
X134904594Y-96390476D01*
X134813741Y-96456485D01*
X134745354Y-96506172D01*
X134745352Y-96506174D01*
X134745351Y-96506174D01*
X134606174Y-96645351D01*
X134606174Y-96645352D01*
X134606172Y-96645354D01*
X134556485Y-96713741D01*
X134490476Y-96804594D01*
X134400485Y-96981213D01*
X134352511Y-97032009D01*
X134284690Y-97048804D01*
X134218555Y-97026267D01*
X134179515Y-96981213D01*
X134123679Y-96871628D01*
X134089524Y-96804595D01*
X133973828Y-96645354D01*
X133834646Y-96506172D01*
X133675405Y-96390476D01*
X133500029Y-96301117D01*
X133312826Y-96240290D01*
X133118422Y-96209500D01*
X133118417Y-96209500D01*
X132921583Y-96209500D01*
X132921578Y-96209500D01*
X132727173Y-96240290D01*
X132539970Y-96301117D01*
X132364594Y-96390476D01*
X132273741Y-96456485D01*
X132205354Y-96506172D01*
X132205352Y-96506174D01*
X132205351Y-96506174D01*
X132066174Y-96645351D01*
X132066174Y-96645352D01*
X132066172Y-96645354D01*
X132016485Y-96713741D01*
X131950476Y-96804594D01*
X131860485Y-96981213D01*
X131812511Y-97032009D01*
X131744690Y-97048804D01*
X131678555Y-97026267D01*
X131639515Y-96981213D01*
X131583679Y-96871628D01*
X131549524Y-96804595D01*
X131433828Y-96645354D01*
X131294646Y-96506172D01*
X131135405Y-96390476D01*
X130960029Y-96301117D01*
X130772826Y-96240290D01*
X130578422Y-96209500D01*
X130578417Y-96209500D01*
X130381583Y-96209500D01*
X130381578Y-96209500D01*
X130187173Y-96240290D01*
X129999970Y-96301117D01*
X129824594Y-96390476D01*
X129733741Y-96456485D01*
X129665354Y-96506172D01*
X129665352Y-96506174D01*
X129665351Y-96506174D01*
X129526173Y-96645352D01*
X129414817Y-96798620D01*
X129359486Y-96841285D01*
X129289873Y-96847264D01*
X129228078Y-96814658D01*
X129193721Y-96753819D01*
X129190499Y-96725734D01*
X129190499Y-96578482D01*
X129179047Y-96506174D01*
X129175646Y-96484696D01*
X129118050Y-96371658D01*
X129118046Y-96371654D01*
X129118045Y-96371652D01*
X129028347Y-96281954D01*
X129028344Y-96281952D01*
X129028342Y-96281950D01*
X128930444Y-96232068D01*
X128915301Y-96224352D01*
X128821524Y-96209500D01*
X127058482Y-96209500D01*
X126977519Y-96222323D01*
X126964696Y-96224354D01*
X126851658Y-96281950D01*
X126851657Y-96281951D01*
X126851652Y-96281954D01*
X126761954Y-96371652D01*
X126761951Y-96371657D01*
X126704352Y-96484698D01*
X126689500Y-96578475D01*
X115307862Y-96578475D01*
X115190798Y-96417350D01*
X115190794Y-96417345D01*
X115012654Y-96239205D01*
X115012649Y-96239201D01*
X114808848Y-96091132D01*
X114808847Y-96091131D01*
X114808845Y-96091130D01*
X114708071Y-96039783D01*
X114584383Y-95976760D01*
X114344785Y-95898910D01*
X114095962Y-95859500D01*
X113844038Y-95859500D01*
X113719626Y-95879205D01*
X113595214Y-95898910D01*
X113355616Y-95976760D01*
X113131151Y-96091132D01*
X112927350Y-96239201D01*
X112927345Y-96239205D01*
X112749205Y-96417345D01*
X112749201Y-96417350D01*
X112601132Y-96621151D01*
X112486760Y-96845616D01*
X112408910Y-97085214D01*
X112369500Y-97334038D01*
X100400500Y-97334038D01*
X100400500Y-64579054D01*
X114399498Y-64579054D01*
X114440423Y-64731785D01*
X114469358Y-64781900D01*
X114469359Y-64781904D01*
X114469360Y-64781904D01*
X114509364Y-64851195D01*
X114519479Y-64868714D01*
X114519481Y-64868717D01*
X114638349Y-64987585D01*
X114638355Y-64987590D01*
X125515139Y-75864374D01*
X125515149Y-75864385D01*
X125519479Y-75868715D01*
X125519480Y-75868716D01*
X125631284Y-75980520D01*
X125718095Y-76030639D01*
X125718097Y-76030641D01*
X125756151Y-76052611D01*
X125768215Y-76059577D01*
X125920943Y-76100500D01*
X126079057Y-76100500D01*
X183103331Y-76100500D01*
X183103347Y-76100501D01*
X183110943Y-76100501D01*
X183269054Y-76100501D01*
X183269057Y-76100501D01*
X183421785Y-76059577D01*
X183471904Y-76030639D01*
X183558716Y-75980520D01*
X183670520Y-75868716D01*
X183670520Y-75868714D01*
X183680728Y-75858507D01*
X183680730Y-75858504D01*
X189548506Y-69990728D01*
X189548511Y-69990724D01*
X189558714Y-69980520D01*
X189558716Y-69980520D01*
X189670520Y-69868716D01*
X189749577Y-69731784D01*
X189790500Y-69579057D01*
X189790500Y-51950943D01*
X189749577Y-51798216D01*
X189749573Y-51798209D01*
X189670524Y-51661290D01*
X189670521Y-51661286D01*
X189670520Y-51661284D01*
X189558716Y-51549480D01*
X189558715Y-51549479D01*
X189554385Y-51545149D01*
X189554374Y-51545139D01*
X187613768Y-49604533D01*
X187580283Y-49543210D01*
X187578976Y-49497454D01*
X187610500Y-49298422D01*
X187610500Y-49101582D01*
X187608438Y-49088563D01*
X187608438Y-49088560D01*
X187606138Y-49074038D01*
X188569500Y-49074038D01*
X188569500Y-49325961D01*
X188608910Y-49574785D01*
X188686760Y-49814383D01*
X188801132Y-50038848D01*
X188949201Y-50242649D01*
X188949205Y-50242654D01*
X189127345Y-50420794D01*
X189127350Y-50420798D01*
X189268002Y-50522987D01*
X189331155Y-50568870D01*
X189474184Y-50641747D01*
X189555616Y-50683239D01*
X189555618Y-50683239D01*
X189555621Y-50683241D01*
X189795215Y-50761090D01*
X190044038Y-50800500D01*
X190044039Y-50800500D01*
X190295961Y-50800500D01*
X190295962Y-50800500D01*
X190544785Y-50761090D01*
X190784379Y-50683241D01*
X191008845Y-50568870D01*
X191212656Y-50420793D01*
X191390793Y-50242656D01*
X191538870Y-50038845D01*
X191653241Y-49814379D01*
X191731090Y-49574785D01*
X191770500Y-49325962D01*
X191770500Y-49074038D01*
X191731090Y-48825215D01*
X191653241Y-48585621D01*
X191653239Y-48585618D01*
X191653239Y-48585616D01*
X191605764Y-48492442D01*
X191538870Y-48361155D01*
X191455330Y-48246172D01*
X191390798Y-48157350D01*
X191390794Y-48157345D01*
X191212654Y-47979205D01*
X191212649Y-47979201D01*
X191008848Y-47831132D01*
X191008847Y-47831131D01*
X191008845Y-47831130D01*
X190938747Y-47795413D01*
X190784383Y-47716760D01*
X190544785Y-47638910D01*
X190295962Y-47599500D01*
X190044038Y-47599500D01*
X189919626Y-47619205D01*
X189795214Y-47638910D01*
X189555616Y-47716760D01*
X189331151Y-47831132D01*
X189127350Y-47979201D01*
X189127345Y-47979205D01*
X188949205Y-48157345D01*
X188949201Y-48157350D01*
X188801132Y-48361151D01*
X188686760Y-48585616D01*
X188608910Y-48825214D01*
X188569500Y-49074038D01*
X187606138Y-49074038D01*
X187579709Y-48907173D01*
X187518882Y-48719970D01*
X187451265Y-48587264D01*
X187429524Y-48544595D01*
X187313828Y-48385354D01*
X187174646Y-48246172D01*
X187015405Y-48130476D01*
X186840029Y-48041117D01*
X186652826Y-47980290D01*
X186458422Y-47949500D01*
X186458417Y-47949500D01*
X186261583Y-47949500D01*
X186261578Y-47949500D01*
X186067173Y-47980290D01*
X185879970Y-48041117D01*
X185704594Y-48130476D01*
X185649815Y-48170276D01*
X185545354Y-48246172D01*
X185545352Y-48246174D01*
X185545351Y-48246174D01*
X185406174Y-48385351D01*
X185406174Y-48385352D01*
X185406172Y-48385354D01*
X185356485Y-48453741D01*
X185290476Y-48544594D01*
X185200485Y-48721213D01*
X185152511Y-48772009D01*
X185084690Y-48788804D01*
X185018555Y-48766267D01*
X184979515Y-48721213D01*
X184911725Y-48588167D01*
X184889524Y-48544595D01*
X184773828Y-48385354D01*
X184634646Y-48246172D01*
X184475405Y-48130476D01*
X184300029Y-48041117D01*
X184112826Y-47980290D01*
X183918422Y-47949500D01*
X183918417Y-47949500D01*
X183721583Y-47949500D01*
X183721578Y-47949500D01*
X183527173Y-47980290D01*
X183339970Y-48041117D01*
X183164594Y-48130476D01*
X183109815Y-48170276D01*
X183005354Y-48246172D01*
X183005352Y-48246174D01*
X183005351Y-48246174D01*
X182866174Y-48385351D01*
X182866174Y-48385352D01*
X182866172Y-48385354D01*
X182816485Y-48453741D01*
X182750476Y-48544594D01*
X182660485Y-48721213D01*
X182612511Y-48772009D01*
X182544690Y-48788804D01*
X182478555Y-48766267D01*
X182439515Y-48721213D01*
X182371725Y-48588167D01*
X182349524Y-48544595D01*
X182233828Y-48385354D01*
X182094646Y-48246172D01*
X181935405Y-48130476D01*
X181760029Y-48041117D01*
X181572826Y-47980290D01*
X181378422Y-47949500D01*
X181378417Y-47949500D01*
X181181583Y-47949500D01*
X181181578Y-47949500D01*
X180987173Y-47980290D01*
X180799970Y-48041117D01*
X180624594Y-48130476D01*
X180569815Y-48170276D01*
X180465354Y-48246172D01*
X180465352Y-48246174D01*
X180465351Y-48246174D01*
X180326174Y-48385351D01*
X180326174Y-48385352D01*
X180326172Y-48385354D01*
X180276485Y-48453741D01*
X180210476Y-48544594D01*
X180120485Y-48721213D01*
X180072511Y-48772009D01*
X180004690Y-48788804D01*
X179938555Y-48766267D01*
X179899515Y-48721213D01*
X179831725Y-48588167D01*
X179809524Y-48544595D01*
X179693828Y-48385354D01*
X179554646Y-48246172D01*
X179395405Y-48130476D01*
X179220029Y-48041117D01*
X179032826Y-47980290D01*
X178838422Y-47949500D01*
X178838417Y-47949500D01*
X178641583Y-47949500D01*
X178641578Y-47949500D01*
X178447173Y-47980290D01*
X178259970Y-48041117D01*
X178084594Y-48130476D01*
X178029815Y-48170276D01*
X177925354Y-48246172D01*
X177925352Y-48246174D01*
X177925351Y-48246174D01*
X177786174Y-48385351D01*
X177786174Y-48385352D01*
X177786172Y-48385354D01*
X177736485Y-48453741D01*
X177670476Y-48544594D01*
X177580485Y-48721213D01*
X177532511Y-48772009D01*
X177464690Y-48788804D01*
X177398555Y-48766267D01*
X177359515Y-48721213D01*
X177291725Y-48588167D01*
X177269524Y-48544595D01*
X177153828Y-48385354D01*
X177014646Y-48246172D01*
X176855405Y-48130476D01*
X176680029Y-48041117D01*
X176492826Y-47980290D01*
X176298422Y-47949500D01*
X176298417Y-47949500D01*
X176101583Y-47949500D01*
X176101578Y-47949500D01*
X175907173Y-47980290D01*
X175719970Y-48041117D01*
X175544594Y-48130476D01*
X175489815Y-48170276D01*
X175385354Y-48246172D01*
X175385352Y-48246174D01*
X175385351Y-48246174D01*
X175246174Y-48385351D01*
X175246174Y-48385352D01*
X175246172Y-48385354D01*
X175196485Y-48453741D01*
X175130476Y-48544594D01*
X175040485Y-48721213D01*
X174992511Y-48772009D01*
X174924690Y-48788804D01*
X174858555Y-48766267D01*
X174819515Y-48721213D01*
X174751725Y-48588167D01*
X174729524Y-48544595D01*
X174613828Y-48385354D01*
X174474646Y-48246172D01*
X174315405Y-48130476D01*
X174140029Y-48041117D01*
X173952826Y-47980290D01*
X173758422Y-47949500D01*
X173758417Y-47949500D01*
X173561583Y-47949500D01*
X173561578Y-47949500D01*
X173367173Y-47980290D01*
X173179970Y-48041117D01*
X173004594Y-48130476D01*
X172949815Y-48170276D01*
X172845354Y-48246172D01*
X172845352Y-48246174D01*
X172845351Y-48246174D01*
X172706174Y-48385351D01*
X172706174Y-48385352D01*
X172706172Y-48385354D01*
X172656485Y-48453741D01*
X172590476Y-48544594D01*
X172500485Y-48721213D01*
X172452511Y-48772009D01*
X172384690Y-48788804D01*
X172318555Y-48766267D01*
X172279515Y-48721213D01*
X172211725Y-48588167D01*
X172189524Y-48544595D01*
X172073828Y-48385354D01*
X171934646Y-48246172D01*
X171775405Y-48130476D01*
X171600029Y-48041117D01*
X171412826Y-47980290D01*
X171218422Y-47949500D01*
X171218417Y-47949500D01*
X171021583Y-47949500D01*
X171021578Y-47949500D01*
X170827173Y-47980290D01*
X170639970Y-48041117D01*
X170464594Y-48130476D01*
X170409815Y-48170276D01*
X170305354Y-48246172D01*
X170305352Y-48246174D01*
X170305351Y-48246174D01*
X170166173Y-48385352D01*
X170054817Y-48538620D01*
X169999486Y-48581285D01*
X169929873Y-48587264D01*
X169868078Y-48554658D01*
X169833721Y-48493819D01*
X169830499Y-48465734D01*
X169830499Y-48318482D01*
X169819047Y-48246174D01*
X169815646Y-48224696D01*
X169758050Y-48111658D01*
X169758046Y-48111654D01*
X169758045Y-48111652D01*
X169668347Y-48021954D01*
X169668344Y-48021952D01*
X169668342Y-48021950D01*
X169580043Y-47976959D01*
X169555301Y-47964352D01*
X169461524Y-47949500D01*
X167698482Y-47949500D01*
X167617519Y-47962323D01*
X167604696Y-47964354D01*
X167491658Y-48021950D01*
X167491657Y-48021951D01*
X167491652Y-48021954D01*
X167401954Y-48111652D01*
X167401951Y-48111657D01*
X167344352Y-48224698D01*
X167329500Y-48318475D01*
X167329500Y-50081517D01*
X167340292Y-50149657D01*
X167344354Y-50175304D01*
X167401950Y-50288342D01*
X167401952Y-50288344D01*
X167401954Y-50288347D01*
X167491652Y-50378045D01*
X167491654Y-50378046D01*
X167491658Y-50378050D01*
X167589553Y-50427930D01*
X167604698Y-50435647D01*
X167698475Y-50450499D01*
X167698481Y-50450500D01*
X169461518Y-50450499D01*
X169555304Y-50435646D01*
X169668342Y-50378050D01*
X169758050Y-50288342D01*
X169815646Y-50175304D01*
X169815646Y-50175302D01*
X169815647Y-50175301D01*
X169830499Y-50081524D01*
X169830500Y-50081519D01*
X169830499Y-49934263D01*
X169850183Y-49867227D01*
X169902987Y-49821472D01*
X169972145Y-49811528D01*
X170035701Y-49840553D01*
X170054817Y-49861380D01*
X170166172Y-50014646D01*
X170305354Y-50153828D01*
X170464595Y-50269524D01*
X170535314Y-50305557D01*
X170639970Y-50358882D01*
X170639972Y-50358882D01*
X170639975Y-50358884D01*
X170698962Y-50378050D01*
X170827173Y-50419709D01*
X171021578Y-50450500D01*
X171021583Y-50450500D01*
X171218422Y-50450500D01*
X171412826Y-50419709D01*
X171450435Y-50407489D01*
X171600025Y-50358884D01*
X171775405Y-50269524D01*
X171934646Y-50153828D01*
X172073828Y-50014646D01*
X172189524Y-49855405D01*
X172278884Y-49680025D01*
X172279515Y-49678787D01*
X172327489Y-49627990D01*
X172395310Y-49611195D01*
X172461445Y-49633732D01*
X172500485Y-49678787D01*
X172590474Y-49855403D01*
X172594817Y-49861380D01*
X172706172Y-50014646D01*
X172845354Y-50153828D01*
X173004595Y-50269524D01*
X173075314Y-50305557D01*
X173179970Y-50358882D01*
X173179972Y-50358882D01*
X173179975Y-50358884D01*
X173238962Y-50378050D01*
X173367173Y-50419709D01*
X173561578Y-50450500D01*
X173561583Y-50450500D01*
X173758422Y-50450500D01*
X173952826Y-50419709D01*
X173990435Y-50407489D01*
X174140025Y-50358884D01*
X174315405Y-50269524D01*
X174474646Y-50153828D01*
X174613828Y-50014646D01*
X174729524Y-49855405D01*
X174818884Y-49680025D01*
X174819515Y-49678787D01*
X174867489Y-49627990D01*
X174935310Y-49611195D01*
X175001445Y-49633732D01*
X175040485Y-49678787D01*
X175130474Y-49855403D01*
X175134817Y-49861380D01*
X175246172Y-50014646D01*
X175385354Y-50153828D01*
X175544595Y-50269524D01*
X175615314Y-50305557D01*
X175719970Y-50358882D01*
X175719972Y-50358882D01*
X175719975Y-50358884D01*
X175778962Y-50378050D01*
X175907173Y-50419709D01*
X176101578Y-50450500D01*
X176101583Y-50450500D01*
X176298417Y-50450500D01*
X176327660Y-50445868D01*
X176396951Y-50454821D01*
X176450404Y-50499816D01*
X176471046Y-50566567D01*
X176452323Y-50633881D01*
X176434740Y-50656022D01*
X171321286Y-55769478D01*
X171209481Y-55881282D01*
X171209479Y-55881285D01*
X171167438Y-55954104D01*
X171167437Y-55954105D01*
X171130423Y-56018214D01*
X171130423Y-56018215D01*
X171089499Y-56170943D01*
X171089499Y-56170945D01*
X171089499Y-56339046D01*
X171089500Y-56339059D01*
X171089500Y-59327403D01*
X171069815Y-59394442D01*
X171038386Y-59427721D01*
X170875352Y-59546173D01*
X170736174Y-59685351D01*
X170736174Y-59685352D01*
X170736172Y-59685354D01*
X170701560Y-59732993D01*
X170620476Y-59844594D01*
X170530485Y-60021213D01*
X170482511Y-60072009D01*
X170414690Y-60088804D01*
X170348555Y-60066267D01*
X170309515Y-60021213D01*
X170253679Y-59911628D01*
X170219524Y-59844595D01*
X170103828Y-59685354D01*
X169964646Y-59546172D01*
X169805405Y-59430476D01*
X169799998Y-59427721D01*
X169630029Y-59341117D01*
X169442826Y-59280290D01*
X169248422Y-59249500D01*
X169248417Y-59249500D01*
X169051583Y-59249500D01*
X169051578Y-59249500D01*
X168857173Y-59280290D01*
X168669970Y-59341117D01*
X168494594Y-59430476D01*
X168434870Y-59473869D01*
X168335354Y-59546172D01*
X168335352Y-59546174D01*
X168335351Y-59546174D01*
X168196174Y-59685351D01*
X168196174Y-59685352D01*
X168196172Y-59685354D01*
X168161560Y-59732993D01*
X168080476Y-59844594D01*
X167991117Y-60019970D01*
X167930290Y-60207173D01*
X167899500Y-60401577D01*
X167899500Y-60598422D01*
X167930290Y-60792826D01*
X167991117Y-60980029D01*
X168072627Y-61140000D01*
X168080476Y-61155405D01*
X168196172Y-61314646D01*
X168335354Y-61453828D01*
X168494595Y-61569524D01*
X168567669Y-61606757D01*
X168669970Y-61658882D01*
X168669972Y-61658882D01*
X168669975Y-61658884D01*
X168728962Y-61678050D01*
X168857173Y-61719709D01*
X169051578Y-61750500D01*
X169051583Y-61750500D01*
X169248422Y-61750500D01*
X169442826Y-61719709D01*
X169445085Y-61718975D01*
X169630025Y-61658884D01*
X169805405Y-61569524D01*
X169964646Y-61453828D01*
X170103828Y-61314646D01*
X170219524Y-61155405D01*
X170245199Y-61105014D01*
X170309515Y-60978787D01*
X170357489Y-60927990D01*
X170425310Y-60911195D01*
X170491445Y-60933732D01*
X170530485Y-60978787D01*
X170620474Y-61155403D01*
X170648969Y-61194622D01*
X170736172Y-61314646D01*
X170875354Y-61453828D01*
X171034595Y-61569524D01*
X171107669Y-61606757D01*
X171209970Y-61658882D01*
X171209972Y-61658882D01*
X171209975Y-61658884D01*
X171268962Y-61678050D01*
X171397173Y-61719709D01*
X171591578Y-61750500D01*
X171591583Y-61750500D01*
X171788422Y-61750500D01*
X171982826Y-61719709D01*
X171985085Y-61718975D01*
X172170025Y-61658884D01*
X172345405Y-61569524D01*
X172504646Y-61453828D01*
X172643828Y-61314646D01*
X172759524Y-61155405D01*
X172785199Y-61105014D01*
X172849515Y-60978787D01*
X172897489Y-60927990D01*
X172965310Y-60911195D01*
X173031445Y-60933732D01*
X173070485Y-60978787D01*
X173160474Y-61155403D01*
X173188969Y-61194622D01*
X173276172Y-61314646D01*
X173415354Y-61453828D01*
X173574595Y-61569524D01*
X173647669Y-61606757D01*
X173749970Y-61658882D01*
X173749972Y-61658882D01*
X173749975Y-61658884D01*
X173808962Y-61678050D01*
X173937173Y-61719709D01*
X174131578Y-61750500D01*
X174131583Y-61750500D01*
X174328422Y-61750500D01*
X174522826Y-61719709D01*
X174525085Y-61718975D01*
X174710025Y-61658884D01*
X174885405Y-61569524D01*
X175044646Y-61453828D01*
X175183828Y-61314646D01*
X175299524Y-61155405D01*
X175333679Y-61088370D01*
X175381652Y-61037575D01*
X175449473Y-61020779D01*
X175515608Y-61043316D01*
X175554648Y-61088370D01*
X175615373Y-61207549D01*
X175714240Y-61343626D01*
X175714241Y-61343627D01*
X176326329Y-60731538D01*
X176369901Y-60807007D01*
X176462993Y-60900099D01*
X176538460Y-60943670D01*
X175926371Y-61555758D01*
X176062445Y-61654622D01*
X176251782Y-61751095D01*
X176453870Y-61816757D01*
X176663754Y-61850000D01*
X176811401Y-61850000D01*
X176878440Y-61869685D01*
X176924195Y-61922489D01*
X176934139Y-61991647D01*
X176905114Y-62055203D01*
X176899082Y-62061681D01*
X171097584Y-67863181D01*
X171036261Y-67896666D01*
X171009903Y-67899500D01*
X160680098Y-67899500D01*
X160613059Y-67879815D01*
X160592417Y-67863181D01*
X158808716Y-66079481D01*
X157043273Y-64314038D01*
X164439500Y-64314038D01*
X164439500Y-64565962D01*
X164473702Y-64781904D01*
X164478910Y-64814785D01*
X164556760Y-65054383D01*
X164671132Y-65278848D01*
X164819201Y-65482649D01*
X164819205Y-65482654D01*
X164997345Y-65660794D01*
X164997350Y-65660798D01*
X165151111Y-65772511D01*
X165201155Y-65808870D01*
X165344184Y-65881747D01*
X165425616Y-65923239D01*
X165425618Y-65923239D01*
X165425621Y-65923241D01*
X165665215Y-66001090D01*
X165914038Y-66040500D01*
X165914039Y-66040500D01*
X166165961Y-66040500D01*
X166165962Y-66040500D01*
X166414785Y-66001090D01*
X166654379Y-65923241D01*
X166878845Y-65808870D01*
X167082656Y-65660793D01*
X167260793Y-65482656D01*
X167408870Y-65278845D01*
X167523241Y-65054379D01*
X167601090Y-64814785D01*
X167640500Y-64565962D01*
X167640500Y-64314038D01*
X167601090Y-64065215D01*
X167523241Y-63825621D01*
X167523239Y-63825618D01*
X167523239Y-63825616D01*
X167481747Y-63744184D01*
X167408870Y-63601155D01*
X167325330Y-63486172D01*
X167260798Y-63397350D01*
X167260794Y-63397345D01*
X167082654Y-63219205D01*
X167082649Y-63219201D01*
X166878848Y-63071132D01*
X166878847Y-63071131D01*
X166878845Y-63071130D01*
X166808747Y-63035413D01*
X166654383Y-62956760D01*
X166414785Y-62878910D01*
X166165962Y-62839500D01*
X165914038Y-62839500D01*
X165789626Y-62859205D01*
X165665214Y-62878910D01*
X165425616Y-62956760D01*
X165201151Y-63071132D01*
X164997350Y-63219201D01*
X164997345Y-63219205D01*
X164819205Y-63397345D01*
X164819201Y-63397350D01*
X164671132Y-63601151D01*
X164556760Y-63825616D01*
X164478910Y-64065214D01*
X164478910Y-64065215D01*
X164439500Y-64314038D01*
X157043273Y-64314038D01*
X154185257Y-61456022D01*
X154151772Y-61394699D01*
X154156756Y-61325007D01*
X154198628Y-61269074D01*
X154264092Y-61244657D01*
X154292337Y-61245867D01*
X154297476Y-61246681D01*
X154321580Y-61250500D01*
X154321583Y-61250500D01*
X154518422Y-61250500D01*
X154712826Y-61219709D01*
X154750250Y-61207549D01*
X154900025Y-61158884D01*
X155075405Y-61069524D01*
X155234646Y-60953828D01*
X155373828Y-60814646D01*
X155489524Y-60655405D01*
X155534319Y-60567489D01*
X155579515Y-60478787D01*
X155627489Y-60427990D01*
X155695310Y-60411195D01*
X155761445Y-60433732D01*
X155800485Y-60478787D01*
X155890474Y-60655403D01*
X155908557Y-60680291D01*
X156006172Y-60814646D01*
X156145354Y-60953828D01*
X156304595Y-61069524D01*
X156377669Y-61106757D01*
X156479970Y-61158882D01*
X156479972Y-61158882D01*
X156479975Y-61158884D01*
X156538962Y-61178050D01*
X156667173Y-61219709D01*
X156861578Y-61250500D01*
X156861583Y-61250500D01*
X157058422Y-61250500D01*
X157252826Y-61219709D01*
X157290250Y-61207549D01*
X157440025Y-61158884D01*
X157615405Y-61069524D01*
X157774646Y-60953828D01*
X157913828Y-60814646D01*
X158029524Y-60655405D01*
X158063679Y-60588370D01*
X158111652Y-60537575D01*
X158179473Y-60520779D01*
X158245608Y-60543316D01*
X158284648Y-60588370D01*
X158345373Y-60707549D01*
X158444240Y-60843626D01*
X158444240Y-60843627D01*
X159056329Y-60231538D01*
X159099901Y-60307007D01*
X159192993Y-60400099D01*
X159268460Y-60443670D01*
X158656371Y-61055758D01*
X158792445Y-61154622D01*
X158981782Y-61251095D01*
X159183870Y-61316757D01*
X159393754Y-61350000D01*
X159606246Y-61350000D01*
X159816127Y-61316757D01*
X159816130Y-61316757D01*
X160018217Y-61251095D01*
X160207546Y-61154626D01*
X160207552Y-61154622D01*
X160343626Y-61055758D01*
X160343627Y-61055758D01*
X159731538Y-60443670D01*
X159807007Y-60400099D01*
X159900099Y-60307007D01*
X159943670Y-60231539D01*
X160555758Y-60843627D01*
X160555758Y-60843626D01*
X160654622Y-60707552D01*
X160654626Y-60707546D01*
X160751095Y-60518217D01*
X160816757Y-60316130D01*
X160816757Y-60316127D01*
X160850000Y-60106246D01*
X160850000Y-59893753D01*
X160816757Y-59683872D01*
X160816757Y-59683869D01*
X160751095Y-59481782D01*
X160654622Y-59292445D01*
X160555758Y-59156372D01*
X160555758Y-59156371D01*
X159943670Y-59768460D01*
X159900099Y-59692993D01*
X159807007Y-59599901D01*
X159731538Y-59556329D01*
X160343627Y-58944240D01*
X160207554Y-58845377D01*
X160018217Y-58748904D01*
X159816129Y-58683242D01*
X159606246Y-58650000D01*
X159393754Y-58650000D01*
X159183871Y-58683242D01*
X159182810Y-58683587D01*
X159182384Y-58683599D01*
X159179131Y-58684380D01*
X159178966Y-58683696D01*
X159154694Y-58684388D01*
X159126855Y-58688391D01*
X159120239Y-58685369D01*
X159112969Y-58685577D01*
X159088884Y-58671051D01*
X159063299Y-58659367D01*
X159059366Y-58653247D01*
X159053139Y-58649492D01*
X159040732Y-58624253D01*
X159025524Y-58600589D01*
X159024045Y-58590307D01*
X159022316Y-58586789D01*
X159020501Y-58565654D01*
X159020501Y-58530361D01*
X159020501Y-58460942D01*
X159020500Y-58460938D01*
X159020500Y-50372596D01*
X159040185Y-50305557D01*
X159071614Y-50272278D01*
X159075403Y-50269524D01*
X159075405Y-50269524D01*
X159234646Y-50153828D01*
X159373828Y-50014646D01*
X159489524Y-49855405D01*
X159578884Y-49680025D01*
X159579515Y-49678787D01*
X159627489Y-49627990D01*
X159695310Y-49611195D01*
X159761445Y-49633732D01*
X159800485Y-49678787D01*
X159890474Y-49855403D01*
X159894817Y-49861380D01*
X160006172Y-50014646D01*
X160145354Y-50153828D01*
X160304595Y-50269524D01*
X160375314Y-50305557D01*
X160479970Y-50358882D01*
X160479972Y-50358882D01*
X160479975Y-50358884D01*
X160538962Y-50378050D01*
X160667173Y-50419709D01*
X160861578Y-50450500D01*
X160861583Y-50450500D01*
X161058422Y-50450500D01*
X161252826Y-50419709D01*
X161290435Y-50407489D01*
X161440025Y-50358884D01*
X161615405Y-50269524D01*
X161774646Y-50153828D01*
X161913828Y-50014646D01*
X162029524Y-49855405D01*
X162118884Y-49680025D01*
X162119515Y-49678787D01*
X162167489Y-49627990D01*
X162235310Y-49611195D01*
X162301445Y-49633732D01*
X162340485Y-49678787D01*
X162430474Y-49855403D01*
X162434817Y-49861380D01*
X162546172Y-50014646D01*
X162685354Y-50153828D01*
X162844595Y-50269524D01*
X162915314Y-50305557D01*
X163019970Y-50358882D01*
X163019972Y-50358882D01*
X163019975Y-50358884D01*
X163078962Y-50378050D01*
X163207173Y-50419709D01*
X163401578Y-50450500D01*
X163401583Y-50450500D01*
X163598422Y-50450500D01*
X163792826Y-50419709D01*
X163830435Y-50407489D01*
X163980025Y-50358884D01*
X164155405Y-50269524D01*
X164314646Y-50153828D01*
X164453828Y-50014646D01*
X164569524Y-49855405D01*
X164658884Y-49680025D01*
X164719709Y-49492826D01*
X164735521Y-49392993D01*
X164750500Y-49298422D01*
X164750500Y-49101577D01*
X164719709Y-48907173D01*
X164658882Y-48719970D01*
X164591265Y-48587264D01*
X164569524Y-48544595D01*
X164453828Y-48385354D01*
X164314646Y-48246172D01*
X164155405Y-48130476D01*
X163980029Y-48041117D01*
X163792826Y-47980290D01*
X163598422Y-47949500D01*
X163598417Y-47949500D01*
X163401583Y-47949500D01*
X163401578Y-47949500D01*
X163207173Y-47980290D01*
X163019970Y-48041117D01*
X162844594Y-48130476D01*
X162789815Y-48170276D01*
X162685354Y-48246172D01*
X162685352Y-48246174D01*
X162685351Y-48246174D01*
X162546174Y-48385351D01*
X162546174Y-48385352D01*
X162546172Y-48385354D01*
X162496485Y-48453741D01*
X162430476Y-48544594D01*
X162340485Y-48721213D01*
X162292511Y-48772009D01*
X162224690Y-48788804D01*
X162158555Y-48766267D01*
X162119515Y-48721213D01*
X162051725Y-48588167D01*
X162029524Y-48544595D01*
X161913828Y-48385354D01*
X161774646Y-48246172D01*
X161615405Y-48130476D01*
X161440029Y-48041117D01*
X161252826Y-47980290D01*
X161058422Y-47949500D01*
X161058417Y-47949500D01*
X160861583Y-47949500D01*
X160861578Y-47949500D01*
X160667173Y-47980290D01*
X160479970Y-48041117D01*
X160304594Y-48130476D01*
X160249815Y-48170276D01*
X160145354Y-48246172D01*
X160145352Y-48246174D01*
X160145351Y-48246174D01*
X160006174Y-48385351D01*
X160006174Y-48385352D01*
X160006172Y-48385354D01*
X159956485Y-48453741D01*
X159890476Y-48544594D01*
X159800485Y-48721213D01*
X159752511Y-48772009D01*
X159684690Y-48788804D01*
X159618555Y-48766267D01*
X159579515Y-48721213D01*
X159511725Y-48588167D01*
X159489524Y-48544595D01*
X159373828Y-48385354D01*
X159234646Y-48246172D01*
X159075405Y-48130476D01*
X158900029Y-48041117D01*
X158712826Y-47980290D01*
X158518422Y-47949500D01*
X158518417Y-47949500D01*
X158321583Y-47949500D01*
X158321578Y-47949500D01*
X158127173Y-47980290D01*
X157939970Y-48041117D01*
X157764594Y-48130476D01*
X157709815Y-48170276D01*
X157605354Y-48246172D01*
X157605352Y-48246174D01*
X157605351Y-48246174D01*
X157466174Y-48385351D01*
X157466174Y-48385352D01*
X157466172Y-48385354D01*
X157416485Y-48453741D01*
X157350476Y-48544594D01*
X157260485Y-48721213D01*
X157212511Y-48772009D01*
X157144690Y-48788804D01*
X157078555Y-48766267D01*
X157039515Y-48721213D01*
X156971725Y-48588167D01*
X156949524Y-48544595D01*
X156833828Y-48385354D01*
X156694646Y-48246172D01*
X156535405Y-48130476D01*
X156360029Y-48041117D01*
X156172826Y-47980290D01*
X155978422Y-47949500D01*
X155978417Y-47949500D01*
X155781583Y-47949500D01*
X155781578Y-47949500D01*
X155587173Y-47980290D01*
X155399970Y-48041117D01*
X155224594Y-48130476D01*
X155169815Y-48170276D01*
X155065354Y-48246172D01*
X155065352Y-48246174D01*
X155065351Y-48246174D01*
X154926174Y-48385351D01*
X154926174Y-48385352D01*
X154926172Y-48385354D01*
X154876485Y-48453741D01*
X154810476Y-48544594D01*
X154720485Y-48721213D01*
X154672511Y-48772009D01*
X154604690Y-48788804D01*
X154538555Y-48766267D01*
X154499515Y-48721213D01*
X154431725Y-48588167D01*
X154409524Y-48544595D01*
X154293828Y-48385354D01*
X154154646Y-48246172D01*
X153995405Y-48130476D01*
X153820029Y-48041117D01*
X153632826Y-47980290D01*
X153438422Y-47949500D01*
X153438417Y-47949500D01*
X153241583Y-47949500D01*
X153241578Y-47949500D01*
X153047173Y-47980290D01*
X152859970Y-48041117D01*
X152684594Y-48130476D01*
X152629815Y-48170276D01*
X152525354Y-48246172D01*
X152525352Y-48246174D01*
X152525351Y-48246174D01*
X152386174Y-48385351D01*
X152386174Y-48385352D01*
X152386172Y-48385354D01*
X152336485Y-48453741D01*
X152270476Y-48544594D01*
X152180485Y-48721213D01*
X152132511Y-48772009D01*
X152064690Y-48788804D01*
X151998555Y-48766267D01*
X151959515Y-48721213D01*
X151891725Y-48588167D01*
X151869524Y-48544595D01*
X151753828Y-48385354D01*
X151614646Y-48246172D01*
X151455405Y-48130476D01*
X151280029Y-48041117D01*
X151092826Y-47980290D01*
X150898422Y-47949500D01*
X150898417Y-47949500D01*
X150701583Y-47949500D01*
X150701578Y-47949500D01*
X150507173Y-47980290D01*
X150319970Y-48041117D01*
X150144594Y-48130476D01*
X150089815Y-48170276D01*
X149985354Y-48246172D01*
X149985352Y-48246174D01*
X149985351Y-48246174D01*
X149846174Y-48385351D01*
X149846174Y-48385352D01*
X149846172Y-48385354D01*
X149796485Y-48453741D01*
X149730476Y-48544594D01*
X149640485Y-48721213D01*
X149592511Y-48772009D01*
X149524690Y-48788804D01*
X149458555Y-48766267D01*
X149419515Y-48721213D01*
X149351725Y-48588167D01*
X149329524Y-48544595D01*
X149213828Y-48385354D01*
X149074646Y-48246172D01*
X148915405Y-48130476D01*
X148740029Y-48041117D01*
X148552826Y-47980290D01*
X148358422Y-47949500D01*
X148358417Y-47949500D01*
X148161583Y-47949500D01*
X148161578Y-47949500D01*
X147967173Y-47980290D01*
X147779970Y-48041117D01*
X147604594Y-48130476D01*
X147549815Y-48170276D01*
X147445354Y-48246172D01*
X147445352Y-48246174D01*
X147445351Y-48246174D01*
X147306173Y-48385352D01*
X147194817Y-48538620D01*
X147139486Y-48581285D01*
X147069873Y-48587264D01*
X147008078Y-48554658D01*
X146973721Y-48493819D01*
X146970499Y-48465734D01*
X146970499Y-48318482D01*
X146959047Y-48246174D01*
X146955646Y-48224696D01*
X146898050Y-48111658D01*
X146898046Y-48111654D01*
X146898045Y-48111652D01*
X146808347Y-48021954D01*
X146808344Y-48021952D01*
X146808342Y-48021950D01*
X146720043Y-47976959D01*
X146695301Y-47964352D01*
X146601524Y-47949500D01*
X144838482Y-47949500D01*
X144757519Y-47962323D01*
X144744696Y-47964354D01*
X144631658Y-48021950D01*
X144631657Y-48021951D01*
X144631652Y-48021954D01*
X144541954Y-48111652D01*
X144541951Y-48111657D01*
X144484352Y-48224698D01*
X144469500Y-48318475D01*
X144469500Y-50081517D01*
X144480292Y-50149657D01*
X144484354Y-50175304D01*
X144541950Y-50288342D01*
X144541952Y-50288344D01*
X144541954Y-50288347D01*
X144631652Y-50378045D01*
X144631654Y-50378046D01*
X144631658Y-50378050D01*
X144729553Y-50427930D01*
X144744698Y-50435647D01*
X144838475Y-50450499D01*
X144838481Y-50450500D01*
X146601518Y-50450499D01*
X146695304Y-50435646D01*
X146808342Y-50378050D01*
X146898050Y-50288342D01*
X146955646Y-50175304D01*
X146955646Y-50175302D01*
X146955647Y-50175301D01*
X146970499Y-50081524D01*
X146970500Y-50081519D01*
X146970499Y-49934263D01*
X146990183Y-49867227D01*
X147042987Y-49821472D01*
X147112145Y-49811528D01*
X147175701Y-49840553D01*
X147194817Y-49861380D01*
X147306172Y-50014646D01*
X147445354Y-50153828D01*
X147567612Y-50242654D01*
X147608386Y-50272278D01*
X147651051Y-50327608D01*
X147659500Y-50372596D01*
X147659500Y-51439903D01*
X147639815Y-51506942D01*
X147623181Y-51527584D01*
X146787584Y-52363181D01*
X146726261Y-52396666D01*
X146699903Y-52399500D01*
X134086669Y-52399500D01*
X134086653Y-52399499D01*
X134079057Y-52399499D01*
X133920943Y-52399499D01*
X133813587Y-52428265D01*
X133768210Y-52440424D01*
X133768209Y-52440425D01*
X133718096Y-52469359D01*
X133718095Y-52469360D01*
X133715357Y-52470941D01*
X133631285Y-52519479D01*
X133631282Y-52519481D01*
X133533435Y-52617329D01*
X133519480Y-52631284D01*
X133519478Y-52631286D01*
X131390736Y-54760029D01*
X129287584Y-56863181D01*
X129226261Y-56896666D01*
X129199903Y-56899500D01*
X127374499Y-56899500D01*
X127307460Y-56879815D01*
X127261705Y-56827011D01*
X127250499Y-56775500D01*
X127250499Y-56618482D01*
X127245837Y-56589046D01*
X127235646Y-56524696D01*
X127178050Y-56411658D01*
X127178048Y-56411656D01*
X127178045Y-56411652D01*
X127088347Y-56321954D01*
X127088344Y-56321952D01*
X127088342Y-56321950D01*
X127011517Y-56282805D01*
X126975301Y-56264352D01*
X126881524Y-56249500D01*
X125118482Y-56249500D01*
X125037519Y-56262323D01*
X125024696Y-56264354D01*
X124911658Y-56321950D01*
X124911657Y-56321951D01*
X124911652Y-56321954D01*
X124821954Y-56411652D01*
X124821952Y-56411656D01*
X124821950Y-56411658D01*
X124796088Y-56462415D01*
X124764352Y-56524698D01*
X124749500Y-56618475D01*
X124749500Y-58381517D01*
X124756870Y-58428048D01*
X124764354Y-58475304D01*
X124821950Y-58588342D01*
X124821952Y-58588344D01*
X124821954Y-58588347D01*
X124911652Y-58678045D01*
X124911654Y-58678046D01*
X124911658Y-58678050D01*
X125000313Y-58723222D01*
X125024698Y-58735647D01*
X125118047Y-58750432D01*
X125181182Y-58780361D01*
X125218113Y-58839673D01*
X125217115Y-58909535D01*
X125178505Y-58967768D01*
X125171534Y-58973223D01*
X125156372Y-58984238D01*
X125156371Y-58984240D01*
X125768461Y-59596329D01*
X125692993Y-59639901D01*
X125599901Y-59732993D01*
X125556329Y-59808460D01*
X124944240Y-59196371D01*
X124944239Y-59196372D01*
X124845379Y-59332442D01*
X124748904Y-59521782D01*
X124683242Y-59723869D01*
X124683242Y-59723872D01*
X124650000Y-59933753D01*
X124650000Y-60146246D01*
X124683242Y-60356127D01*
X124683242Y-60356130D01*
X124748904Y-60558217D01*
X124845377Y-60747554D01*
X124944240Y-60883626D01*
X124944241Y-60883627D01*
X125556329Y-60271538D01*
X125599901Y-60347007D01*
X125692993Y-60440099D01*
X125768460Y-60483670D01*
X125156371Y-61095758D01*
X125292445Y-61194622D01*
X125481782Y-61291095D01*
X125683870Y-61356757D01*
X125893754Y-61390000D01*
X126106246Y-61390000D01*
X126316127Y-61356757D01*
X126316130Y-61356757D01*
X126518217Y-61291095D01*
X126707549Y-61194625D01*
X126843626Y-61095758D01*
X126843627Y-61095758D01*
X126231538Y-60483670D01*
X126307007Y-60440099D01*
X126400099Y-60347007D01*
X126443670Y-60271539D01*
X127055758Y-60883627D01*
X127055758Y-60883626D01*
X127154622Y-60747552D01*
X127154626Y-60747546D01*
X127157350Y-60742202D01*
X127157350Y-60742201D01*
X127251095Y-60558217D01*
X127316757Y-60356130D01*
X127316757Y-60356127D01*
X127350000Y-60146246D01*
X127350000Y-59933753D01*
X127316757Y-59723872D01*
X127316758Y-59723872D01*
X127314589Y-59717197D01*
X127314588Y-59717195D01*
X127251095Y-59521782D01*
X127154622Y-59332445D01*
X127055758Y-59196372D01*
X127055758Y-59196371D01*
X126443670Y-59808460D01*
X126400099Y-59732993D01*
X126307007Y-59639901D01*
X126231539Y-59596329D01*
X126843627Y-58984241D01*
X126843626Y-58984239D01*
X126828462Y-58973222D01*
X126785796Y-58917892D01*
X126779817Y-58848279D01*
X126812423Y-58786484D01*
X126873261Y-58752127D01*
X126881939Y-58750432D01*
X126975304Y-58735646D01*
X127088342Y-58678050D01*
X127178050Y-58588342D01*
X127235646Y-58475304D01*
X127235646Y-58475302D01*
X127235647Y-58475301D01*
X127250500Y-58381524D01*
X127250500Y-58224500D01*
X127270185Y-58157461D01*
X127322989Y-58111706D01*
X127374500Y-58100500D01*
X129413331Y-58100500D01*
X129413347Y-58100501D01*
X129420943Y-58100501D01*
X129579054Y-58100501D01*
X129579057Y-58100501D01*
X129731785Y-58059577D01*
X129781904Y-58030639D01*
X129868716Y-57980520D01*
X129980520Y-57868716D01*
X129980520Y-57868714D01*
X129990728Y-57858507D01*
X129990729Y-57858504D01*
X134212416Y-53636819D01*
X134273739Y-53603334D01*
X134300097Y-53600500D01*
X146913331Y-53600500D01*
X146913347Y-53600501D01*
X146920943Y-53600501D01*
X147079054Y-53600501D01*
X147079057Y-53600501D01*
X147231785Y-53559577D01*
X147266455Y-53539558D01*
X147334353Y-53523083D01*
X147400381Y-53545932D01*
X147443574Y-53600851D01*
X147450219Y-53670404D01*
X147418206Y-53732508D01*
X147416143Y-53734621D01*
X147287582Y-53863182D01*
X147226262Y-53896666D01*
X147199903Y-53899500D01*
X143079057Y-53899500D01*
X142920942Y-53899500D01*
X142768215Y-53940423D01*
X142768214Y-53940423D01*
X142768212Y-53940424D01*
X142768209Y-53940425D01*
X142718096Y-53969359D01*
X142718095Y-53969360D01*
X142687242Y-53987173D01*
X142631285Y-54019479D01*
X142631282Y-54019481D01*
X142519478Y-54131286D01*
X140037584Y-56613181D01*
X139976261Y-56646666D01*
X139949903Y-56649500D01*
X136399499Y-56649500D01*
X136332460Y-56629815D01*
X136286705Y-56577011D01*
X136275499Y-56525500D01*
X136275499Y-56368482D01*
X136274007Y-56359059D01*
X136260646Y-56274696D01*
X136203050Y-56161658D01*
X136203046Y-56161654D01*
X136203045Y-56161652D01*
X136113347Y-56071954D01*
X136113344Y-56071952D01*
X136113342Y-56071950D01*
X136028477Y-56028709D01*
X136000301Y-56014352D01*
X135906524Y-55999500D01*
X134143482Y-55999500D01*
X134062519Y-56012323D01*
X134049696Y-56014354D01*
X133936658Y-56071950D01*
X133936657Y-56071951D01*
X133936652Y-56071954D01*
X133846954Y-56161652D01*
X133846951Y-56161657D01*
X133846950Y-56161658D01*
X133832028Y-56190944D01*
X133789352Y-56274698D01*
X133774500Y-56368475D01*
X133774500Y-58131517D01*
X133785292Y-58199657D01*
X133789354Y-58225304D01*
X133846950Y-58338342D01*
X133846952Y-58338344D01*
X133846954Y-58338347D01*
X133936652Y-58428045D01*
X133936654Y-58428046D01*
X133936658Y-58428050D01*
X134027821Y-58474500D01*
X134049698Y-58485647D01*
X134143047Y-58500432D01*
X134206182Y-58530361D01*
X134243113Y-58589673D01*
X134242115Y-58659535D01*
X134203505Y-58717768D01*
X134196534Y-58723223D01*
X134181372Y-58734238D01*
X134181371Y-58734240D01*
X134793461Y-59346329D01*
X134717993Y-59389901D01*
X134624901Y-59482993D01*
X134581329Y-59558460D01*
X133969240Y-58946371D01*
X133969239Y-58946372D01*
X133870379Y-59082442D01*
X133773904Y-59271782D01*
X133708242Y-59473869D01*
X133708242Y-59473872D01*
X133675000Y-59683753D01*
X133675000Y-59896246D01*
X133708242Y-60106127D01*
X133708242Y-60106130D01*
X133773904Y-60308217D01*
X133870377Y-60497554D01*
X133969240Y-60633626D01*
X133969241Y-60633627D01*
X134581329Y-60021538D01*
X134624901Y-60097007D01*
X134717993Y-60190099D01*
X134793460Y-60233670D01*
X134181371Y-60845758D01*
X134317445Y-60944622D01*
X134506782Y-61041095D01*
X134708870Y-61106757D01*
X134918754Y-61140000D01*
X135131246Y-61140000D01*
X135341127Y-61106757D01*
X135341130Y-61106757D01*
X135543217Y-61041095D01*
X135732546Y-60944626D01*
X135732552Y-60944622D01*
X135868626Y-60845758D01*
X135868627Y-60845758D01*
X135256538Y-60233670D01*
X135332007Y-60190099D01*
X135425099Y-60097007D01*
X135468670Y-60021539D01*
X136080758Y-60633627D01*
X136080758Y-60633626D01*
X136179622Y-60497552D01*
X136179626Y-60497546D01*
X136276095Y-60308217D01*
X136330569Y-60140563D01*
X136330569Y-60140562D01*
X136341758Y-60106126D01*
X136375000Y-59896246D01*
X136375000Y-59683753D01*
X136341757Y-59473872D01*
X136341757Y-59473869D01*
X136276095Y-59271782D01*
X136179622Y-59082445D01*
X136080758Y-58946372D01*
X136080758Y-58946371D01*
X135468670Y-59558460D01*
X135425099Y-59482993D01*
X135332007Y-59389901D01*
X135256539Y-59346329D01*
X135868627Y-58734241D01*
X135868626Y-58734239D01*
X135853462Y-58723222D01*
X135810796Y-58667892D01*
X135804817Y-58598279D01*
X135837423Y-58536484D01*
X135898261Y-58502127D01*
X135906939Y-58500432D01*
X136000304Y-58485646D01*
X136113342Y-58428050D01*
X136203050Y-58338342D01*
X136260646Y-58225304D01*
X136260646Y-58225302D01*
X136260647Y-58225301D01*
X136275500Y-58131524D01*
X136275500Y-57974500D01*
X136295185Y-57907461D01*
X136347989Y-57861706D01*
X136399500Y-57850500D01*
X140163331Y-57850500D01*
X140163347Y-57850501D01*
X140170943Y-57850501D01*
X140329054Y-57850501D01*
X140329057Y-57850501D01*
X140481785Y-57809577D01*
X140531904Y-57780639D01*
X140618716Y-57730520D01*
X140730520Y-57618716D01*
X140730520Y-57618714D01*
X140740728Y-57608507D01*
X140740729Y-57608504D01*
X143212416Y-55136819D01*
X143273739Y-55103334D01*
X143300097Y-55100500D01*
X147413331Y-55100500D01*
X147413347Y-55100501D01*
X147420943Y-55100501D01*
X147579054Y-55100501D01*
X147579057Y-55100501D01*
X147731785Y-55059577D01*
X147781904Y-55030639D01*
X147868716Y-54980520D01*
X147980520Y-54868716D01*
X147980520Y-54868714D01*
X147990728Y-54858507D01*
X147990729Y-54858504D01*
X151280520Y-51568716D01*
X151359577Y-51431784D01*
X151400501Y-51279057D01*
X151400501Y-51120942D01*
X151400501Y-51113347D01*
X151400500Y-51113329D01*
X151400500Y-50372596D01*
X151420185Y-50305557D01*
X151451614Y-50272278D01*
X151455403Y-50269524D01*
X151455405Y-50269524D01*
X151614646Y-50153828D01*
X151753828Y-50014646D01*
X151869524Y-49855405D01*
X151958884Y-49680025D01*
X151959515Y-49678787D01*
X152007489Y-49627990D01*
X152075310Y-49611195D01*
X152141445Y-49633732D01*
X152180485Y-49678787D01*
X152270474Y-49855403D01*
X152274817Y-49861380D01*
X152386172Y-50014646D01*
X152525354Y-50153828D01*
X152647612Y-50242654D01*
X152688386Y-50272278D01*
X152731051Y-50327608D01*
X152739500Y-50372596D01*
X152739500Y-55359903D01*
X152719815Y-55426942D01*
X152703181Y-55447584D01*
X151037584Y-57113181D01*
X150976261Y-57146666D01*
X150949903Y-57149500D01*
X144899499Y-57149500D01*
X144832460Y-57129815D01*
X144786705Y-57077011D01*
X144775499Y-57025500D01*
X144775499Y-56868482D01*
X144768931Y-56827011D01*
X144760646Y-56774696D01*
X144703050Y-56661658D01*
X144703046Y-56661654D01*
X144703045Y-56661652D01*
X144613347Y-56571954D01*
X144613344Y-56571952D01*
X144613342Y-56571950D01*
X144523019Y-56525928D01*
X144500301Y-56514352D01*
X144406524Y-56499500D01*
X142643482Y-56499500D01*
X142562519Y-56512323D01*
X142549696Y-56514354D01*
X142436658Y-56571950D01*
X142436657Y-56571951D01*
X142436652Y-56571954D01*
X142346954Y-56661652D01*
X142346951Y-56661657D01*
X142289352Y-56774698D01*
X142274500Y-56868475D01*
X142274500Y-58631517D01*
X142282747Y-58683587D01*
X142289354Y-58725304D01*
X142346950Y-58838342D01*
X142346952Y-58838344D01*
X142346954Y-58838347D01*
X142436652Y-58928045D01*
X142436654Y-58928046D01*
X142436658Y-58928050D01*
X142525313Y-58973222D01*
X142549698Y-58985647D01*
X142643047Y-59000432D01*
X142706182Y-59030361D01*
X142743113Y-59089673D01*
X142742115Y-59159535D01*
X142703505Y-59217768D01*
X142696534Y-59223223D01*
X142681372Y-59234238D01*
X142681371Y-59234240D01*
X143293461Y-59846329D01*
X143217993Y-59889901D01*
X143124901Y-59982993D01*
X143081329Y-60058460D01*
X142469240Y-59446371D01*
X142469239Y-59446372D01*
X142370379Y-59582442D01*
X142273904Y-59771782D01*
X142208242Y-59973869D01*
X142208242Y-59973872D01*
X142175000Y-60183753D01*
X142175000Y-60396246D01*
X142208242Y-60606127D01*
X142208242Y-60606130D01*
X142273904Y-60808217D01*
X142370377Y-60997554D01*
X142469240Y-61133626D01*
X142469241Y-61133627D01*
X143081329Y-60521538D01*
X143124901Y-60597007D01*
X143217993Y-60690099D01*
X143293460Y-60733670D01*
X142681371Y-61345758D01*
X142817445Y-61444622D01*
X143006782Y-61541095D01*
X143208870Y-61606757D01*
X143418754Y-61640000D01*
X143631246Y-61640000D01*
X143841127Y-61606757D01*
X143841130Y-61606757D01*
X144043217Y-61541095D01*
X144232546Y-61444626D01*
X144232552Y-61444622D01*
X144368626Y-61345758D01*
X144368627Y-61345758D01*
X143756538Y-60733670D01*
X143832007Y-60690099D01*
X143925099Y-60597007D01*
X143968670Y-60521539D01*
X144580758Y-61133627D01*
X144580758Y-61133626D01*
X144679622Y-60997552D01*
X144679626Y-60997546D01*
X144776095Y-60808217D01*
X144841757Y-60606130D01*
X144841757Y-60606127D01*
X144875000Y-60396246D01*
X144875000Y-60183753D01*
X144841757Y-59973872D01*
X144841757Y-59973869D01*
X144776095Y-59771782D01*
X144679622Y-59582445D01*
X144580758Y-59446372D01*
X144580758Y-59446371D01*
X143968670Y-60058460D01*
X143925099Y-59982993D01*
X143832007Y-59889901D01*
X143756539Y-59846329D01*
X144368627Y-59234241D01*
X144368626Y-59234239D01*
X144353462Y-59223222D01*
X144310796Y-59167892D01*
X144304817Y-59098279D01*
X144337423Y-59036484D01*
X144398261Y-59002127D01*
X144406939Y-59000432D01*
X144500304Y-58985646D01*
X144613342Y-58928050D01*
X144703050Y-58838342D01*
X144760646Y-58725304D01*
X144760646Y-58725302D01*
X144760647Y-58725301D01*
X144775500Y-58631524D01*
X144775500Y-58474500D01*
X144795185Y-58407461D01*
X144847989Y-58361706D01*
X144899500Y-58350500D01*
X151163331Y-58350500D01*
X151163347Y-58350501D01*
X151170943Y-58350501D01*
X151329054Y-58350501D01*
X151329057Y-58350501D01*
X151481785Y-58309577D01*
X151531904Y-58280639D01*
X151618716Y-58230520D01*
X151730520Y-58118716D01*
X151730520Y-58118714D01*
X151740728Y-58108507D01*
X151740730Y-58108504D01*
X153698506Y-56150728D01*
X153698511Y-56150724D01*
X153708714Y-56140520D01*
X153708716Y-56140520D01*
X153820520Y-56028716D01*
X153899577Y-55891784D01*
X153940500Y-55739057D01*
X153940500Y-50372596D01*
X153960185Y-50305557D01*
X153991614Y-50272278D01*
X153995403Y-50269524D01*
X153995405Y-50269524D01*
X154154646Y-50153828D01*
X154293828Y-50014646D01*
X154409524Y-49855405D01*
X154498884Y-49680025D01*
X154499515Y-49678787D01*
X154547489Y-49627990D01*
X154615310Y-49611195D01*
X154681445Y-49633732D01*
X154720485Y-49678787D01*
X154810474Y-49855403D01*
X154814817Y-49861380D01*
X154926172Y-50014646D01*
X155065354Y-50153828D01*
X155187612Y-50242654D01*
X155228386Y-50272278D01*
X155271051Y-50327608D01*
X155279500Y-50372596D01*
X155279500Y-58239902D01*
X155259815Y-58306941D01*
X155243181Y-58327583D01*
X154824532Y-58746231D01*
X154763209Y-58779716D01*
X154717453Y-58781023D01*
X154518422Y-58749500D01*
X154518417Y-58749500D01*
X154321583Y-58749500D01*
X154321578Y-58749500D01*
X154127173Y-58780290D01*
X153939970Y-58841117D01*
X153764594Y-58930476D01*
X153690594Y-58984241D01*
X153605354Y-59046172D01*
X153605352Y-59046174D01*
X153605351Y-59046174D01*
X153466173Y-59185352D01*
X153354817Y-59338620D01*
X153299486Y-59381285D01*
X153229873Y-59387264D01*
X153168078Y-59354658D01*
X153133721Y-59293819D01*
X153130499Y-59265734D01*
X153130499Y-59118482D01*
X153125936Y-59089673D01*
X153115646Y-59024696D01*
X153058050Y-58911658D01*
X153058046Y-58911654D01*
X153058045Y-58911652D01*
X152968347Y-58821954D01*
X152968344Y-58821952D01*
X152968342Y-58821950D01*
X152886580Y-58780290D01*
X152855301Y-58764352D01*
X152761524Y-58749500D01*
X150998482Y-58749500D01*
X150917519Y-58762323D01*
X150904696Y-58764354D01*
X150791658Y-58821950D01*
X150791657Y-58821951D01*
X150791652Y-58821954D01*
X150701954Y-58911652D01*
X150701951Y-58911657D01*
X150701950Y-58911658D01*
X150693599Y-58928048D01*
X150644352Y-59024698D01*
X150629500Y-59118475D01*
X150629500Y-60881517D01*
X150634201Y-60911195D01*
X150644354Y-60975304D01*
X150701950Y-61088342D01*
X150701952Y-61088344D01*
X150701954Y-61088347D01*
X150791652Y-61178045D01*
X150791654Y-61178046D01*
X150791658Y-61178050D01*
X150901984Y-61234264D01*
X150904698Y-61235647D01*
X150998475Y-61250499D01*
X150998481Y-61250500D01*
X152229902Y-61250499D01*
X152296941Y-61270184D01*
X152317583Y-61286818D01*
X157959481Y-66928716D01*
X159443084Y-68412320D01*
X159476568Y-68473641D01*
X159471584Y-68543333D01*
X159443083Y-68587680D01*
X157667583Y-70363181D01*
X157606260Y-70396666D01*
X157579902Y-70399500D01*
X157413389Y-70399500D01*
X157374844Y-70405605D01*
X157242302Y-70426597D01*
X157077552Y-70480128D01*
X156923211Y-70558768D01*
X156843256Y-70616859D01*
X156783072Y-70660586D01*
X156783070Y-70660588D01*
X156783069Y-70660588D01*
X156660588Y-70783069D01*
X156660588Y-70783070D01*
X156660586Y-70783072D01*
X156651695Y-70795310D01*
X156558768Y-70923211D01*
X156480128Y-71077552D01*
X156426597Y-71242302D01*
X156426114Y-71245352D01*
X156399500Y-71413389D01*
X156399500Y-71586611D01*
X156426598Y-71757701D01*
X156480127Y-71922445D01*
X156558768Y-72076788D01*
X156660586Y-72216928D01*
X156783072Y-72339414D01*
X156923212Y-72441232D01*
X157077555Y-72519873D01*
X157242299Y-72573402D01*
X157413389Y-72600500D01*
X157413390Y-72600500D01*
X157586610Y-72600500D01*
X157586611Y-72600500D01*
X157757701Y-72573402D01*
X157922445Y-72519873D01*
X158076788Y-72441232D01*
X158216928Y-72339414D01*
X158339414Y-72216928D01*
X158441232Y-72076788D01*
X158519873Y-71922445D01*
X158573402Y-71757701D01*
X158600500Y-71586611D01*
X158600500Y-71413389D01*
X158573402Y-71242299D01*
X158573394Y-71242277D01*
X158572875Y-71240110D01*
X158572918Y-71239243D01*
X158572640Y-71237487D01*
X158573008Y-71237428D01*
X158576358Y-71170327D01*
X158605763Y-71123470D01*
X160592416Y-69136819D01*
X160653739Y-69103334D01*
X160680097Y-69100500D01*
X171223331Y-69100500D01*
X171223347Y-69100501D01*
X171230943Y-69100501D01*
X171389054Y-69100501D01*
X171389057Y-69100501D01*
X171541785Y-69059577D01*
X171611233Y-69019481D01*
X171678716Y-68980520D01*
X171790520Y-68868716D01*
X171790520Y-68868714D01*
X171800724Y-68858511D01*
X171800728Y-68858506D01*
X178905468Y-61753765D01*
X178966789Y-61720282D01*
X179012546Y-61718975D01*
X179017168Y-61719707D01*
X179017174Y-61719709D01*
X179134642Y-61738313D01*
X179211579Y-61750500D01*
X179211583Y-61750500D01*
X179408422Y-61750500D01*
X179602826Y-61719709D01*
X179605085Y-61718975D01*
X179790025Y-61658884D01*
X179965405Y-61569524D01*
X180124646Y-61453828D01*
X180263828Y-61314646D01*
X180375184Y-61161378D01*
X180430512Y-61118714D01*
X180500125Y-61112735D01*
X180561920Y-61145341D01*
X180596277Y-61206179D01*
X180599500Y-61234264D01*
X180599500Y-61381517D01*
X180609495Y-61444622D01*
X180614354Y-61475304D01*
X180671950Y-61588342D01*
X180671952Y-61588344D01*
X180671954Y-61588347D01*
X180761652Y-61678045D01*
X180761654Y-61678046D01*
X180761658Y-61678050D01*
X180844543Y-61720282D01*
X180874698Y-61735647D01*
X180968475Y-61750499D01*
X180968481Y-61750500D01*
X182731518Y-61750499D01*
X182825304Y-61735646D01*
X182938342Y-61678050D01*
X183028050Y-61588342D01*
X183085646Y-61475304D01*
X183085646Y-61475302D01*
X183085647Y-61475301D01*
X183096282Y-61408147D01*
X183100500Y-61381519D01*
X183100499Y-59618482D01*
X183085646Y-59524696D01*
X183028050Y-59411658D01*
X183028046Y-59411654D01*
X183028045Y-59411652D01*
X182938347Y-59321954D01*
X182938344Y-59321952D01*
X182938342Y-59321950D01*
X182856580Y-59280290D01*
X182825301Y-59264352D01*
X182731524Y-59249500D01*
X180968482Y-59249500D01*
X180892193Y-59261583D01*
X180874696Y-59264354D01*
X180761658Y-59321950D01*
X180761657Y-59321951D01*
X180761652Y-59321954D01*
X180671954Y-59411652D01*
X180671951Y-59411657D01*
X180671950Y-59411658D01*
X180662362Y-59430476D01*
X180614352Y-59524698D01*
X180599500Y-59618475D01*
X180599500Y-59765733D01*
X180579815Y-59832772D01*
X180527011Y-59878527D01*
X180457853Y-59888471D01*
X180394297Y-59859446D01*
X180375182Y-59838619D01*
X180370934Y-59832772D01*
X180263828Y-59685354D01*
X180124646Y-59546172D01*
X179965405Y-59430476D01*
X179959998Y-59427721D01*
X179790029Y-59341117D01*
X179602826Y-59280290D01*
X179408422Y-59249500D01*
X179408417Y-59249500D01*
X179211583Y-59249500D01*
X179211578Y-59249500D01*
X179017173Y-59280290D01*
X178829970Y-59341117D01*
X178654594Y-59430476D01*
X178594870Y-59473869D01*
X178495354Y-59546172D01*
X178495352Y-59546174D01*
X178495351Y-59546174D01*
X178356174Y-59685351D01*
X178356174Y-59685352D01*
X178356172Y-59685354D01*
X178321560Y-59732993D01*
X178240474Y-59844597D01*
X178206319Y-59911630D01*
X178158345Y-59962425D01*
X178090524Y-59979220D01*
X178024389Y-59956682D01*
X177985350Y-59911629D01*
X177924622Y-59792445D01*
X177825758Y-59656372D01*
X177825758Y-59656371D01*
X177213670Y-60268460D01*
X177170099Y-60192993D01*
X177077007Y-60099901D01*
X177001539Y-60056329D01*
X177613627Y-59444241D01*
X177613626Y-59444240D01*
X177477554Y-59345377D01*
X177288217Y-59248904D01*
X177086129Y-59183242D01*
X176876246Y-59150000D01*
X176663754Y-59150000D01*
X176453872Y-59183242D01*
X176453869Y-59183242D01*
X176251782Y-59248904D01*
X176062442Y-59345379D01*
X175926372Y-59444239D01*
X175926371Y-59444240D01*
X176538461Y-60056329D01*
X176462993Y-60099901D01*
X176369901Y-60192993D01*
X176326329Y-60268460D01*
X175714240Y-59656371D01*
X175714239Y-59656372D01*
X175615377Y-59792444D01*
X175554648Y-59911630D01*
X175506674Y-59962425D01*
X175438852Y-59979220D01*
X175372718Y-59956682D01*
X175333679Y-59911628D01*
X175299525Y-59844596D01*
X175280177Y-59817966D01*
X175183828Y-59685354D01*
X175044646Y-59546172D01*
X174957688Y-59482993D01*
X174881614Y-59427721D01*
X174838949Y-59372390D01*
X174830500Y-59327403D01*
X174830500Y-56570096D01*
X174850185Y-56503057D01*
X174866814Y-56482419D01*
X175868713Y-55480521D01*
X175868716Y-55480520D01*
X175980520Y-55368716D01*
X176006006Y-55324569D01*
X176014412Y-55315120D01*
X176016193Y-55314007D01*
X176019381Y-55309852D01*
X180875468Y-50453765D01*
X180936789Y-50420282D01*
X180982546Y-50418975D01*
X180987168Y-50419707D01*
X180987174Y-50419709D01*
X181104642Y-50438313D01*
X181181579Y-50450500D01*
X181181583Y-50450500D01*
X181378422Y-50450500D01*
X181572826Y-50419709D01*
X181610435Y-50407489D01*
X181760025Y-50358884D01*
X181935405Y-50269524D01*
X182094646Y-50153828D01*
X182233828Y-50014646D01*
X182349524Y-49855405D01*
X182438884Y-49680025D01*
X182439515Y-49678787D01*
X182487489Y-49627990D01*
X182555310Y-49611195D01*
X182621445Y-49633732D01*
X182660485Y-49678787D01*
X182750474Y-49855403D01*
X182754817Y-49861380D01*
X182866172Y-50014646D01*
X183005354Y-50153828D01*
X183164595Y-50269524D01*
X183235314Y-50305557D01*
X183339970Y-50358882D01*
X183339972Y-50358882D01*
X183339975Y-50358884D01*
X183398962Y-50378050D01*
X183527173Y-50419709D01*
X183721578Y-50450500D01*
X183721583Y-50450500D01*
X183918422Y-50450500D01*
X184117454Y-50418976D01*
X184186747Y-50427930D01*
X184224533Y-50453768D01*
X184863181Y-51092416D01*
X184896666Y-51153739D01*
X184899500Y-51180097D01*
X184899500Y-66199902D01*
X184879815Y-66266941D01*
X184863181Y-66287583D01*
X177787584Y-73363181D01*
X177726261Y-73396666D01*
X177699903Y-73399500D01*
X127300097Y-73399500D01*
X127233058Y-73379815D01*
X127212416Y-73363181D01*
X119636819Y-65787584D01*
X119603334Y-65726261D01*
X119600500Y-65699903D01*
X119600500Y-56800096D01*
X119620185Y-56733057D01*
X119636814Y-56712420D01*
X121694506Y-54654727D01*
X121694511Y-54654724D01*
X121704714Y-54644520D01*
X121704716Y-54644520D01*
X121816520Y-54532716D01*
X121893432Y-54399500D01*
X121895577Y-54395785D01*
X121936501Y-54243057D01*
X121936501Y-54084943D01*
X121936501Y-54077348D01*
X121936500Y-54077330D01*
X121936500Y-50372596D01*
X121956185Y-50305557D01*
X121987614Y-50272278D01*
X121991403Y-50269524D01*
X121991405Y-50269524D01*
X122150646Y-50153828D01*
X122289828Y-50014646D01*
X122405524Y-49855405D01*
X122494884Y-49680025D01*
X122495515Y-49678787D01*
X122543489Y-49627990D01*
X122611310Y-49611195D01*
X122677445Y-49633732D01*
X122716485Y-49678787D01*
X122806474Y-49855403D01*
X122810817Y-49861380D01*
X122922172Y-50014646D01*
X123061354Y-50153828D01*
X123220595Y-50269524D01*
X123291314Y-50305557D01*
X123395970Y-50358882D01*
X123395972Y-50358882D01*
X123395975Y-50358884D01*
X123454962Y-50378050D01*
X123583173Y-50419709D01*
X123777578Y-50450500D01*
X123777583Y-50450500D01*
X123974422Y-50450500D01*
X124168826Y-50419709D01*
X124206435Y-50407489D01*
X124356025Y-50358884D01*
X124531405Y-50269524D01*
X124690646Y-50153828D01*
X124829828Y-50014646D01*
X124945524Y-49855405D01*
X124979679Y-49788370D01*
X125027652Y-49737575D01*
X125095473Y-49720779D01*
X125161608Y-49743316D01*
X125200648Y-49788370D01*
X125261375Y-49907552D01*
X125261376Y-49907553D01*
X125386272Y-50079459D01*
X125386276Y-50079464D01*
X125536535Y-50229723D01*
X125536540Y-50229727D01*
X125708442Y-50354620D01*
X125897782Y-50451095D01*
X126099872Y-50516757D01*
X126266000Y-50543070D01*
X126266000Y-49677445D01*
X126350174Y-49700000D01*
X126481826Y-49700000D01*
X126566000Y-49677445D01*
X126566000Y-50543069D01*
X126732127Y-50516757D01*
X126934217Y-50451095D01*
X127123557Y-50354620D01*
X127295459Y-50229727D01*
X127295464Y-50229723D01*
X127445723Y-50079464D01*
X127445727Y-50079459D01*
X127570620Y-49907557D01*
X127631350Y-49788370D01*
X127679324Y-49737574D01*
X127747145Y-49720779D01*
X127813280Y-49743316D01*
X127852320Y-49788370D01*
X127886476Y-49855405D01*
X128002172Y-50014646D01*
X128141354Y-50153828D01*
X128300595Y-50269524D01*
X128371314Y-50305557D01*
X128475970Y-50358882D01*
X128475972Y-50358882D01*
X128475975Y-50358884D01*
X128534962Y-50378050D01*
X128663173Y-50419709D01*
X128857578Y-50450500D01*
X128857583Y-50450500D01*
X129054422Y-50450500D01*
X129248826Y-50419709D01*
X129286435Y-50407489D01*
X129436025Y-50358884D01*
X129611405Y-50269524D01*
X129770646Y-50153828D01*
X129909828Y-50014646D01*
X130025524Y-49855405D01*
X130114884Y-49680025D01*
X130115515Y-49678787D01*
X130163489Y-49627990D01*
X130231310Y-49611195D01*
X130297445Y-49633732D01*
X130336485Y-49678787D01*
X130426474Y-49855403D01*
X130430817Y-49861380D01*
X130542172Y-50014646D01*
X130681354Y-50153828D01*
X130840595Y-50269524D01*
X130911314Y-50305557D01*
X131015970Y-50358882D01*
X131015972Y-50358882D01*
X131015975Y-50358884D01*
X131074962Y-50378050D01*
X131203173Y-50419709D01*
X131397578Y-50450500D01*
X131397583Y-50450500D01*
X131594422Y-50450500D01*
X131788826Y-50419709D01*
X131826435Y-50407489D01*
X131976025Y-50358884D01*
X132151405Y-50269524D01*
X132310646Y-50153828D01*
X132449828Y-50014646D01*
X132565524Y-49855405D01*
X132654884Y-49680025D01*
X132655515Y-49678787D01*
X132703489Y-49627990D01*
X132771310Y-49611195D01*
X132837445Y-49633732D01*
X132876485Y-49678787D01*
X132966474Y-49855403D01*
X132970817Y-49861380D01*
X133082172Y-50014646D01*
X133221354Y-50153828D01*
X133380595Y-50269524D01*
X133451314Y-50305557D01*
X133555970Y-50358882D01*
X133555972Y-50358882D01*
X133555975Y-50358884D01*
X133614962Y-50378050D01*
X133743173Y-50419709D01*
X133937578Y-50450500D01*
X133937583Y-50450500D01*
X134134422Y-50450500D01*
X134328826Y-50419709D01*
X134366435Y-50407489D01*
X134516025Y-50358884D01*
X134691405Y-50269524D01*
X134850646Y-50153828D01*
X134989828Y-50014646D01*
X135105524Y-49855405D01*
X135194884Y-49680025D01*
X135195515Y-49678787D01*
X135243489Y-49627990D01*
X135311310Y-49611195D01*
X135377445Y-49633732D01*
X135416485Y-49678787D01*
X135506474Y-49855403D01*
X135510817Y-49861380D01*
X135622172Y-50014646D01*
X135761354Y-50153828D01*
X135920595Y-50269524D01*
X135991314Y-50305557D01*
X136095970Y-50358882D01*
X136095972Y-50358882D01*
X136095975Y-50358884D01*
X136154962Y-50378050D01*
X136283173Y-50419709D01*
X136477578Y-50450500D01*
X136477583Y-50450500D01*
X136674422Y-50450500D01*
X136868826Y-50419709D01*
X136906435Y-50407489D01*
X137056025Y-50358884D01*
X137231405Y-50269524D01*
X137390646Y-50153828D01*
X137529828Y-50014646D01*
X137645524Y-49855405D01*
X137734884Y-49680025D01*
X137735515Y-49678787D01*
X137783489Y-49627990D01*
X137851310Y-49611195D01*
X137917445Y-49633732D01*
X137956485Y-49678787D01*
X138046474Y-49855403D01*
X138050817Y-49861380D01*
X138162172Y-50014646D01*
X138301354Y-50153828D01*
X138460595Y-50269524D01*
X138531314Y-50305557D01*
X138635970Y-50358882D01*
X138635972Y-50358882D01*
X138635975Y-50358884D01*
X138694962Y-50378050D01*
X138823173Y-50419709D01*
X139017578Y-50450500D01*
X139017583Y-50450500D01*
X139214422Y-50450500D01*
X139408826Y-50419709D01*
X139446435Y-50407489D01*
X139596025Y-50358884D01*
X139771405Y-50269524D01*
X139930646Y-50153828D01*
X140069828Y-50014646D01*
X140185524Y-49855405D01*
X140274884Y-49680025D01*
X140275515Y-49678787D01*
X140323489Y-49627990D01*
X140391310Y-49611195D01*
X140457445Y-49633732D01*
X140496485Y-49678787D01*
X140586474Y-49855403D01*
X140590817Y-49861380D01*
X140702172Y-50014646D01*
X140841354Y-50153828D01*
X141000595Y-50269524D01*
X141071314Y-50305557D01*
X141175970Y-50358882D01*
X141175972Y-50358882D01*
X141175975Y-50358884D01*
X141234962Y-50378050D01*
X141363173Y-50419709D01*
X141557578Y-50450500D01*
X141557583Y-50450500D01*
X141754422Y-50450500D01*
X141948826Y-50419709D01*
X141986435Y-50407489D01*
X142136025Y-50358884D01*
X142311405Y-50269524D01*
X142470646Y-50153828D01*
X142609828Y-50014646D01*
X142725524Y-49855405D01*
X142814884Y-49680025D01*
X142875709Y-49492826D01*
X142891521Y-49392993D01*
X142906500Y-49298422D01*
X142906500Y-49101577D01*
X142875709Y-48907173D01*
X142814882Y-48719970D01*
X142747265Y-48587264D01*
X142725524Y-48544595D01*
X142609828Y-48385354D01*
X142470646Y-48246172D01*
X142311405Y-48130476D01*
X142136029Y-48041117D01*
X141948826Y-47980290D01*
X141754422Y-47949500D01*
X141754417Y-47949500D01*
X141557583Y-47949500D01*
X141557578Y-47949500D01*
X141363173Y-47980290D01*
X141175970Y-48041117D01*
X141000594Y-48130476D01*
X140945815Y-48170276D01*
X140841354Y-48246172D01*
X140841352Y-48246174D01*
X140841351Y-48246174D01*
X140702174Y-48385351D01*
X140702174Y-48385352D01*
X140702172Y-48385354D01*
X140652485Y-48453741D01*
X140586476Y-48544594D01*
X140496485Y-48721213D01*
X140448511Y-48772009D01*
X140380690Y-48788804D01*
X140314555Y-48766267D01*
X140275515Y-48721213D01*
X140207725Y-48588167D01*
X140185524Y-48544595D01*
X140069828Y-48385354D01*
X139930646Y-48246172D01*
X139771405Y-48130476D01*
X139596029Y-48041117D01*
X139408826Y-47980290D01*
X139214422Y-47949500D01*
X139214417Y-47949500D01*
X139017583Y-47949500D01*
X139017578Y-47949500D01*
X138823173Y-47980290D01*
X138635970Y-48041117D01*
X138460594Y-48130476D01*
X138405815Y-48170276D01*
X138301354Y-48246172D01*
X138301352Y-48246174D01*
X138301351Y-48246174D01*
X138162174Y-48385351D01*
X138162174Y-48385352D01*
X138162172Y-48385354D01*
X138112485Y-48453741D01*
X138046476Y-48544594D01*
X137956485Y-48721213D01*
X137908511Y-48772009D01*
X137840690Y-48788804D01*
X137774555Y-48766267D01*
X137735515Y-48721213D01*
X137667725Y-48588167D01*
X137645524Y-48544595D01*
X137529828Y-48385354D01*
X137390646Y-48246172D01*
X137231405Y-48130476D01*
X137056029Y-48041117D01*
X136868826Y-47980290D01*
X136674422Y-47949500D01*
X136674417Y-47949500D01*
X136477583Y-47949500D01*
X136477578Y-47949500D01*
X136283173Y-47980290D01*
X136095970Y-48041117D01*
X135920594Y-48130476D01*
X135865815Y-48170276D01*
X135761354Y-48246172D01*
X135761352Y-48246174D01*
X135761351Y-48246174D01*
X135622174Y-48385351D01*
X135622174Y-48385352D01*
X135622172Y-48385354D01*
X135572485Y-48453741D01*
X135506476Y-48544594D01*
X135416485Y-48721213D01*
X135368511Y-48772009D01*
X135300690Y-48788804D01*
X135234555Y-48766267D01*
X135195515Y-48721213D01*
X135127725Y-48588167D01*
X135105524Y-48544595D01*
X134989828Y-48385354D01*
X134850646Y-48246172D01*
X134691405Y-48130476D01*
X134516029Y-48041117D01*
X134328826Y-47980290D01*
X134134422Y-47949500D01*
X134134417Y-47949500D01*
X133937583Y-47949500D01*
X133937578Y-47949500D01*
X133743173Y-47980290D01*
X133555970Y-48041117D01*
X133380594Y-48130476D01*
X133325815Y-48170276D01*
X133221354Y-48246172D01*
X133221352Y-48246174D01*
X133221351Y-48246174D01*
X133082174Y-48385351D01*
X133082174Y-48385352D01*
X133082172Y-48385354D01*
X133032485Y-48453741D01*
X132966476Y-48544594D01*
X132876485Y-48721213D01*
X132828511Y-48772009D01*
X132760690Y-48788804D01*
X132694555Y-48766267D01*
X132655515Y-48721213D01*
X132587725Y-48588167D01*
X132565524Y-48544595D01*
X132449828Y-48385354D01*
X132310646Y-48246172D01*
X132151405Y-48130476D01*
X131976029Y-48041117D01*
X131788826Y-47980290D01*
X131594422Y-47949500D01*
X131594417Y-47949500D01*
X131397583Y-47949500D01*
X131397578Y-47949500D01*
X131203173Y-47980290D01*
X131015970Y-48041117D01*
X130840594Y-48130476D01*
X130785815Y-48170276D01*
X130681354Y-48246172D01*
X130681352Y-48246174D01*
X130681351Y-48246174D01*
X130542174Y-48385351D01*
X130542174Y-48385352D01*
X130542172Y-48385354D01*
X130492485Y-48453741D01*
X130426476Y-48544594D01*
X130336485Y-48721213D01*
X130288511Y-48772009D01*
X130220690Y-48788804D01*
X130154555Y-48766267D01*
X130115515Y-48721213D01*
X130047725Y-48588167D01*
X130025524Y-48544595D01*
X129909828Y-48385354D01*
X129770646Y-48246172D01*
X129611405Y-48130476D01*
X129436029Y-48041117D01*
X129248826Y-47980290D01*
X129054422Y-47949500D01*
X129054417Y-47949500D01*
X128857583Y-47949500D01*
X128857578Y-47949500D01*
X128663173Y-47980290D01*
X128475970Y-48041117D01*
X128300594Y-48130476D01*
X128245815Y-48170276D01*
X128141354Y-48246172D01*
X128141352Y-48246174D01*
X128141351Y-48246174D01*
X128002174Y-48385351D01*
X128002174Y-48385352D01*
X128002172Y-48385354D01*
X127944324Y-48464974D01*
X127886474Y-48544597D01*
X127852319Y-48611630D01*
X127804345Y-48662425D01*
X127736524Y-48679220D01*
X127670389Y-48656682D01*
X127631350Y-48611629D01*
X127570620Y-48492442D01*
X127445727Y-48320540D01*
X127445723Y-48320535D01*
X127295464Y-48170276D01*
X127295459Y-48170272D01*
X127123557Y-48045379D01*
X126934215Y-47948903D01*
X126732127Y-47883242D01*
X126732124Y-47883241D01*
X126566000Y-47856929D01*
X126566000Y-48722554D01*
X126481826Y-48700000D01*
X126350174Y-48700000D01*
X126266000Y-48722554D01*
X126266000Y-47856929D01*
X126265999Y-47856929D01*
X126099875Y-47883241D01*
X126099872Y-47883242D01*
X125897784Y-47948903D01*
X125708442Y-48045379D01*
X125536540Y-48170272D01*
X125536535Y-48170276D01*
X125386276Y-48320535D01*
X125386272Y-48320540D01*
X125261377Y-48492444D01*
X125200648Y-48611630D01*
X125152674Y-48662425D01*
X125084852Y-48679220D01*
X125018718Y-48656682D01*
X124979679Y-48611628D01*
X124945525Y-48544596D01*
X124907632Y-48492442D01*
X124829828Y-48385354D01*
X124690646Y-48246172D01*
X124531405Y-48130476D01*
X124356029Y-48041117D01*
X124168826Y-47980290D01*
X123974422Y-47949500D01*
X123974417Y-47949500D01*
X123777583Y-47949500D01*
X123777578Y-47949500D01*
X123583173Y-47980290D01*
X123395970Y-48041117D01*
X123220594Y-48130476D01*
X123165815Y-48170276D01*
X123061354Y-48246172D01*
X123061352Y-48246174D01*
X123061351Y-48246174D01*
X122922174Y-48385351D01*
X122922174Y-48385352D01*
X122922172Y-48385354D01*
X122872485Y-48453741D01*
X122806476Y-48544594D01*
X122716485Y-48721213D01*
X122668511Y-48772009D01*
X122600690Y-48788804D01*
X122534555Y-48766267D01*
X122495515Y-48721213D01*
X122427725Y-48588167D01*
X122405524Y-48544595D01*
X122289828Y-48385354D01*
X122150646Y-48246172D01*
X121991405Y-48130476D01*
X121816029Y-48041117D01*
X121628826Y-47980290D01*
X121434422Y-47949500D01*
X121434417Y-47949500D01*
X121237583Y-47949500D01*
X121237578Y-47949500D01*
X121043173Y-47980290D01*
X120855970Y-48041117D01*
X120680594Y-48130476D01*
X120625815Y-48170276D01*
X120521354Y-48246172D01*
X120521352Y-48246174D01*
X120521351Y-48246174D01*
X120382173Y-48385352D01*
X120270817Y-48538620D01*
X120215486Y-48581285D01*
X120145873Y-48587264D01*
X120084078Y-48554658D01*
X120049721Y-48493819D01*
X120046499Y-48465734D01*
X120046499Y-48318482D01*
X120035047Y-48246174D01*
X120031646Y-48224696D01*
X119974050Y-48111658D01*
X119974046Y-48111654D01*
X119974045Y-48111652D01*
X119884347Y-48021954D01*
X119884344Y-48021952D01*
X119884342Y-48021950D01*
X119796043Y-47976959D01*
X119771301Y-47964352D01*
X119677524Y-47949500D01*
X117914482Y-47949500D01*
X117833519Y-47962323D01*
X117820696Y-47964354D01*
X117707658Y-48021950D01*
X117707657Y-48021951D01*
X117707652Y-48021954D01*
X117617954Y-48111652D01*
X117617951Y-48111657D01*
X117560352Y-48224698D01*
X117545500Y-48318475D01*
X117545500Y-50081517D01*
X117556292Y-50149657D01*
X117560354Y-50175304D01*
X117617950Y-50288342D01*
X117617952Y-50288344D01*
X117617954Y-50288347D01*
X117707652Y-50378045D01*
X117707654Y-50378046D01*
X117707658Y-50378050D01*
X117805553Y-50427930D01*
X117820698Y-50435647D01*
X117914475Y-50450499D01*
X117914481Y-50450500D01*
X118071500Y-50450499D01*
X118138539Y-50470183D01*
X118184294Y-50522987D01*
X118195500Y-50574499D01*
X118195500Y-52403902D01*
X118175815Y-52470941D01*
X118159181Y-52491583D01*
X114519481Y-56131282D01*
X114519479Y-56131285D01*
X114514147Y-56140521D01*
X114485036Y-56190943D01*
X114440423Y-56268215D01*
X114399499Y-56420943D01*
X114399499Y-56579057D01*
X114399499Y-56579059D01*
X114399500Y-56589053D01*
X114399500Y-64413330D01*
X114399499Y-64413348D01*
X114399499Y-64579054D01*
X114399498Y-64579054D01*
X100400500Y-64579054D01*
X100400500Y-57147124D01*
X100400505Y-57145965D01*
X100407368Y-56411656D01*
X100425238Y-54499481D01*
X100475943Y-49074038D01*
X113639500Y-49074038D01*
X113639500Y-49325961D01*
X113678910Y-49574785D01*
X113756760Y-49814383D01*
X113871132Y-50038848D01*
X114019201Y-50242649D01*
X114019205Y-50242654D01*
X114197345Y-50420794D01*
X114197350Y-50420798D01*
X114338002Y-50522987D01*
X114401155Y-50568870D01*
X114544184Y-50641747D01*
X114625616Y-50683239D01*
X114625618Y-50683239D01*
X114625621Y-50683241D01*
X114865215Y-50761090D01*
X115114038Y-50800500D01*
X115114039Y-50800500D01*
X115365961Y-50800500D01*
X115365962Y-50800500D01*
X115614785Y-50761090D01*
X115854379Y-50683241D01*
X116078845Y-50568870D01*
X116282656Y-50420793D01*
X116460793Y-50242656D01*
X116608870Y-50038845D01*
X116723241Y-49814379D01*
X116801090Y-49574785D01*
X116840500Y-49325962D01*
X116840500Y-49074038D01*
X116801090Y-48825215D01*
X116723241Y-48585621D01*
X116723239Y-48585618D01*
X116723239Y-48585616D01*
X116675764Y-48492442D01*
X116608870Y-48361155D01*
X116525330Y-48246172D01*
X116460798Y-48157350D01*
X116460794Y-48157345D01*
X116282654Y-47979205D01*
X116282649Y-47979201D01*
X116078848Y-47831132D01*
X116078847Y-47831131D01*
X116078845Y-47831130D01*
X116008747Y-47795413D01*
X115854383Y-47716760D01*
X115614785Y-47638910D01*
X115365962Y-47599500D01*
X115114038Y-47599500D01*
X114989626Y-47619205D01*
X114865214Y-47638910D01*
X114625616Y-47716760D01*
X114401151Y-47831132D01*
X114197350Y-47979201D01*
X114197345Y-47979205D01*
X114019205Y-48157345D01*
X114019201Y-48157350D01*
X113871132Y-48361151D01*
X113756760Y-48585616D01*
X113678910Y-48825214D01*
X113639500Y-49074038D01*
X100475943Y-49074038D01*
X100498845Y-46623481D01*
X100519156Y-46556633D01*
X100572385Y-46511373D01*
X100623486Y-46500646D01*
X195955475Y-46999766D01*
G37*
%TD.AperFunction*%
%TD*%
M02*
